%TF.GenerationSoftware,KiCad,Pcbnew,(5.1.6)-1*%
%TF.CreationDate,2020-09-08T20:54:55+07:00*%
%TF.ProjectId,RX_nrf24,52585f6e-7266-4323-942e-6b696361645f,rev?*%
%TF.SameCoordinates,Original*%
%TF.FileFunction,Paste,Top*%
%TF.FilePolarity,Positive*%
%FSLAX46Y46*%
G04 Gerber Fmt 4.6, Leading zero omitted, Abs format (unit mm)*
G04 Created by KiCad (PCBNEW (5.1.6)-1) date 2020-09-08 20:54:55*
%MOMM*%
%LPD*%
G01*
G04 APERTURE LIST*
%ADD10R,1.150000X1.000000*%
%ADD11R,0.800000X0.900000*%
%ADD12R,1.900000X1.000000*%
%ADD13R,1.900000X1.800000*%
%ADD14R,1.300000X1.650000*%
%ADD15R,1.550000X1.425000*%
%ADD16R,1.380000X0.450000*%
%ADD17R,1.550000X1.300000*%
%ADD18R,1.060000X0.650000*%
G04 APERTURE END LIST*
%TO.C,C12*%
G36*
G01*
X193600000Y-95175000D02*
X191750000Y-95175000D01*
G75*
G02*
X191500000Y-94925000I0J250000D01*
G01*
X191500000Y-93925000D01*
G75*
G02*
X191750000Y-93675000I250000J0D01*
G01*
X193600000Y-93675000D01*
G75*
G02*
X193850000Y-93925000I0J-250000D01*
G01*
X193850000Y-94925000D01*
G75*
G02*
X193600000Y-95175000I-250000J0D01*
G01*
G37*
G36*
G01*
X193600000Y-98425000D02*
X191750000Y-98425000D01*
G75*
G02*
X191500000Y-98175000I0J250000D01*
G01*
X191500000Y-97175000D01*
G75*
G02*
X191750000Y-96925000I250000J0D01*
G01*
X193600000Y-96925000D01*
G75*
G02*
X193850000Y-97175000I0J-250000D01*
G01*
X193850000Y-98175000D01*
G75*
G02*
X193600000Y-98425000I-250000J0D01*
G01*
G37*
%TD*%
%TO.C,R3*%
G36*
G01*
X157270000Y-103077500D02*
X157270000Y-102602500D01*
G75*
G02*
X157507500Y-102365000I237500J0D01*
G01*
X158082500Y-102365000D01*
G75*
G02*
X158320000Y-102602500I0J-237500D01*
G01*
X158320000Y-103077500D01*
G75*
G02*
X158082500Y-103315000I-237500J0D01*
G01*
X157507500Y-103315000D01*
G75*
G02*
X157270000Y-103077500I0J237500D01*
G01*
G37*
G36*
G01*
X155520000Y-103077500D02*
X155520000Y-102602500D01*
G75*
G02*
X155757500Y-102365000I237500J0D01*
G01*
X156332500Y-102365000D01*
G75*
G02*
X156570000Y-102602500I0J-237500D01*
G01*
X156570000Y-103077500D01*
G75*
G02*
X156332500Y-103315000I-237500J0D01*
G01*
X155757500Y-103315000D01*
G75*
G02*
X155520000Y-103077500I0J237500D01*
G01*
G37*
%TD*%
%TO.C,C15*%
G36*
G01*
X167750000Y-110362500D02*
X167750000Y-110837500D01*
G75*
G02*
X167512500Y-111075000I-237500J0D01*
G01*
X166937500Y-111075000D01*
G75*
G02*
X166700000Y-110837500I0J237500D01*
G01*
X166700000Y-110362500D01*
G75*
G02*
X166937500Y-110125000I237500J0D01*
G01*
X167512500Y-110125000D01*
G75*
G02*
X167750000Y-110362500I0J-237500D01*
G01*
G37*
G36*
G01*
X169500000Y-110362500D02*
X169500000Y-110837500D01*
G75*
G02*
X169262500Y-111075000I-237500J0D01*
G01*
X168687500Y-111075000D01*
G75*
G02*
X168450000Y-110837500I0J237500D01*
G01*
X168450000Y-110362500D01*
G75*
G02*
X168687500Y-110125000I237500J0D01*
G01*
X169262500Y-110125000D01*
G75*
G02*
X169500000Y-110362500I0J-237500D01*
G01*
G37*
%TD*%
%TO.C,nRF24*%
G36*
G01*
X186055000Y-99817500D02*
X186055000Y-99117500D01*
G75*
G02*
X186117500Y-99055000I62500J0D01*
G01*
X186242500Y-99055000D01*
G75*
G02*
X186305000Y-99117500I0J-62500D01*
G01*
X186305000Y-99817500D01*
G75*
G02*
X186242500Y-99880000I-62500J0D01*
G01*
X186117500Y-99880000D01*
G75*
G02*
X186055000Y-99817500I0J62500D01*
G01*
G37*
G36*
G01*
X186555000Y-99817500D02*
X186555000Y-99117500D01*
G75*
G02*
X186617500Y-99055000I62500J0D01*
G01*
X186742500Y-99055000D01*
G75*
G02*
X186805000Y-99117500I0J-62500D01*
G01*
X186805000Y-99817500D01*
G75*
G02*
X186742500Y-99880000I-62500J0D01*
G01*
X186617500Y-99880000D01*
G75*
G02*
X186555000Y-99817500I0J62500D01*
G01*
G37*
G36*
G01*
X187055000Y-99817500D02*
X187055000Y-99117500D01*
G75*
G02*
X187117500Y-99055000I62500J0D01*
G01*
X187242500Y-99055000D01*
G75*
G02*
X187305000Y-99117500I0J-62500D01*
G01*
X187305000Y-99817500D01*
G75*
G02*
X187242500Y-99880000I-62500J0D01*
G01*
X187117500Y-99880000D01*
G75*
G02*
X187055000Y-99817500I0J62500D01*
G01*
G37*
G36*
G01*
X187555000Y-99817500D02*
X187555000Y-99117500D01*
G75*
G02*
X187617500Y-99055000I62500J0D01*
G01*
X187742500Y-99055000D01*
G75*
G02*
X187805000Y-99117500I0J-62500D01*
G01*
X187805000Y-99817500D01*
G75*
G02*
X187742500Y-99880000I-62500J0D01*
G01*
X187617500Y-99880000D01*
G75*
G02*
X187555000Y-99817500I0J62500D01*
G01*
G37*
G36*
G01*
X188055000Y-99817500D02*
X188055000Y-99117500D01*
G75*
G02*
X188117500Y-99055000I62500J0D01*
G01*
X188242500Y-99055000D01*
G75*
G02*
X188305000Y-99117500I0J-62500D01*
G01*
X188305000Y-99817500D01*
G75*
G02*
X188242500Y-99880000I-62500J0D01*
G01*
X188117500Y-99880000D01*
G75*
G02*
X188055000Y-99817500I0J62500D01*
G01*
G37*
G36*
G01*
X188705000Y-100467500D02*
X188705000Y-100342500D01*
G75*
G02*
X188767500Y-100280000I62500J0D01*
G01*
X189467500Y-100280000D01*
G75*
G02*
X189530000Y-100342500I0J-62500D01*
G01*
X189530000Y-100467500D01*
G75*
G02*
X189467500Y-100530000I-62500J0D01*
G01*
X188767500Y-100530000D01*
G75*
G02*
X188705000Y-100467500I0J62500D01*
G01*
G37*
G36*
G01*
X188705000Y-100967500D02*
X188705000Y-100842500D01*
G75*
G02*
X188767500Y-100780000I62500J0D01*
G01*
X189467500Y-100780000D01*
G75*
G02*
X189530000Y-100842500I0J-62500D01*
G01*
X189530000Y-100967500D01*
G75*
G02*
X189467500Y-101030000I-62500J0D01*
G01*
X188767500Y-101030000D01*
G75*
G02*
X188705000Y-100967500I0J62500D01*
G01*
G37*
G36*
G01*
X188705000Y-101467500D02*
X188705000Y-101342500D01*
G75*
G02*
X188767500Y-101280000I62500J0D01*
G01*
X189467500Y-101280000D01*
G75*
G02*
X189530000Y-101342500I0J-62500D01*
G01*
X189530000Y-101467500D01*
G75*
G02*
X189467500Y-101530000I-62500J0D01*
G01*
X188767500Y-101530000D01*
G75*
G02*
X188705000Y-101467500I0J62500D01*
G01*
G37*
G36*
G01*
X188705000Y-101967500D02*
X188705000Y-101842500D01*
G75*
G02*
X188767500Y-101780000I62500J0D01*
G01*
X189467500Y-101780000D01*
G75*
G02*
X189530000Y-101842500I0J-62500D01*
G01*
X189530000Y-101967500D01*
G75*
G02*
X189467500Y-102030000I-62500J0D01*
G01*
X188767500Y-102030000D01*
G75*
G02*
X188705000Y-101967500I0J62500D01*
G01*
G37*
G36*
G01*
X188705000Y-102467500D02*
X188705000Y-102342500D01*
G75*
G02*
X188767500Y-102280000I62500J0D01*
G01*
X189467500Y-102280000D01*
G75*
G02*
X189530000Y-102342500I0J-62500D01*
G01*
X189530000Y-102467500D01*
G75*
G02*
X189467500Y-102530000I-62500J0D01*
G01*
X188767500Y-102530000D01*
G75*
G02*
X188705000Y-102467500I0J62500D01*
G01*
G37*
G36*
G01*
X188055000Y-103692500D02*
X188055000Y-102992500D01*
G75*
G02*
X188117500Y-102930000I62500J0D01*
G01*
X188242500Y-102930000D01*
G75*
G02*
X188305000Y-102992500I0J-62500D01*
G01*
X188305000Y-103692500D01*
G75*
G02*
X188242500Y-103755000I-62500J0D01*
G01*
X188117500Y-103755000D01*
G75*
G02*
X188055000Y-103692500I0J62500D01*
G01*
G37*
G36*
G01*
X187555000Y-103692500D02*
X187555000Y-102992500D01*
G75*
G02*
X187617500Y-102930000I62500J0D01*
G01*
X187742500Y-102930000D01*
G75*
G02*
X187805000Y-102992500I0J-62500D01*
G01*
X187805000Y-103692500D01*
G75*
G02*
X187742500Y-103755000I-62500J0D01*
G01*
X187617500Y-103755000D01*
G75*
G02*
X187555000Y-103692500I0J62500D01*
G01*
G37*
G36*
G01*
X187055000Y-103692500D02*
X187055000Y-102992500D01*
G75*
G02*
X187117500Y-102930000I62500J0D01*
G01*
X187242500Y-102930000D01*
G75*
G02*
X187305000Y-102992500I0J-62500D01*
G01*
X187305000Y-103692500D01*
G75*
G02*
X187242500Y-103755000I-62500J0D01*
G01*
X187117500Y-103755000D01*
G75*
G02*
X187055000Y-103692500I0J62500D01*
G01*
G37*
G36*
G01*
X186555000Y-103692500D02*
X186555000Y-102992500D01*
G75*
G02*
X186617500Y-102930000I62500J0D01*
G01*
X186742500Y-102930000D01*
G75*
G02*
X186805000Y-102992500I0J-62500D01*
G01*
X186805000Y-103692500D01*
G75*
G02*
X186742500Y-103755000I-62500J0D01*
G01*
X186617500Y-103755000D01*
G75*
G02*
X186555000Y-103692500I0J62500D01*
G01*
G37*
G36*
G01*
X186055000Y-103692500D02*
X186055000Y-102992500D01*
G75*
G02*
X186117500Y-102930000I62500J0D01*
G01*
X186242500Y-102930000D01*
G75*
G02*
X186305000Y-102992500I0J-62500D01*
G01*
X186305000Y-103692500D01*
G75*
G02*
X186242500Y-103755000I-62500J0D01*
G01*
X186117500Y-103755000D01*
G75*
G02*
X186055000Y-103692500I0J62500D01*
G01*
G37*
G36*
G01*
X184830000Y-102467500D02*
X184830000Y-102342500D01*
G75*
G02*
X184892500Y-102280000I62500J0D01*
G01*
X185592500Y-102280000D01*
G75*
G02*
X185655000Y-102342500I0J-62500D01*
G01*
X185655000Y-102467500D01*
G75*
G02*
X185592500Y-102530000I-62500J0D01*
G01*
X184892500Y-102530000D01*
G75*
G02*
X184830000Y-102467500I0J62500D01*
G01*
G37*
G36*
G01*
X184830000Y-101967500D02*
X184830000Y-101842500D01*
G75*
G02*
X184892500Y-101780000I62500J0D01*
G01*
X185592500Y-101780000D01*
G75*
G02*
X185655000Y-101842500I0J-62500D01*
G01*
X185655000Y-101967500D01*
G75*
G02*
X185592500Y-102030000I-62500J0D01*
G01*
X184892500Y-102030000D01*
G75*
G02*
X184830000Y-101967500I0J62500D01*
G01*
G37*
G36*
G01*
X184830000Y-101467500D02*
X184830000Y-101342500D01*
G75*
G02*
X184892500Y-101280000I62500J0D01*
G01*
X185592500Y-101280000D01*
G75*
G02*
X185655000Y-101342500I0J-62500D01*
G01*
X185655000Y-101467500D01*
G75*
G02*
X185592500Y-101530000I-62500J0D01*
G01*
X184892500Y-101530000D01*
G75*
G02*
X184830000Y-101467500I0J62500D01*
G01*
G37*
G36*
G01*
X184830000Y-100967500D02*
X184830000Y-100842500D01*
G75*
G02*
X184892500Y-100780000I62500J0D01*
G01*
X185592500Y-100780000D01*
G75*
G02*
X185655000Y-100842500I0J-62500D01*
G01*
X185655000Y-100967500D01*
G75*
G02*
X185592500Y-101030000I-62500J0D01*
G01*
X184892500Y-101030000D01*
G75*
G02*
X184830000Y-100967500I0J62500D01*
G01*
G37*
G36*
G01*
X184830000Y-100467500D02*
X184830000Y-100342500D01*
G75*
G02*
X184892500Y-100280000I62500J0D01*
G01*
X185592500Y-100280000D01*
G75*
G02*
X185655000Y-100342500I0J-62500D01*
G01*
X185655000Y-100467500D01*
G75*
G02*
X185592500Y-100530000I-62500J0D01*
G01*
X184892500Y-100530000D01*
G75*
G02*
X184830000Y-100467500I0J62500D01*
G01*
G37*
%TD*%
%TO.C,8.2nH1*%
G36*
G01*
X191143750Y-102437500D02*
X191656250Y-102437500D01*
G75*
G02*
X191875000Y-102656250I0J-218750D01*
G01*
X191875000Y-103093750D01*
G75*
G02*
X191656250Y-103312500I-218750J0D01*
G01*
X191143750Y-103312500D01*
G75*
G02*
X190925000Y-103093750I0J218750D01*
G01*
X190925000Y-102656250D01*
G75*
G02*
X191143750Y-102437500I218750J0D01*
G01*
G37*
G36*
G01*
X191143750Y-100862500D02*
X191656250Y-100862500D01*
G75*
G02*
X191875000Y-101081250I0J-218750D01*
G01*
X191875000Y-101518750D01*
G75*
G02*
X191656250Y-101737500I-218750J0D01*
G01*
X191143750Y-101737500D01*
G75*
G02*
X190925000Y-101518750I0J218750D01*
G01*
X190925000Y-101081250D01*
G75*
G02*
X191143750Y-100862500I218750J0D01*
G01*
G37*
%TD*%
%TO.C,3.9nH1*%
G36*
G01*
X193700000Y-101576250D02*
X193700000Y-101063750D01*
G75*
G02*
X193918750Y-100845000I218750J0D01*
G01*
X194356250Y-100845000D01*
G75*
G02*
X194575000Y-101063750I0J-218750D01*
G01*
X194575000Y-101576250D01*
G75*
G02*
X194356250Y-101795000I-218750J0D01*
G01*
X193918750Y-101795000D01*
G75*
G02*
X193700000Y-101576250I0J218750D01*
G01*
G37*
G36*
G01*
X192125000Y-101576250D02*
X192125000Y-101063750D01*
G75*
G02*
X192343750Y-100845000I218750J0D01*
G01*
X192781250Y-100845000D01*
G75*
G02*
X193000000Y-101063750I0J-218750D01*
G01*
X193000000Y-101576250D01*
G75*
G02*
X192781250Y-101795000I-218750J0D01*
G01*
X192343750Y-101795000D01*
G75*
G02*
X192125000Y-101576250I0J218750D01*
G01*
G37*
%TD*%
%TO.C,2.7nH1*%
G36*
G01*
X192593750Y-104100000D02*
X193106250Y-104100000D01*
G75*
G02*
X193325000Y-104318750I0J-218750D01*
G01*
X193325000Y-104756250D01*
G75*
G02*
X193106250Y-104975000I-218750J0D01*
G01*
X192593750Y-104975000D01*
G75*
G02*
X192375000Y-104756250I0J218750D01*
G01*
X192375000Y-104318750D01*
G75*
G02*
X192593750Y-104100000I218750J0D01*
G01*
G37*
G36*
G01*
X192593750Y-102525000D02*
X193106250Y-102525000D01*
G75*
G02*
X193325000Y-102743750I0J-218750D01*
G01*
X193325000Y-103181250D01*
G75*
G02*
X193106250Y-103400000I-218750J0D01*
G01*
X192593750Y-103400000D01*
G75*
G02*
X192375000Y-103181250I0J218750D01*
G01*
X192375000Y-102743750D01*
G75*
G02*
X192593750Y-102525000I218750J0D01*
G01*
G37*
%TD*%
%TO.C,1pF3*%
G36*
G01*
X195465000Y-106246250D02*
X195465000Y-105733750D01*
G75*
G02*
X195683750Y-105515000I218750J0D01*
G01*
X196121250Y-105515000D01*
G75*
G02*
X196340000Y-105733750I0J-218750D01*
G01*
X196340000Y-106246250D01*
G75*
G02*
X196121250Y-106465000I-218750J0D01*
G01*
X195683750Y-106465000D01*
G75*
G02*
X195465000Y-106246250I0J218750D01*
G01*
G37*
G36*
G01*
X193890000Y-106246250D02*
X193890000Y-105733750D01*
G75*
G02*
X194108750Y-105515000I218750J0D01*
G01*
X194546250Y-105515000D01*
G75*
G02*
X194765000Y-105733750I0J-218750D01*
G01*
X194765000Y-106246250D01*
G75*
G02*
X194546250Y-106465000I-218750J0D01*
G01*
X194108750Y-106465000D01*
G75*
G02*
X193890000Y-106246250I0J218750D01*
G01*
G37*
%TD*%
%TO.C,1pF2*%
G36*
G01*
X197883750Y-102420000D02*
X198396250Y-102420000D01*
G75*
G02*
X198615000Y-102638750I0J-218750D01*
G01*
X198615000Y-103076250D01*
G75*
G02*
X198396250Y-103295000I-218750J0D01*
G01*
X197883750Y-103295000D01*
G75*
G02*
X197665000Y-103076250I0J218750D01*
G01*
X197665000Y-102638750D01*
G75*
G02*
X197883750Y-102420000I218750J0D01*
G01*
G37*
G36*
G01*
X197883750Y-100845000D02*
X198396250Y-100845000D01*
G75*
G02*
X198615000Y-101063750I0J-218750D01*
G01*
X198615000Y-101501250D01*
G75*
G02*
X198396250Y-101720000I-218750J0D01*
G01*
X197883750Y-101720000D01*
G75*
G02*
X197665000Y-101501250I0J218750D01*
G01*
X197665000Y-101063750D01*
G75*
G02*
X197883750Y-100845000I218750J0D01*
G01*
G37*
%TD*%
%TO.C,1pF1*%
G36*
G01*
X195465000Y-104756250D02*
X195465000Y-104243750D01*
G75*
G02*
X195683750Y-104025000I218750J0D01*
G01*
X196121250Y-104025000D01*
G75*
G02*
X196340000Y-104243750I0J-218750D01*
G01*
X196340000Y-104756250D01*
G75*
G02*
X196121250Y-104975000I-218750J0D01*
G01*
X195683750Y-104975000D01*
G75*
G02*
X195465000Y-104756250I0J218750D01*
G01*
G37*
G36*
G01*
X193890000Y-104756250D02*
X193890000Y-104243750D01*
G75*
G02*
X194108750Y-104025000I218750J0D01*
G01*
X194546250Y-104025000D01*
G75*
G02*
X194765000Y-104243750I0J-218750D01*
G01*
X194765000Y-104756250D01*
G75*
G02*
X194546250Y-104975000I-218750J0D01*
G01*
X194108750Y-104975000D01*
G75*
G02*
X193890000Y-104756250I0J218750D01*
G01*
G37*
%TD*%
%TO.C,1.5pF1*%
G36*
G01*
X196520000Y-101566250D02*
X196520000Y-101053750D01*
G75*
G02*
X196738750Y-100835000I218750J0D01*
G01*
X197176250Y-100835000D01*
G75*
G02*
X197395000Y-101053750I0J-218750D01*
G01*
X197395000Y-101566250D01*
G75*
G02*
X197176250Y-101785000I-218750J0D01*
G01*
X196738750Y-101785000D01*
G75*
G02*
X196520000Y-101566250I0J218750D01*
G01*
G37*
G36*
G01*
X194945000Y-101566250D02*
X194945000Y-101053750D01*
G75*
G02*
X195163750Y-100835000I218750J0D01*
G01*
X195601250Y-100835000D01*
G75*
G02*
X195820000Y-101053750I0J-218750D01*
G01*
X195820000Y-101566250D01*
G75*
G02*
X195601250Y-101785000I-218750J0D01*
G01*
X195163750Y-101785000D01*
G75*
G02*
X194945000Y-101566250I0J218750D01*
G01*
G37*
%TD*%
%TO.C,STM32*%
G36*
G01*
X174575484Y-103949264D02*
X175512400Y-104886180D01*
G75*
G02*
X175512400Y-104992246I-53033J-53033D01*
G01*
X175406334Y-105098312D01*
G75*
G02*
X175300268Y-105098312I-53033J53033D01*
G01*
X174363352Y-104161396D01*
G75*
G02*
X174363352Y-104055330I53033J53033D01*
G01*
X174469418Y-103949264D01*
G75*
G02*
X174575484Y-103949264I53033J-53033D01*
G01*
G37*
G36*
G01*
X174221930Y-104302818D02*
X175158846Y-105239734D01*
G75*
G02*
X175158846Y-105345800I-53033J-53033D01*
G01*
X175052780Y-105451866D01*
G75*
G02*
X174946714Y-105451866I-53033J53033D01*
G01*
X174009798Y-104514950D01*
G75*
G02*
X174009798Y-104408884I53033J53033D01*
G01*
X174115864Y-104302818D01*
G75*
G02*
X174221930Y-104302818I53033J-53033D01*
G01*
G37*
G36*
G01*
X173868377Y-104656371D02*
X174805293Y-105593287D01*
G75*
G02*
X174805293Y-105699353I-53033J-53033D01*
G01*
X174699227Y-105805419D01*
G75*
G02*
X174593161Y-105805419I-53033J53033D01*
G01*
X173656245Y-104868503D01*
G75*
G02*
X173656245Y-104762437I53033J53033D01*
G01*
X173762311Y-104656371D01*
G75*
G02*
X173868377Y-104656371I53033J-53033D01*
G01*
G37*
G36*
G01*
X173514823Y-105009925D02*
X174451739Y-105946841D01*
G75*
G02*
X174451739Y-106052907I-53033J-53033D01*
G01*
X174345673Y-106158973D01*
G75*
G02*
X174239607Y-106158973I-53033J53033D01*
G01*
X173302691Y-105222057D01*
G75*
G02*
X173302691Y-105115991I53033J53033D01*
G01*
X173408757Y-105009925D01*
G75*
G02*
X173514823Y-105009925I53033J-53033D01*
G01*
G37*
G36*
G01*
X173161270Y-105363478D02*
X174098186Y-106300394D01*
G75*
G02*
X174098186Y-106406460I-53033J-53033D01*
G01*
X173992120Y-106512526D01*
G75*
G02*
X173886054Y-106512526I-53033J53033D01*
G01*
X172949138Y-105575610D01*
G75*
G02*
X172949138Y-105469544I53033J53033D01*
G01*
X173055204Y-105363478D01*
G75*
G02*
X173161270Y-105363478I53033J-53033D01*
G01*
G37*
G36*
G01*
X172807717Y-105717031D02*
X173744633Y-106653947D01*
G75*
G02*
X173744633Y-106760013I-53033J-53033D01*
G01*
X173638567Y-106866079D01*
G75*
G02*
X173532501Y-106866079I-53033J53033D01*
G01*
X172595585Y-105929163D01*
G75*
G02*
X172595585Y-105823097I53033J53033D01*
G01*
X172701651Y-105717031D01*
G75*
G02*
X172807717Y-105717031I53033J-53033D01*
G01*
G37*
G36*
G01*
X172454163Y-106070585D02*
X173391079Y-107007501D01*
G75*
G02*
X173391079Y-107113567I-53033J-53033D01*
G01*
X173285013Y-107219633D01*
G75*
G02*
X173178947Y-107219633I-53033J53033D01*
G01*
X172242031Y-106282717D01*
G75*
G02*
X172242031Y-106176651I53033J53033D01*
G01*
X172348097Y-106070585D01*
G75*
G02*
X172454163Y-106070585I53033J-53033D01*
G01*
G37*
G36*
G01*
X172100610Y-106424138D02*
X173037526Y-107361054D01*
G75*
G02*
X173037526Y-107467120I-53033J-53033D01*
G01*
X172931460Y-107573186D01*
G75*
G02*
X172825394Y-107573186I-53033J53033D01*
G01*
X171888478Y-106636270D01*
G75*
G02*
X171888478Y-106530204I53033J53033D01*
G01*
X171994544Y-106424138D01*
G75*
G02*
X172100610Y-106424138I53033J-53033D01*
G01*
G37*
G36*
G01*
X171747057Y-106777691D02*
X172683973Y-107714607D01*
G75*
G02*
X172683973Y-107820673I-53033J-53033D01*
G01*
X172577907Y-107926739D01*
G75*
G02*
X172471841Y-107926739I-53033J53033D01*
G01*
X171534925Y-106989823D01*
G75*
G02*
X171534925Y-106883757I53033J53033D01*
G01*
X171640991Y-106777691D01*
G75*
G02*
X171747057Y-106777691I53033J-53033D01*
G01*
G37*
G36*
G01*
X171393503Y-107131245D02*
X172330419Y-108068161D01*
G75*
G02*
X172330419Y-108174227I-53033J-53033D01*
G01*
X172224353Y-108280293D01*
G75*
G02*
X172118287Y-108280293I-53033J53033D01*
G01*
X171181371Y-107343377D01*
G75*
G02*
X171181371Y-107237311I53033J53033D01*
G01*
X171287437Y-107131245D01*
G75*
G02*
X171393503Y-107131245I53033J-53033D01*
G01*
G37*
G36*
G01*
X171039950Y-107484798D02*
X171976866Y-108421714D01*
G75*
G02*
X171976866Y-108527780I-53033J-53033D01*
G01*
X171870800Y-108633846D01*
G75*
G02*
X171764734Y-108633846I-53033J53033D01*
G01*
X170827818Y-107696930D01*
G75*
G02*
X170827818Y-107590864I53033J53033D01*
G01*
X170933884Y-107484798D01*
G75*
G02*
X171039950Y-107484798I53033J-53033D01*
G01*
G37*
G36*
G01*
X170686396Y-107838352D02*
X171623312Y-108775268D01*
G75*
G02*
X171623312Y-108881334I-53033J-53033D01*
G01*
X171517246Y-108987400D01*
G75*
G02*
X171411180Y-108987400I-53033J53033D01*
G01*
X170474264Y-108050484D01*
G75*
G02*
X170474264Y-107944418I53033J53033D01*
G01*
X170580330Y-107838352D01*
G75*
G02*
X170686396Y-107838352I53033J-53033D01*
G01*
G37*
G36*
G01*
X169519670Y-107838352D02*
X169625736Y-107944418D01*
G75*
G02*
X169625736Y-108050484I-53033J-53033D01*
G01*
X168688820Y-108987400D01*
G75*
G02*
X168582754Y-108987400I-53033J53033D01*
G01*
X168476688Y-108881334D01*
G75*
G02*
X168476688Y-108775268I53033J53033D01*
G01*
X169413604Y-107838352D01*
G75*
G02*
X169519670Y-107838352I53033J-53033D01*
G01*
G37*
G36*
G01*
X169166116Y-107484798D02*
X169272182Y-107590864D01*
G75*
G02*
X169272182Y-107696930I-53033J-53033D01*
G01*
X168335266Y-108633846D01*
G75*
G02*
X168229200Y-108633846I-53033J53033D01*
G01*
X168123134Y-108527780D01*
G75*
G02*
X168123134Y-108421714I53033J53033D01*
G01*
X169060050Y-107484798D01*
G75*
G02*
X169166116Y-107484798I53033J-53033D01*
G01*
G37*
G36*
G01*
X168812563Y-107131245D02*
X168918629Y-107237311D01*
G75*
G02*
X168918629Y-107343377I-53033J-53033D01*
G01*
X167981713Y-108280293D01*
G75*
G02*
X167875647Y-108280293I-53033J53033D01*
G01*
X167769581Y-108174227D01*
G75*
G02*
X167769581Y-108068161I53033J53033D01*
G01*
X168706497Y-107131245D01*
G75*
G02*
X168812563Y-107131245I53033J-53033D01*
G01*
G37*
G36*
G01*
X168459009Y-106777691D02*
X168565075Y-106883757D01*
G75*
G02*
X168565075Y-106989823I-53033J-53033D01*
G01*
X167628159Y-107926739D01*
G75*
G02*
X167522093Y-107926739I-53033J53033D01*
G01*
X167416027Y-107820673D01*
G75*
G02*
X167416027Y-107714607I53033J53033D01*
G01*
X168352943Y-106777691D01*
G75*
G02*
X168459009Y-106777691I53033J-53033D01*
G01*
G37*
G36*
G01*
X168105456Y-106424138D02*
X168211522Y-106530204D01*
G75*
G02*
X168211522Y-106636270I-53033J-53033D01*
G01*
X167274606Y-107573186D01*
G75*
G02*
X167168540Y-107573186I-53033J53033D01*
G01*
X167062474Y-107467120D01*
G75*
G02*
X167062474Y-107361054I53033J53033D01*
G01*
X167999390Y-106424138D01*
G75*
G02*
X168105456Y-106424138I53033J-53033D01*
G01*
G37*
G36*
G01*
X167751903Y-106070585D02*
X167857969Y-106176651D01*
G75*
G02*
X167857969Y-106282717I-53033J-53033D01*
G01*
X166921053Y-107219633D01*
G75*
G02*
X166814987Y-107219633I-53033J53033D01*
G01*
X166708921Y-107113567D01*
G75*
G02*
X166708921Y-107007501I53033J53033D01*
G01*
X167645837Y-106070585D01*
G75*
G02*
X167751903Y-106070585I53033J-53033D01*
G01*
G37*
G36*
G01*
X167398349Y-105717031D02*
X167504415Y-105823097D01*
G75*
G02*
X167504415Y-105929163I-53033J-53033D01*
G01*
X166567499Y-106866079D01*
G75*
G02*
X166461433Y-106866079I-53033J53033D01*
G01*
X166355367Y-106760013D01*
G75*
G02*
X166355367Y-106653947I53033J53033D01*
G01*
X167292283Y-105717031D01*
G75*
G02*
X167398349Y-105717031I53033J-53033D01*
G01*
G37*
G36*
G01*
X167044796Y-105363478D02*
X167150862Y-105469544D01*
G75*
G02*
X167150862Y-105575610I-53033J-53033D01*
G01*
X166213946Y-106512526D01*
G75*
G02*
X166107880Y-106512526I-53033J53033D01*
G01*
X166001814Y-106406460D01*
G75*
G02*
X166001814Y-106300394I53033J53033D01*
G01*
X166938730Y-105363478D01*
G75*
G02*
X167044796Y-105363478I53033J-53033D01*
G01*
G37*
G36*
G01*
X166691243Y-105009925D02*
X166797309Y-105115991D01*
G75*
G02*
X166797309Y-105222057I-53033J-53033D01*
G01*
X165860393Y-106158973D01*
G75*
G02*
X165754327Y-106158973I-53033J53033D01*
G01*
X165648261Y-106052907D01*
G75*
G02*
X165648261Y-105946841I53033J53033D01*
G01*
X166585177Y-105009925D01*
G75*
G02*
X166691243Y-105009925I53033J-53033D01*
G01*
G37*
G36*
G01*
X166337689Y-104656371D02*
X166443755Y-104762437D01*
G75*
G02*
X166443755Y-104868503I-53033J-53033D01*
G01*
X165506839Y-105805419D01*
G75*
G02*
X165400773Y-105805419I-53033J53033D01*
G01*
X165294707Y-105699353D01*
G75*
G02*
X165294707Y-105593287I53033J53033D01*
G01*
X166231623Y-104656371D01*
G75*
G02*
X166337689Y-104656371I53033J-53033D01*
G01*
G37*
G36*
G01*
X165984136Y-104302818D02*
X166090202Y-104408884D01*
G75*
G02*
X166090202Y-104514950I-53033J-53033D01*
G01*
X165153286Y-105451866D01*
G75*
G02*
X165047220Y-105451866I-53033J53033D01*
G01*
X164941154Y-105345800D01*
G75*
G02*
X164941154Y-105239734I53033J53033D01*
G01*
X165878070Y-104302818D01*
G75*
G02*
X165984136Y-104302818I53033J-53033D01*
G01*
G37*
G36*
G01*
X165630582Y-103949264D02*
X165736648Y-104055330D01*
G75*
G02*
X165736648Y-104161396I-53033J-53033D01*
G01*
X164799732Y-105098312D01*
G75*
G02*
X164693666Y-105098312I-53033J53033D01*
G01*
X164587600Y-104992246D01*
G75*
G02*
X164587600Y-104886180I53033J53033D01*
G01*
X165524516Y-103949264D01*
G75*
G02*
X165630582Y-103949264I53033J-53033D01*
G01*
G37*
G36*
G01*
X164799732Y-101951688D02*
X165736648Y-102888604D01*
G75*
G02*
X165736648Y-102994670I-53033J-53033D01*
G01*
X165630582Y-103100736D01*
G75*
G02*
X165524516Y-103100736I-53033J53033D01*
G01*
X164587600Y-102163820D01*
G75*
G02*
X164587600Y-102057754I53033J53033D01*
G01*
X164693666Y-101951688D01*
G75*
G02*
X164799732Y-101951688I53033J-53033D01*
G01*
G37*
G36*
G01*
X165153286Y-101598134D02*
X166090202Y-102535050D01*
G75*
G02*
X166090202Y-102641116I-53033J-53033D01*
G01*
X165984136Y-102747182D01*
G75*
G02*
X165878070Y-102747182I-53033J53033D01*
G01*
X164941154Y-101810266D01*
G75*
G02*
X164941154Y-101704200I53033J53033D01*
G01*
X165047220Y-101598134D01*
G75*
G02*
X165153286Y-101598134I53033J-53033D01*
G01*
G37*
G36*
G01*
X165506839Y-101244581D02*
X166443755Y-102181497D01*
G75*
G02*
X166443755Y-102287563I-53033J-53033D01*
G01*
X166337689Y-102393629D01*
G75*
G02*
X166231623Y-102393629I-53033J53033D01*
G01*
X165294707Y-101456713D01*
G75*
G02*
X165294707Y-101350647I53033J53033D01*
G01*
X165400773Y-101244581D01*
G75*
G02*
X165506839Y-101244581I53033J-53033D01*
G01*
G37*
G36*
G01*
X165860393Y-100891027D02*
X166797309Y-101827943D01*
G75*
G02*
X166797309Y-101934009I-53033J-53033D01*
G01*
X166691243Y-102040075D01*
G75*
G02*
X166585177Y-102040075I-53033J53033D01*
G01*
X165648261Y-101103159D01*
G75*
G02*
X165648261Y-100997093I53033J53033D01*
G01*
X165754327Y-100891027D01*
G75*
G02*
X165860393Y-100891027I53033J-53033D01*
G01*
G37*
G36*
G01*
X166213946Y-100537474D02*
X167150862Y-101474390D01*
G75*
G02*
X167150862Y-101580456I-53033J-53033D01*
G01*
X167044796Y-101686522D01*
G75*
G02*
X166938730Y-101686522I-53033J53033D01*
G01*
X166001814Y-100749606D01*
G75*
G02*
X166001814Y-100643540I53033J53033D01*
G01*
X166107880Y-100537474D01*
G75*
G02*
X166213946Y-100537474I53033J-53033D01*
G01*
G37*
G36*
G01*
X166567499Y-100183921D02*
X167504415Y-101120837D01*
G75*
G02*
X167504415Y-101226903I-53033J-53033D01*
G01*
X167398349Y-101332969D01*
G75*
G02*
X167292283Y-101332969I-53033J53033D01*
G01*
X166355367Y-100396053D01*
G75*
G02*
X166355367Y-100289987I53033J53033D01*
G01*
X166461433Y-100183921D01*
G75*
G02*
X166567499Y-100183921I53033J-53033D01*
G01*
G37*
G36*
G01*
X166921053Y-99830367D02*
X167857969Y-100767283D01*
G75*
G02*
X167857969Y-100873349I-53033J-53033D01*
G01*
X167751903Y-100979415D01*
G75*
G02*
X167645837Y-100979415I-53033J53033D01*
G01*
X166708921Y-100042499D01*
G75*
G02*
X166708921Y-99936433I53033J53033D01*
G01*
X166814987Y-99830367D01*
G75*
G02*
X166921053Y-99830367I53033J-53033D01*
G01*
G37*
G36*
G01*
X167274606Y-99476814D02*
X168211522Y-100413730D01*
G75*
G02*
X168211522Y-100519796I-53033J-53033D01*
G01*
X168105456Y-100625862D01*
G75*
G02*
X167999390Y-100625862I-53033J53033D01*
G01*
X167062474Y-99688946D01*
G75*
G02*
X167062474Y-99582880I53033J53033D01*
G01*
X167168540Y-99476814D01*
G75*
G02*
X167274606Y-99476814I53033J-53033D01*
G01*
G37*
G36*
G01*
X167628159Y-99123261D02*
X168565075Y-100060177D01*
G75*
G02*
X168565075Y-100166243I-53033J-53033D01*
G01*
X168459009Y-100272309D01*
G75*
G02*
X168352943Y-100272309I-53033J53033D01*
G01*
X167416027Y-99335393D01*
G75*
G02*
X167416027Y-99229327I53033J53033D01*
G01*
X167522093Y-99123261D01*
G75*
G02*
X167628159Y-99123261I53033J-53033D01*
G01*
G37*
G36*
G01*
X167981713Y-98769707D02*
X168918629Y-99706623D01*
G75*
G02*
X168918629Y-99812689I-53033J-53033D01*
G01*
X168812563Y-99918755D01*
G75*
G02*
X168706497Y-99918755I-53033J53033D01*
G01*
X167769581Y-98981839D01*
G75*
G02*
X167769581Y-98875773I53033J53033D01*
G01*
X167875647Y-98769707D01*
G75*
G02*
X167981713Y-98769707I53033J-53033D01*
G01*
G37*
G36*
G01*
X168335266Y-98416154D02*
X169272182Y-99353070D01*
G75*
G02*
X169272182Y-99459136I-53033J-53033D01*
G01*
X169166116Y-99565202D01*
G75*
G02*
X169060050Y-99565202I-53033J53033D01*
G01*
X168123134Y-98628286D01*
G75*
G02*
X168123134Y-98522220I53033J53033D01*
G01*
X168229200Y-98416154D01*
G75*
G02*
X168335266Y-98416154I53033J-53033D01*
G01*
G37*
G36*
G01*
X168688820Y-98062600D02*
X169625736Y-98999516D01*
G75*
G02*
X169625736Y-99105582I-53033J-53033D01*
G01*
X169519670Y-99211648D01*
G75*
G02*
X169413604Y-99211648I-53033J53033D01*
G01*
X168476688Y-98274732D01*
G75*
G02*
X168476688Y-98168666I53033J53033D01*
G01*
X168582754Y-98062600D01*
G75*
G02*
X168688820Y-98062600I53033J-53033D01*
G01*
G37*
G36*
G01*
X171517246Y-98062600D02*
X171623312Y-98168666D01*
G75*
G02*
X171623312Y-98274732I-53033J-53033D01*
G01*
X170686396Y-99211648D01*
G75*
G02*
X170580330Y-99211648I-53033J53033D01*
G01*
X170474264Y-99105582D01*
G75*
G02*
X170474264Y-98999516I53033J53033D01*
G01*
X171411180Y-98062600D01*
G75*
G02*
X171517246Y-98062600I53033J-53033D01*
G01*
G37*
G36*
G01*
X171870800Y-98416154D02*
X171976866Y-98522220D01*
G75*
G02*
X171976866Y-98628286I-53033J-53033D01*
G01*
X171039950Y-99565202D01*
G75*
G02*
X170933884Y-99565202I-53033J53033D01*
G01*
X170827818Y-99459136D01*
G75*
G02*
X170827818Y-99353070I53033J53033D01*
G01*
X171764734Y-98416154D01*
G75*
G02*
X171870800Y-98416154I53033J-53033D01*
G01*
G37*
G36*
G01*
X172224353Y-98769707D02*
X172330419Y-98875773D01*
G75*
G02*
X172330419Y-98981839I-53033J-53033D01*
G01*
X171393503Y-99918755D01*
G75*
G02*
X171287437Y-99918755I-53033J53033D01*
G01*
X171181371Y-99812689D01*
G75*
G02*
X171181371Y-99706623I53033J53033D01*
G01*
X172118287Y-98769707D01*
G75*
G02*
X172224353Y-98769707I53033J-53033D01*
G01*
G37*
G36*
G01*
X172577907Y-99123261D02*
X172683973Y-99229327D01*
G75*
G02*
X172683973Y-99335393I-53033J-53033D01*
G01*
X171747057Y-100272309D01*
G75*
G02*
X171640991Y-100272309I-53033J53033D01*
G01*
X171534925Y-100166243D01*
G75*
G02*
X171534925Y-100060177I53033J53033D01*
G01*
X172471841Y-99123261D01*
G75*
G02*
X172577907Y-99123261I53033J-53033D01*
G01*
G37*
G36*
G01*
X172931460Y-99476814D02*
X173037526Y-99582880D01*
G75*
G02*
X173037526Y-99688946I-53033J-53033D01*
G01*
X172100610Y-100625862D01*
G75*
G02*
X171994544Y-100625862I-53033J53033D01*
G01*
X171888478Y-100519796D01*
G75*
G02*
X171888478Y-100413730I53033J53033D01*
G01*
X172825394Y-99476814D01*
G75*
G02*
X172931460Y-99476814I53033J-53033D01*
G01*
G37*
G36*
G01*
X173285013Y-99830367D02*
X173391079Y-99936433D01*
G75*
G02*
X173391079Y-100042499I-53033J-53033D01*
G01*
X172454163Y-100979415D01*
G75*
G02*
X172348097Y-100979415I-53033J53033D01*
G01*
X172242031Y-100873349D01*
G75*
G02*
X172242031Y-100767283I53033J53033D01*
G01*
X173178947Y-99830367D01*
G75*
G02*
X173285013Y-99830367I53033J-53033D01*
G01*
G37*
G36*
G01*
X173638567Y-100183921D02*
X173744633Y-100289987D01*
G75*
G02*
X173744633Y-100396053I-53033J-53033D01*
G01*
X172807717Y-101332969D01*
G75*
G02*
X172701651Y-101332969I-53033J53033D01*
G01*
X172595585Y-101226903D01*
G75*
G02*
X172595585Y-101120837I53033J53033D01*
G01*
X173532501Y-100183921D01*
G75*
G02*
X173638567Y-100183921I53033J-53033D01*
G01*
G37*
G36*
G01*
X173992120Y-100537474D02*
X174098186Y-100643540D01*
G75*
G02*
X174098186Y-100749606I-53033J-53033D01*
G01*
X173161270Y-101686522D01*
G75*
G02*
X173055204Y-101686522I-53033J53033D01*
G01*
X172949138Y-101580456D01*
G75*
G02*
X172949138Y-101474390I53033J53033D01*
G01*
X173886054Y-100537474D01*
G75*
G02*
X173992120Y-100537474I53033J-53033D01*
G01*
G37*
G36*
G01*
X174345673Y-100891027D02*
X174451739Y-100997093D01*
G75*
G02*
X174451739Y-101103159I-53033J-53033D01*
G01*
X173514823Y-102040075D01*
G75*
G02*
X173408757Y-102040075I-53033J53033D01*
G01*
X173302691Y-101934009D01*
G75*
G02*
X173302691Y-101827943I53033J53033D01*
G01*
X174239607Y-100891027D01*
G75*
G02*
X174345673Y-100891027I53033J-53033D01*
G01*
G37*
G36*
G01*
X174699227Y-101244581D02*
X174805293Y-101350647D01*
G75*
G02*
X174805293Y-101456713I-53033J-53033D01*
G01*
X173868377Y-102393629D01*
G75*
G02*
X173762311Y-102393629I-53033J53033D01*
G01*
X173656245Y-102287563D01*
G75*
G02*
X173656245Y-102181497I53033J53033D01*
G01*
X174593161Y-101244581D01*
G75*
G02*
X174699227Y-101244581I53033J-53033D01*
G01*
G37*
G36*
G01*
X175052780Y-101598134D02*
X175158846Y-101704200D01*
G75*
G02*
X175158846Y-101810266I-53033J-53033D01*
G01*
X174221930Y-102747182D01*
G75*
G02*
X174115864Y-102747182I-53033J53033D01*
G01*
X174009798Y-102641116D01*
G75*
G02*
X174009798Y-102535050I53033J53033D01*
G01*
X174946714Y-101598134D01*
G75*
G02*
X175052780Y-101598134I53033J-53033D01*
G01*
G37*
G36*
G01*
X175406334Y-101951688D02*
X175512400Y-102057754D01*
G75*
G02*
X175512400Y-102163820I-53033J-53033D01*
G01*
X174575484Y-103100736D01*
G75*
G02*
X174469418Y-103100736I-53033J53033D01*
G01*
X174363352Y-102994670D01*
G75*
G02*
X174363352Y-102888604I53033J53033D01*
G01*
X175300268Y-101951688D01*
G75*
G02*
X175406334Y-101951688I53033J-53033D01*
G01*
G37*
%TD*%
%TO.C,C2*%
G36*
G01*
X177390000Y-97322500D02*
X177390000Y-96977500D01*
G75*
G02*
X177537500Y-96830000I147500J0D01*
G01*
X177832500Y-96830000D01*
G75*
G02*
X177980000Y-96977500I0J-147500D01*
G01*
X177980000Y-97322500D01*
G75*
G02*
X177832500Y-97470000I-147500J0D01*
G01*
X177537500Y-97470000D01*
G75*
G02*
X177390000Y-97322500I0J147500D01*
G01*
G37*
G36*
G01*
X176420000Y-97322500D02*
X176420000Y-96977500D01*
G75*
G02*
X176567500Y-96830000I147500J0D01*
G01*
X176862500Y-96830000D01*
G75*
G02*
X177010000Y-96977500I0J-147500D01*
G01*
X177010000Y-97322500D01*
G75*
G02*
X176862500Y-97470000I-147500J0D01*
G01*
X176567500Y-97470000D01*
G75*
G02*
X176420000Y-97322500I0J147500D01*
G01*
G37*
%TD*%
%TO.C,C1*%
G36*
G01*
X178760000Y-96977500D02*
X178760000Y-97322500D01*
G75*
G02*
X178612500Y-97470000I-147500J0D01*
G01*
X178317500Y-97470000D01*
G75*
G02*
X178170000Y-97322500I0J147500D01*
G01*
X178170000Y-96977500D01*
G75*
G02*
X178317500Y-96830000I147500J0D01*
G01*
X178612500Y-96830000D01*
G75*
G02*
X178760000Y-96977500I0J-147500D01*
G01*
G37*
G36*
G01*
X179730000Y-96977500D02*
X179730000Y-97322500D01*
G75*
G02*
X179582500Y-97470000I-147500J0D01*
G01*
X179287500Y-97470000D01*
G75*
G02*
X179140000Y-97322500I0J147500D01*
G01*
X179140000Y-96977500D01*
G75*
G02*
X179287500Y-96830000I147500J0D01*
G01*
X179582500Y-96830000D01*
G75*
G02*
X179730000Y-96977500I0J-147500D01*
G01*
G37*
%TD*%
D10*
%TO.C,Y2*%
X189465000Y-109345000D03*
X187715000Y-109345000D03*
X187715000Y-107945000D03*
X189465000Y-107945000D03*
%TD*%
%TO.C,R7*%
G36*
G01*
X188300000Y-106377500D02*
X188300000Y-106722500D01*
G75*
G02*
X188152500Y-106870000I-147500J0D01*
G01*
X187857500Y-106870000D01*
G75*
G02*
X187710000Y-106722500I0J147500D01*
G01*
X187710000Y-106377500D01*
G75*
G02*
X187857500Y-106230000I147500J0D01*
G01*
X188152500Y-106230000D01*
G75*
G02*
X188300000Y-106377500I0J-147500D01*
G01*
G37*
G36*
G01*
X189270000Y-106377500D02*
X189270000Y-106722500D01*
G75*
G02*
X189122500Y-106870000I-147500J0D01*
G01*
X188827500Y-106870000D01*
G75*
G02*
X188680000Y-106722500I0J147500D01*
G01*
X188680000Y-106377500D01*
G75*
G02*
X188827500Y-106230000I147500J0D01*
G01*
X189122500Y-106230000D01*
G75*
G02*
X189270000Y-106377500I0J-147500D01*
G01*
G37*
%TD*%
%TO.C,C22*%
G36*
G01*
X186197500Y-108800000D02*
X186542500Y-108800000D01*
G75*
G02*
X186690000Y-108947500I0J-147500D01*
G01*
X186690000Y-109242500D01*
G75*
G02*
X186542500Y-109390000I-147500J0D01*
G01*
X186197500Y-109390000D01*
G75*
G02*
X186050000Y-109242500I0J147500D01*
G01*
X186050000Y-108947500D01*
G75*
G02*
X186197500Y-108800000I147500J0D01*
G01*
G37*
G36*
G01*
X186197500Y-107830000D02*
X186542500Y-107830000D01*
G75*
G02*
X186690000Y-107977500I0J-147500D01*
G01*
X186690000Y-108272500D01*
G75*
G02*
X186542500Y-108420000I-147500J0D01*
G01*
X186197500Y-108420000D01*
G75*
G02*
X186050000Y-108272500I0J147500D01*
G01*
X186050000Y-107977500D01*
G75*
G02*
X186197500Y-107830000I147500J0D01*
G01*
G37*
%TD*%
%TO.C,C20*%
G36*
G01*
X191012500Y-108425000D02*
X190667500Y-108425000D01*
G75*
G02*
X190520000Y-108277500I0J147500D01*
G01*
X190520000Y-107982500D01*
G75*
G02*
X190667500Y-107835000I147500J0D01*
G01*
X191012500Y-107835000D01*
G75*
G02*
X191160000Y-107982500I0J-147500D01*
G01*
X191160000Y-108277500D01*
G75*
G02*
X191012500Y-108425000I-147500J0D01*
G01*
G37*
G36*
G01*
X191012500Y-109395000D02*
X190667500Y-109395000D01*
G75*
G02*
X190520000Y-109247500I0J147500D01*
G01*
X190520000Y-108952500D01*
G75*
G02*
X190667500Y-108805000I147500J0D01*
G01*
X191012500Y-108805000D01*
G75*
G02*
X191160000Y-108952500I0J-147500D01*
G01*
X191160000Y-109247500D01*
G75*
G02*
X191012500Y-109395000I-147500J0D01*
G01*
G37*
%TD*%
%TO.C,R1*%
G36*
G01*
X158150000Y-110993750D02*
X158150000Y-111506250D01*
G75*
G02*
X157931250Y-111725000I-218750J0D01*
G01*
X157493750Y-111725000D01*
G75*
G02*
X157275000Y-111506250I0J218750D01*
G01*
X157275000Y-110993750D01*
G75*
G02*
X157493750Y-110775000I218750J0D01*
G01*
X157931250Y-110775000D01*
G75*
G02*
X158150000Y-110993750I0J-218750D01*
G01*
G37*
G36*
G01*
X159725000Y-110993750D02*
X159725000Y-111506250D01*
G75*
G02*
X159506250Y-111725000I-218750J0D01*
G01*
X159068750Y-111725000D01*
G75*
G02*
X158850000Y-111506250I0J218750D01*
G01*
X158850000Y-110993750D01*
G75*
G02*
X159068750Y-110775000I218750J0D01*
G01*
X159506250Y-110775000D01*
G75*
G02*
X159725000Y-110993750I0J-218750D01*
G01*
G37*
%TD*%
%TO.C,C13*%
G36*
G01*
X158562500Y-106506250D02*
X158562500Y-105993750D01*
G75*
G02*
X158781250Y-105775000I218750J0D01*
G01*
X159218750Y-105775000D01*
G75*
G02*
X159437500Y-105993750I0J-218750D01*
G01*
X159437500Y-106506250D01*
G75*
G02*
X159218750Y-106725000I-218750J0D01*
G01*
X158781250Y-106725000D01*
G75*
G02*
X158562500Y-106506250I0J218750D01*
G01*
G37*
G36*
G01*
X156987500Y-106506250D02*
X156987500Y-105993750D01*
G75*
G02*
X157206250Y-105775000I218750J0D01*
G01*
X157643750Y-105775000D01*
G75*
G02*
X157862500Y-105993750I0J-218750D01*
G01*
X157862500Y-106506250D01*
G75*
G02*
X157643750Y-106725000I-218750J0D01*
G01*
X157206250Y-106725000D01*
G75*
G02*
X156987500Y-106506250I0J218750D01*
G01*
G37*
%TD*%
%TO.C,C10*%
G36*
G01*
X163447500Y-101570000D02*
X162972500Y-101570000D01*
G75*
G02*
X162735000Y-101332500I0J237500D01*
G01*
X162735000Y-100757500D01*
G75*
G02*
X162972500Y-100520000I237500J0D01*
G01*
X163447500Y-100520000D01*
G75*
G02*
X163685000Y-100757500I0J-237500D01*
G01*
X163685000Y-101332500D01*
G75*
G02*
X163447500Y-101570000I-237500J0D01*
G01*
G37*
G36*
G01*
X163447500Y-103320000D02*
X162972500Y-103320000D01*
G75*
G02*
X162735000Y-103082500I0J237500D01*
G01*
X162735000Y-102507500D01*
G75*
G02*
X162972500Y-102270000I237500J0D01*
G01*
X163447500Y-102270000D01*
G75*
G02*
X163685000Y-102507500I0J-237500D01*
G01*
X163685000Y-103082500D01*
G75*
G02*
X163447500Y-103320000I-237500J0D01*
G01*
G37*
%TD*%
D11*
%TO.C,U2*%
X154520000Y-99710000D03*
X153570000Y-97710000D03*
X155470000Y-97710000D03*
%TD*%
%TO.C,R6*%
G36*
G01*
X190537500Y-94900000D02*
X190062500Y-94900000D01*
G75*
G02*
X189825000Y-94662500I0J237500D01*
G01*
X189825000Y-94087500D01*
G75*
G02*
X190062500Y-93850000I237500J0D01*
G01*
X190537500Y-93850000D01*
G75*
G02*
X190775000Y-94087500I0J-237500D01*
G01*
X190775000Y-94662500D01*
G75*
G02*
X190537500Y-94900000I-237500J0D01*
G01*
G37*
G36*
G01*
X190537500Y-96650000D02*
X190062500Y-96650000D01*
G75*
G02*
X189825000Y-96412500I0J237500D01*
G01*
X189825000Y-95837500D01*
G75*
G02*
X190062500Y-95600000I237500J0D01*
G01*
X190537500Y-95600000D01*
G75*
G02*
X190775000Y-95837500I0J-237500D01*
G01*
X190775000Y-96412500D01*
G75*
G02*
X190537500Y-96650000I-237500J0D01*
G01*
G37*
%TD*%
%TO.C,R2*%
G36*
G01*
X186862500Y-92075000D02*
X187337500Y-92075000D01*
G75*
G02*
X187575000Y-92312500I0J-237500D01*
G01*
X187575000Y-92887500D01*
G75*
G02*
X187337500Y-93125000I-237500J0D01*
G01*
X186862500Y-93125000D01*
G75*
G02*
X186625000Y-92887500I0J237500D01*
G01*
X186625000Y-92312500D01*
G75*
G02*
X186862500Y-92075000I237500J0D01*
G01*
G37*
G36*
G01*
X186862500Y-90325000D02*
X187337500Y-90325000D01*
G75*
G02*
X187575000Y-90562500I0J-237500D01*
G01*
X187575000Y-91137500D01*
G75*
G02*
X187337500Y-91375000I-237500J0D01*
G01*
X186862500Y-91375000D01*
G75*
G02*
X186625000Y-91137500I0J237500D01*
G01*
X186625000Y-90562500D01*
G75*
G02*
X186862500Y-90325000I237500J0D01*
G01*
G37*
%TD*%
%TO.C,C16*%
G36*
G01*
X189330000Y-97842500D02*
X189330000Y-97367500D01*
G75*
G02*
X189567500Y-97130000I237500J0D01*
G01*
X190142500Y-97130000D01*
G75*
G02*
X190380000Y-97367500I0J-237500D01*
G01*
X190380000Y-97842500D01*
G75*
G02*
X190142500Y-98080000I-237500J0D01*
G01*
X189567500Y-98080000D01*
G75*
G02*
X189330000Y-97842500I0J237500D01*
G01*
G37*
G36*
G01*
X187580000Y-97842500D02*
X187580000Y-97367500D01*
G75*
G02*
X187817500Y-97130000I237500J0D01*
G01*
X188392500Y-97130000D01*
G75*
G02*
X188630000Y-97367500I0J-237500D01*
G01*
X188630000Y-97842500D01*
G75*
G02*
X188392500Y-98080000I-237500J0D01*
G01*
X187817500Y-98080000D01*
G75*
G02*
X187580000Y-97842500I0J237500D01*
G01*
G37*
%TD*%
%TO.C,C14*%
G36*
G01*
X185330000Y-97367500D02*
X185330000Y-97842500D01*
G75*
G02*
X185092500Y-98080000I-237500J0D01*
G01*
X184517500Y-98080000D01*
G75*
G02*
X184280000Y-97842500I0J237500D01*
G01*
X184280000Y-97367500D01*
G75*
G02*
X184517500Y-97130000I237500J0D01*
G01*
X185092500Y-97130000D01*
G75*
G02*
X185330000Y-97367500I0J-237500D01*
G01*
G37*
G36*
G01*
X187080000Y-97367500D02*
X187080000Y-97842500D01*
G75*
G02*
X186842500Y-98080000I-237500J0D01*
G01*
X186267500Y-98080000D01*
G75*
G02*
X186030000Y-97842500I0J237500D01*
G01*
X186030000Y-97367500D01*
G75*
G02*
X186267500Y-97130000I237500J0D01*
G01*
X186842500Y-97130000D01*
G75*
G02*
X187080000Y-97367500I0J-237500D01*
G01*
G37*
%TD*%
%TO.C,C11*%
G36*
G01*
X174235000Y-96187500D02*
X174235000Y-95712500D01*
G75*
G02*
X174472500Y-95475000I237500J0D01*
G01*
X175047500Y-95475000D01*
G75*
G02*
X175285000Y-95712500I0J-237500D01*
G01*
X175285000Y-96187500D01*
G75*
G02*
X175047500Y-96425000I-237500J0D01*
G01*
X174472500Y-96425000D01*
G75*
G02*
X174235000Y-96187500I0J237500D01*
G01*
G37*
G36*
G01*
X172485000Y-96187500D02*
X172485000Y-95712500D01*
G75*
G02*
X172722500Y-95475000I237500J0D01*
G01*
X173297500Y-95475000D01*
G75*
G02*
X173535000Y-95712500I0J-237500D01*
G01*
X173535000Y-96187500D01*
G75*
G02*
X173297500Y-96425000I-237500J0D01*
G01*
X172722500Y-96425000D01*
G75*
G02*
X172485000Y-96187500I0J237500D01*
G01*
G37*
%TD*%
%TO.C,C8*%
G36*
G01*
X174235000Y-97687500D02*
X174235000Y-97212500D01*
G75*
G02*
X174472500Y-96975000I237500J0D01*
G01*
X175047500Y-96975000D01*
G75*
G02*
X175285000Y-97212500I0J-237500D01*
G01*
X175285000Y-97687500D01*
G75*
G02*
X175047500Y-97925000I-237500J0D01*
G01*
X174472500Y-97925000D01*
G75*
G02*
X174235000Y-97687500I0J237500D01*
G01*
G37*
G36*
G01*
X172485000Y-97687500D02*
X172485000Y-97212500D01*
G75*
G02*
X172722500Y-96975000I237500J0D01*
G01*
X173297500Y-96975000D01*
G75*
G02*
X173535000Y-97212500I0J-237500D01*
G01*
X173535000Y-97687500D01*
G75*
G02*
X173297500Y-97925000I-237500J0D01*
G01*
X172722500Y-97925000D01*
G75*
G02*
X172485000Y-97687500I0J237500D01*
G01*
G37*
%TD*%
%TO.C,C7*%
G36*
G01*
X176912500Y-104725000D02*
X177387500Y-104725000D01*
G75*
G02*
X177625000Y-104962500I0J-237500D01*
G01*
X177625000Y-105537500D01*
G75*
G02*
X177387500Y-105775000I-237500J0D01*
G01*
X176912500Y-105775000D01*
G75*
G02*
X176675000Y-105537500I0J237500D01*
G01*
X176675000Y-104962500D01*
G75*
G02*
X176912500Y-104725000I237500J0D01*
G01*
G37*
G36*
G01*
X176912500Y-102975000D02*
X177387500Y-102975000D01*
G75*
G02*
X177625000Y-103212500I0J-237500D01*
G01*
X177625000Y-103787500D01*
G75*
G02*
X177387500Y-104025000I-237500J0D01*
G01*
X176912500Y-104025000D01*
G75*
G02*
X176675000Y-103787500I0J237500D01*
G01*
X176675000Y-103212500D01*
G75*
G02*
X176912500Y-102975000I237500J0D01*
G01*
G37*
%TD*%
%TO.C,C6*%
G36*
G01*
X185340000Y-106067500D02*
X185340000Y-105592500D01*
G75*
G02*
X185577500Y-105355000I237500J0D01*
G01*
X186152500Y-105355000D01*
G75*
G02*
X186390000Y-105592500I0J-237500D01*
G01*
X186390000Y-106067500D01*
G75*
G02*
X186152500Y-106305000I-237500J0D01*
G01*
X185577500Y-106305000D01*
G75*
G02*
X185340000Y-106067500I0J237500D01*
G01*
G37*
G36*
G01*
X183590000Y-106067500D02*
X183590000Y-105592500D01*
G75*
G02*
X183827500Y-105355000I237500J0D01*
G01*
X184402500Y-105355000D01*
G75*
G02*
X184640000Y-105592500I0J-237500D01*
G01*
X184640000Y-106067500D01*
G75*
G02*
X184402500Y-106305000I-237500J0D01*
G01*
X183827500Y-106305000D01*
G75*
G02*
X183590000Y-106067500I0J237500D01*
G01*
G37*
%TD*%
%TO.C,C5*%
G36*
G01*
X151940000Y-101062500D02*
X151940000Y-101537500D01*
G75*
G02*
X151702500Y-101775000I-237500J0D01*
G01*
X151127500Y-101775000D01*
G75*
G02*
X150890000Y-101537500I0J237500D01*
G01*
X150890000Y-101062500D01*
G75*
G02*
X151127500Y-100825000I237500J0D01*
G01*
X151702500Y-100825000D01*
G75*
G02*
X151940000Y-101062500I0J-237500D01*
G01*
G37*
G36*
G01*
X153690000Y-101062500D02*
X153690000Y-101537500D01*
G75*
G02*
X153452500Y-101775000I-237500J0D01*
G01*
X152877500Y-101775000D01*
G75*
G02*
X152640000Y-101537500I0J237500D01*
G01*
X152640000Y-101062500D01*
G75*
G02*
X152877500Y-100825000I237500J0D01*
G01*
X153452500Y-100825000D01*
G75*
G02*
X153690000Y-101062500I0J-237500D01*
G01*
G37*
%TD*%
%TO.C,C3*%
G36*
G01*
X187337500Y-88275000D02*
X186862500Y-88275000D01*
G75*
G02*
X186625000Y-88037500I0J237500D01*
G01*
X186625000Y-87462500D01*
G75*
G02*
X186862500Y-87225000I237500J0D01*
G01*
X187337500Y-87225000D01*
G75*
G02*
X187575000Y-87462500I0J-237500D01*
G01*
X187575000Y-88037500D01*
G75*
G02*
X187337500Y-88275000I-237500J0D01*
G01*
G37*
G36*
G01*
X187337500Y-90025000D02*
X186862500Y-90025000D01*
G75*
G02*
X186625000Y-89787500I0J237500D01*
G01*
X186625000Y-89212500D01*
G75*
G02*
X186862500Y-88975000I237500J0D01*
G01*
X187337500Y-88975000D01*
G75*
G02*
X187575000Y-89212500I0J-237500D01*
G01*
X187575000Y-89787500D01*
G75*
G02*
X187337500Y-90025000I-237500J0D01*
G01*
G37*
%TD*%
%TO.C,C9*%
G36*
G01*
X151015000Y-98945000D02*
X152265000Y-98945000D01*
G75*
G02*
X152515000Y-99195000I0J-250000D01*
G01*
X152515000Y-99945000D01*
G75*
G02*
X152265000Y-100195000I-250000J0D01*
G01*
X151015000Y-100195000D01*
G75*
G02*
X150765000Y-99945000I0J250000D01*
G01*
X150765000Y-99195000D01*
G75*
G02*
X151015000Y-98945000I250000J0D01*
G01*
G37*
G36*
G01*
X151015000Y-96145000D02*
X152265000Y-96145000D01*
G75*
G02*
X152515000Y-96395000I0J-250000D01*
G01*
X152515000Y-97145000D01*
G75*
G02*
X152265000Y-97395000I-250000J0D01*
G01*
X151015000Y-97395000D01*
G75*
G02*
X150765000Y-97145000I0J250000D01*
G01*
X150765000Y-96395000D01*
G75*
G02*
X151015000Y-96145000I250000J0D01*
G01*
G37*
%TD*%
%TO.C,C4*%
G36*
G01*
X151785000Y-102505000D02*
X151785000Y-103755000D01*
G75*
G02*
X151535000Y-104005000I-250000J0D01*
G01*
X150785000Y-104005000D01*
G75*
G02*
X150535000Y-103755000I0J250000D01*
G01*
X150535000Y-102505000D01*
G75*
G02*
X150785000Y-102255000I250000J0D01*
G01*
X151535000Y-102255000D01*
G75*
G02*
X151785000Y-102505000I0J-250000D01*
G01*
G37*
G36*
G01*
X154585000Y-102505000D02*
X154585000Y-103755000D01*
G75*
G02*
X154335000Y-104005000I-250000J0D01*
G01*
X153585000Y-104005000D01*
G75*
G02*
X153335000Y-103755000I0J250000D01*
G01*
X153335000Y-102505000D01*
G75*
G02*
X153585000Y-102255000I250000J0D01*
G01*
X154335000Y-102255000D01*
G75*
G02*
X154585000Y-102505000I0J-250000D01*
G01*
G37*
%TD*%
D12*
%TO.C,J1*%
X151550000Y-110520000D03*
D13*
X151550000Y-107820000D03*
D14*
X151550000Y-112345000D03*
X151550000Y-105595000D03*
D15*
X154125000Y-111457500D03*
X154125000Y-106482500D03*
D16*
X154210000Y-110270000D03*
X154210000Y-109620000D03*
X154210000Y-108970000D03*
X154210000Y-108320000D03*
X154210000Y-107670000D03*
%TD*%
D17*
%TO.C,NRST*%
X185325000Y-92475000D03*
X185325000Y-87975000D03*
X177375000Y-87975000D03*
X177375000Y-92475000D03*
%TD*%
D10*
%TO.C,Y1*%
X178990000Y-99750000D03*
X177240000Y-99750000D03*
X177240000Y-98350000D03*
X178990000Y-98350000D03*
%TD*%
D18*
%TO.C,U1*%
X157150000Y-108750000D03*
X157150000Y-109700000D03*
X157150000Y-107800000D03*
X159350000Y-107800000D03*
X159350000Y-108750000D03*
X159350000Y-109700000D03*
%TD*%
%TO.C,D1*%
G36*
G01*
X156520000Y-104113750D02*
X156520000Y-104626250D01*
G75*
G02*
X156301250Y-104845000I-218750J0D01*
G01*
X155863750Y-104845000D01*
G75*
G02*
X155645000Y-104626250I0J218750D01*
G01*
X155645000Y-104113750D01*
G75*
G02*
X155863750Y-103895000I218750J0D01*
G01*
X156301250Y-103895000D01*
G75*
G02*
X156520000Y-104113750I0J-218750D01*
G01*
G37*
G36*
G01*
X158095000Y-104113750D02*
X158095000Y-104626250D01*
G75*
G02*
X157876250Y-104845000I-218750J0D01*
G01*
X157438750Y-104845000D01*
G75*
G02*
X157220000Y-104626250I0J218750D01*
G01*
X157220000Y-104113750D01*
G75*
G02*
X157438750Y-103895000I218750J0D01*
G01*
X157876250Y-103895000D01*
G75*
G02*
X158095000Y-104113750I0J-218750D01*
G01*
G37*
%TD*%
%TO.C,C13*%
G36*
G01*
X187855000Y-96230000D02*
X187855000Y-94380000D01*
G75*
G02*
X188105000Y-94130000I250000J0D01*
G01*
X189105000Y-94130000D01*
G75*
G02*
X189355000Y-94380000I0J-250000D01*
G01*
X189355000Y-96230000D01*
G75*
G02*
X189105000Y-96480000I-250000J0D01*
G01*
X188105000Y-96480000D01*
G75*
G02*
X187855000Y-96230000I0J250000D01*
G01*
G37*
G36*
G01*
X184605000Y-96230000D02*
X184605000Y-94380000D01*
G75*
G02*
X184855000Y-94130000I250000J0D01*
G01*
X185855000Y-94130000D01*
G75*
G02*
X186105000Y-94380000I0J-250000D01*
G01*
X186105000Y-96230000D01*
G75*
G02*
X185855000Y-96480000I-250000J0D01*
G01*
X184855000Y-96480000D01*
G75*
G02*
X184605000Y-96230000I0J250000D01*
G01*
G37*
%TD*%
M02*
