%TF.GenerationSoftware,KiCad,Pcbnew,(5.1.6)-1*%
%TF.CreationDate,2020-09-08T20:54:55+07:00*%
%TF.ProjectId,RX_nrf24,52585f6e-7266-4323-942e-6b696361645f,rev?*%
%TF.SameCoordinates,Original*%
%TF.FileFunction,Legend,Top*%
%TF.FilePolarity,Positive*%
%FSLAX46Y46*%
G04 Gerber Fmt 4.6, Leading zero omitted, Abs format (unit mm)*
G04 Created by KiCad (PCBNEW (5.1.6)-1) date 2020-09-08 20:54:55*
%MOMM*%
%LPD*%
G01*
G04 APERTURE LIST*
%ADD10C,0.120000*%
%ADD11C,0.150000*%
%ADD12C,0.200000*%
G04 APERTURE END LIST*
D10*
%TO.C,C12*%
X191165000Y-94300000D02*
X191165000Y-98685000D01*
X191165000Y-98685000D02*
X194185000Y-98685000D01*
X194185000Y-98685000D02*
X194185000Y-94300000D01*
%TO.C,nRF*%
X182574000Y-111090000D02*
X182574000Y-111090000D01*
X171906000Y-111090000D02*
X182574000Y-111090000D01*
X183150000Y-110760000D02*
X183150000Y-110760000D01*
X167700000Y-110760000D02*
X183150000Y-110760000D01*
X167700000Y-139960000D02*
X167700000Y-110760000D01*
X183150000Y-139960000D02*
X167700000Y-139960000D01*
X183150000Y-110760000D02*
X183150000Y-139960000D01*
X179780000Y-111344000D02*
X179780000Y-111344000D01*
X179780000Y-113630000D02*
X179780000Y-111344000D01*
X182066000Y-113630000D02*
X179780000Y-113630000D01*
X171906000Y-111090000D02*
X171906000Y-111090000D01*
X171906000Y-116424000D02*
X171906000Y-111090000D01*
X182574000Y-116424000D02*
X171906000Y-116424000D01*
X182574000Y-111090000D02*
X182574000Y-116424000D01*
%TO.C,R3*%
X156748733Y-103350000D02*
X157091267Y-103350000D01*
X156748733Y-102330000D02*
X157091267Y-102330000D01*
%TO.C,C15*%
X168271267Y-111110000D02*
X167928733Y-111110000D01*
X168271267Y-110090000D02*
X167928733Y-110090000D01*
%TO.C,nRF24*%
X185795000Y-99295000D02*
X185070000Y-99295000D01*
X189290000Y-103515000D02*
X189290000Y-102790000D01*
X188565000Y-103515000D02*
X189290000Y-103515000D01*
X185070000Y-103515000D02*
X185070000Y-102790000D01*
X185795000Y-103515000D02*
X185070000Y-103515000D01*
X189290000Y-99295000D02*
X189290000Y-100020000D01*
X188565000Y-99295000D02*
X189290000Y-99295000D01*
%TO.C,8.2nH1*%
X191910000Y-101924721D02*
X191910000Y-102250279D01*
X190890000Y-101924721D02*
X190890000Y-102250279D01*
%TO.C,3.9nH1*%
X193187221Y-100810000D02*
X193512779Y-100810000D01*
X193187221Y-101830000D02*
X193512779Y-101830000D01*
%TO.C,2.7nH1*%
X193360000Y-103587221D02*
X193360000Y-103912779D01*
X192340000Y-103587221D02*
X192340000Y-103912779D01*
%TO.C,1pF3*%
X194952221Y-105480000D02*
X195277779Y-105480000D01*
X194952221Y-106500000D02*
X195277779Y-106500000D01*
%TO.C,1pF2*%
X198650000Y-101907221D02*
X198650000Y-102232779D01*
X197630000Y-101907221D02*
X197630000Y-102232779D01*
%TO.C,1pF1*%
X194952221Y-103990000D02*
X195277779Y-103990000D01*
X194952221Y-105010000D02*
X195277779Y-105010000D01*
%TO.C,1.5pF1*%
X196007221Y-100800000D02*
X196332779Y-100800000D01*
X196007221Y-101820000D02*
X196332779Y-101820000D01*
%TO.C,STM32*%
X174837113Y-103206802D02*
X175749281Y-102294634D01*
X175155311Y-103525000D02*
X174837113Y-103206802D01*
X174837113Y-103843198D02*
X175155311Y-103525000D01*
X170050000Y-108630311D02*
X169731802Y-108312113D01*
X170368198Y-108312113D02*
X170050000Y-108630311D01*
X170050000Y-98419689D02*
X170368198Y-98737887D01*
X169731802Y-98737887D02*
X170050000Y-98419689D01*
X164944689Y-103525000D02*
X165262887Y-103843198D01*
X165262887Y-103206802D02*
X164944689Y-103525000D01*
%TO.C,Y2*%
X190240000Y-107245000D02*
X186940000Y-107245000D01*
X190240000Y-110045000D02*
X190240000Y-107245000D01*
%TO.C,R1*%
X158662779Y-110740000D02*
X158337221Y-110740000D01*
X158662779Y-111760000D02*
X158337221Y-111760000D01*
%TO.C,C13*%
X158049721Y-106760000D02*
X158375279Y-106760000D01*
X158049721Y-105740000D02*
X158375279Y-105740000D01*
%TO.C,J4*%
X175700000Y-91670000D02*
X175700000Y-93000000D01*
X174370000Y-91670000D02*
X175700000Y-91670000D01*
X173100000Y-91670000D02*
X173100000Y-94330000D01*
X173100000Y-94330000D02*
X150180000Y-94330000D01*
X173100000Y-91670000D02*
X150180000Y-91670000D01*
X150180000Y-91670000D02*
X150180000Y-94330000D01*
%TO.C,C10*%
X162700000Y-102091267D02*
X162700000Y-101748733D01*
X163720000Y-102091267D02*
X163720000Y-101748733D01*
%TO.C,U2*%
X152940000Y-99470000D02*
X153870000Y-99470000D01*
X156100000Y-99470000D02*
X155170000Y-99470000D01*
X156100000Y-99470000D02*
X156100000Y-97310000D01*
X152940000Y-99470000D02*
X152940000Y-98010000D01*
%TO.C,J3*%
X207420000Y-97090000D02*
X207420000Y-105390000D01*
X199120000Y-97090000D02*
X199120000Y-105390000D01*
X207420000Y-105390000D02*
X199120000Y-105390000D01*
X207420000Y-97090000D02*
X199120000Y-97090000D01*
%TO.C,G*%
X175690000Y-89330000D02*
X175690000Y-86670000D01*
X152770000Y-89330000D02*
X175690000Y-89330000D01*
X152770000Y-86670000D02*
X175690000Y-86670000D01*
X152770000Y-89330000D02*
X152770000Y-86670000D01*
X151500000Y-89330000D02*
X150170000Y-89330000D01*
X150170000Y-89330000D02*
X150170000Y-88000000D01*
%TO.C,3.3v*%
X175690000Y-91830000D02*
X175690000Y-89170000D01*
X152770000Y-91830000D02*
X175690000Y-91830000D01*
X152770000Y-89170000D02*
X175690000Y-89170000D01*
X152770000Y-91830000D02*
X152770000Y-89170000D01*
X151500000Y-91830000D02*
X150170000Y-91830000D01*
X150170000Y-91830000D02*
X150170000Y-90500000D01*
%TO.C,R6*%
X189790000Y-95421267D02*
X189790000Y-95078733D01*
X190810000Y-95421267D02*
X190810000Y-95078733D01*
%TO.C,R2*%
X187610000Y-91553733D02*
X187610000Y-91896267D01*
X186590000Y-91553733D02*
X186590000Y-91896267D01*
%TO.C,C16*%
X188808733Y-97095000D02*
X189151267Y-97095000D01*
X188808733Y-98115000D02*
X189151267Y-98115000D01*
%TO.C,C14*%
X185851267Y-98115000D02*
X185508733Y-98115000D01*
X185851267Y-97095000D02*
X185508733Y-97095000D01*
%TO.C,C11*%
X173713733Y-95440000D02*
X174056267Y-95440000D01*
X173713733Y-96460000D02*
X174056267Y-96460000D01*
%TO.C,C8*%
X173713733Y-96940000D02*
X174056267Y-96940000D01*
X173713733Y-97960000D02*
X174056267Y-97960000D01*
%TO.C,C7*%
X177660000Y-104203733D02*
X177660000Y-104546267D01*
X176640000Y-104203733D02*
X176640000Y-104546267D01*
%TO.C,C6*%
X184818733Y-105320000D02*
X185161267Y-105320000D01*
X184818733Y-106340000D02*
X185161267Y-106340000D01*
%TO.C,C5*%
X152461267Y-101810000D02*
X152118733Y-101810000D01*
X152461267Y-100790000D02*
X152118733Y-100790000D01*
%TO.C,C3*%
X186590000Y-88796267D02*
X186590000Y-88453733D01*
X187610000Y-88796267D02*
X187610000Y-88453733D01*
%TO.C,C9*%
X152550000Y-97567936D02*
X152550000Y-98772064D01*
X150730000Y-97567936D02*
X150730000Y-98772064D01*
%TO.C,C4*%
X153162064Y-104040000D02*
X151957936Y-104040000D01*
X153162064Y-102220000D02*
X151957936Y-102220000D01*
%TO.C,J1*%
X154460000Y-112780000D02*
X154460000Y-112400000D01*
X150410000Y-112780000D02*
X150150000Y-112780000D01*
X154460000Y-112780000D02*
X152690000Y-112780000D01*
X154460000Y-105160000D02*
X154460000Y-105540000D01*
X152690000Y-105160000D02*
X154460000Y-105160000D01*
X150150000Y-105160000D02*
X150410000Y-105160000D01*
%TO.C,NRST*%
X178120000Y-93455000D02*
X184580000Y-93455000D01*
X178120000Y-88925000D02*
X178120000Y-91525000D01*
X178120000Y-86995000D02*
X184580000Y-86995000D01*
X184580000Y-88925000D02*
X184580000Y-91525000D01*
X178120000Y-87025000D02*
X178120000Y-86995000D01*
X178120000Y-93455000D02*
X178120000Y-93425000D01*
X184580000Y-93455000D02*
X184580000Y-93425000D01*
X184580000Y-86995000D02*
X184580000Y-87025000D01*
%TO.C,Y1*%
X179765000Y-97650000D02*
X176465000Y-97650000D01*
X179765000Y-100450000D02*
X179765000Y-97650000D01*
%TO.C,U1*%
X157350000Y-110360000D02*
X159800000Y-110360000D01*
X159150000Y-107140000D02*
X157350000Y-107140000D01*
%TO.C,+3.3V CLK DIO GND*%
X149150000Y-116370000D02*
X149150000Y-115040000D01*
X150480000Y-116370000D02*
X149150000Y-116370000D01*
X151750000Y-116370000D02*
X151750000Y-113710000D01*
X151750000Y-113710000D02*
X159430000Y-113710000D01*
X151750000Y-116370000D02*
X159430000Y-116370000D01*
X159430000Y-116370000D02*
X159430000Y-113710000D01*
%TO.C,BOOT*%
X168660000Y-113720000D02*
X168660000Y-115050000D01*
X167330000Y-113720000D02*
X168660000Y-113720000D01*
X166060000Y-113720000D02*
X166060000Y-116380000D01*
X166060000Y-116380000D02*
X160920000Y-116380000D01*
X166060000Y-113720000D02*
X160920000Y-113720000D01*
X160920000Y-113720000D02*
X160920000Y-116380000D01*
%TO.C,D1*%
X158355000Y-103635000D02*
X156070000Y-103635000D01*
X158355000Y-105105000D02*
X158355000Y-103635000D01*
X156070000Y-105105000D02*
X158355000Y-105105000D01*
%TO.C,C13*%
X184345000Y-96815000D02*
X188730000Y-96815000D01*
X184345000Y-93795000D02*
X184345000Y-96815000D01*
X188730000Y-93795000D02*
X184345000Y-93795000D01*
%TO.C,nRF*%
D11*
X183835714Y-113502857D02*
X184502380Y-113502857D01*
X183930952Y-113502857D02*
X183883333Y-113455238D01*
X183835714Y-113360000D01*
X183835714Y-113217142D01*
X183883333Y-113121904D01*
X183978571Y-113074285D01*
X184502380Y-113074285D01*
X184502380Y-112026666D02*
X184026190Y-112360000D01*
X184502380Y-112598095D02*
X183502380Y-112598095D01*
X183502380Y-112217142D01*
X183550000Y-112121904D01*
X183597619Y-112074285D01*
X183692857Y-112026666D01*
X183835714Y-112026666D01*
X183930952Y-112074285D01*
X183978571Y-112121904D01*
X184026190Y-112217142D01*
X184026190Y-112598095D01*
X183978571Y-111264761D02*
X183978571Y-111598095D01*
X184502380Y-111598095D02*
X183502380Y-111598095D01*
X183502380Y-111121904D01*
%TO.C,nRF24*%
X183215714Y-103775238D02*
X183882380Y-103775238D01*
X183310952Y-103775238D02*
X183263333Y-103727619D01*
X183215714Y-103632380D01*
X183215714Y-103489523D01*
X183263333Y-103394285D01*
X183358571Y-103346666D01*
X183882380Y-103346666D01*
X183882380Y-102299047D02*
X183406190Y-102632380D01*
X183882380Y-102870476D02*
X182882380Y-102870476D01*
X182882380Y-102489523D01*
X182930000Y-102394285D01*
X182977619Y-102346666D01*
X183072857Y-102299047D01*
X183215714Y-102299047D01*
X183310952Y-102346666D01*
X183358571Y-102394285D01*
X183406190Y-102489523D01*
X183406190Y-102870476D01*
X183358571Y-101537142D02*
X183358571Y-101870476D01*
X183882380Y-101870476D02*
X182882380Y-101870476D01*
X182882380Y-101394285D01*
X182977619Y-101060952D02*
X182930000Y-101013333D01*
X182882380Y-100918095D01*
X182882380Y-100680000D01*
X182930000Y-100584761D01*
X182977619Y-100537142D01*
X183072857Y-100489523D01*
X183168095Y-100489523D01*
X183310952Y-100537142D01*
X183882380Y-101108571D01*
X183882380Y-100489523D01*
X183215714Y-99632380D02*
X183882380Y-99632380D01*
X182834761Y-99870476D02*
X183549047Y-100108571D01*
X183549047Y-99489523D01*
%TO.C,STM32*%
X172923884Y-109496685D02*
X173058571Y-109429341D01*
X173226930Y-109260983D01*
X173260601Y-109159967D01*
X173260601Y-109092624D01*
X173226930Y-108991609D01*
X173159586Y-108924265D01*
X173058571Y-108890593D01*
X172991227Y-108890593D01*
X172890212Y-108924265D01*
X172721853Y-109025280D01*
X172620838Y-109058952D01*
X172553495Y-109058952D01*
X172452479Y-109025280D01*
X172385136Y-108957937D01*
X172351464Y-108856922D01*
X172351464Y-108789578D01*
X172385136Y-108688563D01*
X172553495Y-108520204D01*
X172688182Y-108452861D01*
X172856540Y-108217158D02*
X173260601Y-107813097D01*
X173765678Y-108722235D02*
X173058571Y-108015128D01*
X174203410Y-108284502D02*
X173496304Y-107577395D01*
X174237082Y-107846769D01*
X173967708Y-107105991D01*
X174674815Y-107813097D01*
X174237082Y-106836617D02*
X174674815Y-106398884D01*
X174708487Y-106903960D01*
X174809502Y-106802945D01*
X174910517Y-106769273D01*
X174977861Y-106769273D01*
X175078876Y-106802945D01*
X175247235Y-106971304D01*
X175280906Y-107072319D01*
X175280906Y-107139662D01*
X175247235Y-107240678D01*
X175045204Y-107442708D01*
X174944189Y-107476380D01*
X174876845Y-107476380D01*
X175011532Y-106196853D02*
X175011532Y-106129510D01*
X175045204Y-106028495D01*
X175213563Y-105860136D01*
X175314578Y-105826464D01*
X175381922Y-105826464D01*
X175482937Y-105860136D01*
X175550280Y-105927479D01*
X175617624Y-106062166D01*
X175617624Y-106870288D01*
X176055357Y-106432556D01*
%TO.C,C1*%
X178783333Y-98677142D02*
X178735714Y-98724761D01*
X178592857Y-98772380D01*
X178497619Y-98772380D01*
X178354761Y-98724761D01*
X178259523Y-98629523D01*
X178211904Y-98534285D01*
X178164285Y-98343809D01*
X178164285Y-98200952D01*
X178211904Y-98010476D01*
X178259523Y-97915238D01*
X178354761Y-97820000D01*
X178497619Y-97772380D01*
X178592857Y-97772380D01*
X178735714Y-97820000D01*
X178783333Y-97867619D01*
X179735714Y-98772380D02*
X179164285Y-98772380D01*
X179450000Y-98772380D02*
X179450000Y-97772380D01*
X179354761Y-97915238D01*
X179259523Y-98010476D01*
X179164285Y-98058095D01*
%TO.C,J4*%
X176152380Y-93333333D02*
X176866666Y-93333333D01*
X177009523Y-93380952D01*
X177104761Y-93476190D01*
X177152380Y-93619047D01*
X177152380Y-93714285D01*
X176485714Y-92428571D02*
X177152380Y-92428571D01*
X176104761Y-92666666D02*
X176819047Y-92904761D01*
X176819047Y-92285714D01*
%TO.C,G*%
D12*
X149160000Y-87508095D02*
X149112380Y-87603333D01*
X149112380Y-87746190D01*
X149160000Y-87889047D01*
X149255238Y-87984285D01*
X149350476Y-88031904D01*
X149540952Y-88079523D01*
X149683809Y-88079523D01*
X149874285Y-88031904D01*
X149969523Y-87984285D01*
X150064761Y-87889047D01*
X150112380Y-87746190D01*
X150112380Y-87650952D01*
X150064761Y-87508095D01*
X150017142Y-87460476D01*
X149683809Y-87460476D01*
X149683809Y-87650952D01*
%TO.C,3.3v*%
X176572380Y-91472857D02*
X176572380Y-90977619D01*
X176953333Y-91244285D01*
X176953333Y-91130000D01*
X177000952Y-91053809D01*
X177048571Y-91015714D01*
X177143809Y-90977619D01*
X177381904Y-90977619D01*
X177477142Y-91015714D01*
X177524761Y-91053809D01*
X177572380Y-91130000D01*
X177572380Y-91358571D01*
X177524761Y-91434761D01*
X177477142Y-91472857D01*
X177477142Y-90634761D02*
X177524761Y-90596666D01*
X177572380Y-90634761D01*
X177524761Y-90672857D01*
X177477142Y-90634761D01*
X177572380Y-90634761D01*
X176572380Y-90330000D02*
X176572380Y-89834761D01*
X176953333Y-90101428D01*
X176953333Y-89987142D01*
X177000952Y-89910952D01*
X177048571Y-89872857D01*
X177143809Y-89834761D01*
X177381904Y-89834761D01*
X177477142Y-89872857D01*
X177524761Y-89910952D01*
X177572380Y-89987142D01*
X177572380Y-90215714D01*
X177524761Y-90291904D01*
X177477142Y-90330000D01*
X176905714Y-89568095D02*
X177572380Y-89377619D01*
X176905714Y-89187142D01*
%TO.C,R6*%
D11*
X189322380Y-95416666D02*
X188846190Y-95750000D01*
X189322380Y-95988095D02*
X188322380Y-95988095D01*
X188322380Y-95607142D01*
X188370000Y-95511904D01*
X188417619Y-95464285D01*
X188512857Y-95416666D01*
X188655714Y-95416666D01*
X188750952Y-95464285D01*
X188798571Y-95511904D01*
X188846190Y-95607142D01*
X188846190Y-95988095D01*
X188322380Y-94559523D02*
X188322380Y-94750000D01*
X188370000Y-94845238D01*
X188417619Y-94892857D01*
X188560476Y-94988095D01*
X188750952Y-95035714D01*
X189131904Y-95035714D01*
X189227142Y-94988095D01*
X189274761Y-94940476D01*
X189322380Y-94845238D01*
X189322380Y-94654761D01*
X189274761Y-94559523D01*
X189227142Y-94511904D01*
X189131904Y-94464285D01*
X188893809Y-94464285D01*
X188798571Y-94511904D01*
X188750952Y-94559523D01*
X188703333Y-94654761D01*
X188703333Y-94845238D01*
X188750952Y-94940476D01*
X188798571Y-94988095D01*
X188893809Y-95035714D01*
%TO.C,NRST*%
X179607142Y-94972380D02*
X179607142Y-93972380D01*
X180178571Y-94972380D01*
X180178571Y-93972380D01*
X181226190Y-94972380D02*
X180892857Y-94496190D01*
X180654761Y-94972380D02*
X180654761Y-93972380D01*
X181035714Y-93972380D01*
X181130952Y-94020000D01*
X181178571Y-94067619D01*
X181226190Y-94162857D01*
X181226190Y-94305714D01*
X181178571Y-94400952D01*
X181130952Y-94448571D01*
X181035714Y-94496190D01*
X180654761Y-94496190D01*
X181607142Y-94924761D02*
X181750000Y-94972380D01*
X181988095Y-94972380D01*
X182083333Y-94924761D01*
X182130952Y-94877142D01*
X182178571Y-94781904D01*
X182178571Y-94686666D01*
X182130952Y-94591428D01*
X182083333Y-94543809D01*
X181988095Y-94496190D01*
X181797619Y-94448571D01*
X181702380Y-94400952D01*
X181654761Y-94353333D01*
X181607142Y-94258095D01*
X181607142Y-94162857D01*
X181654761Y-94067619D01*
X181702380Y-94020000D01*
X181797619Y-93972380D01*
X182035714Y-93972380D01*
X182178571Y-94020000D01*
X182464285Y-93972380D02*
X183035714Y-93972380D01*
X182750000Y-94972380D02*
X182750000Y-93972380D01*
%TO.C,+3.3V CLK DIO GND*%
D12*
X149293333Y-113031428D02*
X149902857Y-113031428D01*
X149598095Y-113412380D02*
X149598095Y-112650476D01*
X150207619Y-112412380D02*
X150702857Y-112412380D01*
X150436190Y-112793333D01*
X150550476Y-112793333D01*
X150626666Y-112840952D01*
X150664761Y-112888571D01*
X150702857Y-112983809D01*
X150702857Y-113221904D01*
X150664761Y-113317142D01*
X150626666Y-113364761D01*
X150550476Y-113412380D01*
X150321904Y-113412380D01*
X150245714Y-113364761D01*
X150207619Y-113317142D01*
X151045714Y-113317142D02*
X151083809Y-113364761D01*
X151045714Y-113412380D01*
X151007619Y-113364761D01*
X151045714Y-113317142D01*
X151045714Y-113412380D01*
X151350476Y-112412380D02*
X151845714Y-112412380D01*
X151579047Y-112793333D01*
X151693333Y-112793333D01*
X151769523Y-112840952D01*
X151807619Y-112888571D01*
X151845714Y-112983809D01*
X151845714Y-113221904D01*
X151807619Y-113317142D01*
X151769523Y-113364761D01*
X151693333Y-113412380D01*
X151464761Y-113412380D01*
X151388571Y-113364761D01*
X151350476Y-113317142D01*
X152074285Y-112412380D02*
X152340952Y-113412380D01*
X152607619Y-112412380D01*
X153940952Y-113317142D02*
X153902857Y-113364761D01*
X153788571Y-113412380D01*
X153712380Y-113412380D01*
X153598095Y-113364761D01*
X153521904Y-113269523D01*
X153483809Y-113174285D01*
X153445714Y-112983809D01*
X153445714Y-112840952D01*
X153483809Y-112650476D01*
X153521904Y-112555238D01*
X153598095Y-112460000D01*
X153712380Y-112412380D01*
X153788571Y-112412380D01*
X153902857Y-112460000D01*
X153940952Y-112507619D01*
X154664761Y-113412380D02*
X154283809Y-113412380D01*
X154283809Y-112412380D01*
X154931428Y-113412380D02*
X154931428Y-112412380D01*
X155388571Y-113412380D02*
X155045714Y-112840952D01*
X155388571Y-112412380D02*
X154931428Y-112983809D01*
X156340952Y-113412380D02*
X156340952Y-112412380D01*
X156531428Y-112412380D01*
X156645714Y-112460000D01*
X156721904Y-112555238D01*
X156760000Y-112650476D01*
X156798095Y-112840952D01*
X156798095Y-112983809D01*
X156760000Y-113174285D01*
X156721904Y-113269523D01*
X156645714Y-113364761D01*
X156531428Y-113412380D01*
X156340952Y-113412380D01*
X157140952Y-113412380D02*
X157140952Y-112412380D01*
X157674285Y-112412380D02*
X157826666Y-112412380D01*
X157902857Y-112460000D01*
X157979047Y-112555238D01*
X158017142Y-112745714D01*
X158017142Y-113079047D01*
X157979047Y-113269523D01*
X157902857Y-113364761D01*
X157826666Y-113412380D01*
X157674285Y-113412380D01*
X157598095Y-113364761D01*
X157521904Y-113269523D01*
X157483809Y-113079047D01*
X157483809Y-112745714D01*
X157521904Y-112555238D01*
X157598095Y-112460000D01*
X157674285Y-112412380D01*
X159388571Y-112460000D02*
X159312380Y-112412380D01*
X159198095Y-112412380D01*
X159083809Y-112460000D01*
X159007619Y-112555238D01*
X158969523Y-112650476D01*
X158931428Y-112840952D01*
X158931428Y-112983809D01*
X158969523Y-113174285D01*
X159007619Y-113269523D01*
X159083809Y-113364761D01*
X159198095Y-113412380D01*
X159274285Y-113412380D01*
X159388571Y-113364761D01*
X159426666Y-113317142D01*
X159426666Y-112983809D01*
X159274285Y-112983809D01*
X159769523Y-113412380D02*
X159769523Y-112412380D01*
X160226666Y-113412380D01*
X160226666Y-112412380D01*
X160607619Y-113412380D02*
X160607619Y-112412380D01*
X160798095Y-112412380D01*
X160912380Y-112460000D01*
X160988571Y-112555238D01*
X161026666Y-112650476D01*
X161064761Y-112840952D01*
X161064761Y-112983809D01*
X161026666Y-113174285D01*
X160988571Y-113269523D01*
X160912380Y-113364761D01*
X160798095Y-113412380D01*
X160607619Y-113412380D01*
%TO.C,BOOT*%
X162812857Y-112908571D02*
X162955714Y-112956190D01*
X163003333Y-113003809D01*
X163050952Y-113099047D01*
X163050952Y-113241904D01*
X163003333Y-113337142D01*
X162955714Y-113384761D01*
X162860476Y-113432380D01*
X162479523Y-113432380D01*
X162479523Y-112432380D01*
X162812857Y-112432380D01*
X162908095Y-112480000D01*
X162955714Y-112527619D01*
X163003333Y-112622857D01*
X163003333Y-112718095D01*
X162955714Y-112813333D01*
X162908095Y-112860952D01*
X162812857Y-112908571D01*
X162479523Y-112908571D01*
X163670000Y-112432380D02*
X163860476Y-112432380D01*
X163955714Y-112480000D01*
X164050952Y-112575238D01*
X164098571Y-112765714D01*
X164098571Y-113099047D01*
X164050952Y-113289523D01*
X163955714Y-113384761D01*
X163860476Y-113432380D01*
X163670000Y-113432380D01*
X163574761Y-113384761D01*
X163479523Y-113289523D01*
X163431904Y-113099047D01*
X163431904Y-112765714D01*
X163479523Y-112575238D01*
X163574761Y-112480000D01*
X163670000Y-112432380D01*
X164717619Y-112432380D02*
X164908095Y-112432380D01*
X165003333Y-112480000D01*
X165098571Y-112575238D01*
X165146190Y-112765714D01*
X165146190Y-113099047D01*
X165098571Y-113289523D01*
X165003333Y-113384761D01*
X164908095Y-113432380D01*
X164717619Y-113432380D01*
X164622380Y-113384761D01*
X164527142Y-113289523D01*
X164479523Y-113099047D01*
X164479523Y-112765714D01*
X164527142Y-112575238D01*
X164622380Y-112480000D01*
X164717619Y-112432380D01*
X165431904Y-112432380D02*
X166003333Y-112432380D01*
X165717619Y-113432380D02*
X165717619Y-112432380D01*
%TD*%
M02*
