%TF.GenerationSoftware,KiCad,Pcbnew,(5.1.6)-1*%
%TF.CreationDate,2020-09-08T20:54:55+07:00*%
%TF.ProjectId,RX_nrf24,52585f6e-7266-4323-942e-6b696361645f,rev?*%
%TF.SameCoordinates,Original*%
%TF.FileFunction,Copper,L2,Bot*%
%TF.FilePolarity,Positive*%
%FSLAX46Y46*%
G04 Gerber Fmt 4.6, Leading zero omitted, Abs format (unit mm)*
G04 Created by KiCad (PCBNEW (5.1.6)-1) date 2020-09-08 20:54:55*
%MOMM*%
%LPD*%
G01*
G04 APERTURE LIST*
%TA.AperFunction,ComponentPad*%
%ADD10C,1.524000*%
%TD*%
%TA.AperFunction,ComponentPad*%
%ADD11R,1.524000X1.524000*%
%TD*%
%TA.AperFunction,ComponentPad*%
%ADD12O,1.700000X1.700000*%
%TD*%
%TA.AperFunction,ComponentPad*%
%ADD13R,1.700000X1.700000*%
%TD*%
%TA.AperFunction,ComponentPad*%
%ADD14C,2.250000*%
%TD*%
%TA.AperFunction,ViaPad*%
%ADD15C,0.600000*%
%TD*%
%TA.AperFunction,ViaPad*%
%ADD16C,0.800000*%
%TD*%
%TA.AperFunction,Conductor*%
%ADD17C,0.150000*%
%TD*%
%TA.AperFunction,Conductor*%
%ADD18C,0.685800*%
%TD*%
%TA.AperFunction,Conductor*%
%ADD19C,0.250000*%
%TD*%
%TA.AperFunction,Conductor*%
%ADD20C,0.254000*%
%TD*%
G04 APERTURE END LIST*
D10*
%TO.P,nRF,8*%
%TO.N,IRQ*%
X173430000Y-114900000D03*
%TO.P,nRF,7*%
%TO.N,MISO*%
X173430000Y-112360000D03*
%TO.P,nRF,6*%
%TO.N,MOSI*%
X175970000Y-114900000D03*
%TO.P,nRF,5*%
%TO.N,SCK*%
X175970000Y-112360000D03*
%TO.P,nRF,4*%
%TO.N,CSN*%
X178510000Y-114900000D03*
%TO.P,nRF,3*%
%TO.N,CE*%
X178510000Y-112360000D03*
%TO.P,nRF,2*%
%TO.N,+3V3*%
X181050000Y-114900000D03*
D11*
%TO.P,nRF,1*%
%TO.N,GND*%
X181050000Y-112360000D03*
%TD*%
D12*
%TO.P,J4,10*%
%TO.N,P10*%
X151510000Y-93000000D03*
%TO.P,J4,9*%
%TO.N,P9*%
X154050000Y-93000000D03*
%TO.P,J4,8*%
%TO.N,P8*%
X156590000Y-93000000D03*
%TO.P,J4,7*%
%TO.N,P7*%
X159130000Y-93000000D03*
%TO.P,J4,6*%
%TO.N,P6*%
X161670000Y-93000000D03*
%TO.P,J4,5*%
%TO.N,P5*%
X164210000Y-93000000D03*
%TO.P,J4,4*%
%TO.N,P4*%
X166750000Y-93000000D03*
%TO.P,J4,3*%
%TO.N,P3*%
X169290000Y-93000000D03*
%TO.P,J4,2*%
%TO.N,P2*%
X171830000Y-93000000D03*
D13*
%TO.P,J4,1*%
%TO.N,P1*%
X174370000Y-93000000D03*
%TD*%
D14*
%TO.P,J3,1*%
%TO.N,RF_out*%
X203270000Y-101240000D03*
%TO.P,J3,2*%
%TO.N,GND*%
X200730000Y-103780000D03*
X205810000Y-103780000D03*
X205810000Y-98700000D03*
X200730000Y-98700000D03*
%TD*%
D12*
%TO.P,G,10*%
%TO.N,GND*%
X174360000Y-88000000D03*
%TO.P,G,9*%
X171820000Y-88000000D03*
%TO.P,G,8*%
X169280000Y-88000000D03*
%TO.P,G,7*%
X166740000Y-88000000D03*
%TO.P,G,6*%
X164200000Y-88000000D03*
%TO.P,G,5*%
X161660000Y-88000000D03*
%TO.P,G,4*%
X159120000Y-88000000D03*
%TO.P,G,3*%
X156580000Y-88000000D03*
%TO.P,G,2*%
X154040000Y-88000000D03*
D13*
%TO.P,G,1*%
X151500000Y-88000000D03*
%TD*%
D12*
%TO.P,3.3v,10*%
%TO.N,+3V3*%
X174360000Y-90500000D03*
%TO.P,3.3v,9*%
X171820000Y-90500000D03*
%TO.P,3.3v,8*%
X169280000Y-90500000D03*
%TO.P,3.3v,7*%
X166740000Y-90500000D03*
%TO.P,3.3v,6*%
X164200000Y-90500000D03*
%TO.P,3.3v,5*%
X161660000Y-90500000D03*
%TO.P,3.3v,4*%
X159120000Y-90500000D03*
%TO.P,3.3v,3*%
X156580000Y-90500000D03*
%TO.P,3.3v,2*%
X154040000Y-90500000D03*
D13*
%TO.P,3.3v,1*%
X151500000Y-90500000D03*
%TD*%
%TO.P,J6,MP*%
%TO.N,N/C*%
%TA.AperFunction,SMDPad,CuDef*%
G36*
G01*
X154050000Y-97050000D02*
X150750000Y-97050000D01*
G75*
G02*
X150500000Y-96800000I0J250000D01*
G01*
X150500000Y-95500000D01*
G75*
G02*
X150750000Y-95250000I250000J0D01*
G01*
X154050000Y-95250000D01*
G75*
G02*
X154300000Y-95500000I0J-250000D01*
G01*
X154300000Y-96800000D01*
G75*
G02*
X154050000Y-97050000I-250000J0D01*
G01*
G37*
%TD.AperFunction*%
%TA.AperFunction,SMDPad,CuDef*%
G36*
G01*
X154050000Y-109750000D02*
X150750000Y-109750000D01*
G75*
G02*
X150500000Y-109500000I0J250000D01*
G01*
X150500000Y-108200000D01*
G75*
G02*
X150750000Y-107950000I250000J0D01*
G01*
X154050000Y-107950000D01*
G75*
G02*
X154300000Y-108200000I0J-250000D01*
G01*
X154300000Y-109500000D01*
G75*
G02*
X154050000Y-109750000I-250000J0D01*
G01*
G37*
%TD.AperFunction*%
%TO.P,J6,6*%
%TO.N,GND*%
%TA.AperFunction,SMDPad,CuDef*%
G36*
G01*
X158350000Y-99150000D02*
X155850000Y-99150000D01*
G75*
G02*
X155650000Y-98950000I0J200000D01*
G01*
X155650000Y-98550000D01*
G75*
G02*
X155850000Y-98350000I200000J0D01*
G01*
X158350000Y-98350000D01*
G75*
G02*
X158550000Y-98550000I0J-200000D01*
G01*
X158550000Y-98950000D01*
G75*
G02*
X158350000Y-99150000I-200000J0D01*
G01*
G37*
%TD.AperFunction*%
%TO.P,J6,5*%
%TO.N,UART3_TX*%
%TA.AperFunction,SMDPad,CuDef*%
G36*
G01*
X158350000Y-100650000D02*
X155850000Y-100650000D01*
G75*
G02*
X155650000Y-100450000I0J200000D01*
G01*
X155650000Y-100050000D01*
G75*
G02*
X155850000Y-99850000I200000J0D01*
G01*
X158350000Y-99850000D01*
G75*
G02*
X158550000Y-100050000I0J-200000D01*
G01*
X158550000Y-100450000D01*
G75*
G02*
X158350000Y-100650000I-200000J0D01*
G01*
G37*
%TD.AperFunction*%
%TO.P,J6,4*%
%TO.N,UART3_RX*%
%TA.AperFunction,SMDPad,CuDef*%
G36*
G01*
X158350000Y-102150000D02*
X155850000Y-102150000D01*
G75*
G02*
X155650000Y-101950000I0J200000D01*
G01*
X155650000Y-101550000D01*
G75*
G02*
X155850000Y-101350000I200000J0D01*
G01*
X158350000Y-101350000D01*
G75*
G02*
X158550000Y-101550000I0J-200000D01*
G01*
X158550000Y-101950000D01*
G75*
G02*
X158350000Y-102150000I-200000J0D01*
G01*
G37*
%TD.AperFunction*%
%TO.P,J6,3*%
%TO.N,UART3_CTS*%
%TA.AperFunction,SMDPad,CuDef*%
G36*
G01*
X158350000Y-103650000D02*
X155850000Y-103650000D01*
G75*
G02*
X155650000Y-103450000I0J200000D01*
G01*
X155650000Y-103050000D01*
G75*
G02*
X155850000Y-102850000I200000J0D01*
G01*
X158350000Y-102850000D01*
G75*
G02*
X158550000Y-103050000I0J-200000D01*
G01*
X158550000Y-103450000D01*
G75*
G02*
X158350000Y-103650000I-200000J0D01*
G01*
G37*
%TD.AperFunction*%
%TO.P,J6,2*%
%TO.N,UART3_RTS*%
%TA.AperFunction,SMDPad,CuDef*%
G36*
G01*
X158350000Y-105150000D02*
X155850000Y-105150000D01*
G75*
G02*
X155650000Y-104950000I0J200000D01*
G01*
X155650000Y-104550000D01*
G75*
G02*
X155850000Y-104350000I200000J0D01*
G01*
X158350000Y-104350000D01*
G75*
G02*
X158550000Y-104550000I0J-200000D01*
G01*
X158550000Y-104950000D01*
G75*
G02*
X158350000Y-105150000I-200000J0D01*
G01*
G37*
%TD.AperFunction*%
%TO.P,J6,1*%
%TO.N,+5V*%
%TA.AperFunction,SMDPad,CuDef*%
G36*
G01*
X158350000Y-106650000D02*
X155850000Y-106650000D01*
G75*
G02*
X155650000Y-106450000I0J200000D01*
G01*
X155650000Y-106050000D01*
G75*
G02*
X155850000Y-105850000I200000J0D01*
G01*
X158350000Y-105850000D01*
G75*
G02*
X158550000Y-106050000I0J-200000D01*
G01*
X158550000Y-106450000D01*
G75*
G02*
X158350000Y-106650000I-200000J0D01*
G01*
G37*
%TD.AperFunction*%
%TD*%
D12*
%TO.P,+3.3V CLK DIO GND,4*%
%TO.N,GND*%
X158100000Y-115040000D03*
%TO.P,+3.3V CLK DIO GND,3*%
%TO.N,SWDIO*%
X155560000Y-115040000D03*
%TO.P,+3.3V CLK DIO GND,2*%
%TO.N,SWCLK*%
X153020000Y-115040000D03*
D13*
%TO.P,+3.3V CLK DIO GND,1*%
%TO.N,+3V3*%
X150480000Y-115040000D03*
%TD*%
D12*
%TO.P,BOOT,3*%
%TO.N,+3V3*%
X162250000Y-115050000D03*
%TO.P,BOOT,2*%
%TO.N,BOOT0*%
X164790000Y-115050000D03*
D13*
%TO.P,BOOT,1*%
%TO.N,GND*%
X167330000Y-115050000D03*
%TD*%
D15*
%TO.N,GND*%
X151650000Y-99590000D03*
X151570000Y-101430000D03*
X157750000Y-98590000D03*
X188570000Y-94140000D03*
X186150000Y-105980000D03*
X156710000Y-97700000D03*
X188740000Y-104530000D03*
D16*
X189855000Y-97605000D03*
X184837500Y-97637500D03*
X186220000Y-107140000D03*
X190170000Y-106690000D03*
X190155000Y-105395000D03*
X188150000Y-110560000D03*
X186880000Y-110560000D03*
X185720000Y-110150000D03*
X188925000Y-105385000D03*
X185320001Y-107829999D03*
X185320001Y-108859999D03*
X171300000Y-100810000D03*
D15*
X158290000Y-109740000D03*
X187090000Y-100990000D03*
X187970000Y-100960000D03*
X187990000Y-101860000D03*
X187100000Y-101860000D03*
X192430000Y-93200000D03*
X189055000Y-89705000D03*
X163225000Y-99800000D03*
X191500000Y-100000000D03*
X192500000Y-100000000D03*
X193500000Y-100000000D03*
X194500000Y-100000000D03*
X195500000Y-100000000D03*
X196500000Y-100000000D03*
X197500000Y-100000000D03*
X198500000Y-100000000D03*
X199500000Y-100000000D03*
X194010000Y-102360000D03*
X195020000Y-102350000D03*
X196000000Y-102340000D03*
X197030000Y-102340000D03*
X198500000Y-98500000D03*
X197500000Y-98500000D03*
X196500000Y-98500000D03*
X195500000Y-98500000D03*
X194500000Y-98500000D03*
X194500000Y-97000000D03*
X195500000Y-97000000D03*
X196500000Y-97000000D03*
X197500000Y-97000000D03*
X198500000Y-97000000D03*
X198500000Y-95500000D03*
X197500000Y-95500000D03*
X196500000Y-95500000D03*
X195500000Y-95500000D03*
X198500000Y-94000000D03*
X197500000Y-94000000D03*
X196500000Y-94000000D03*
X195500000Y-94000000D03*
X195500000Y-92500000D03*
X196500000Y-92500000D03*
X197500000Y-92500000D03*
X198500000Y-92500000D03*
X198500000Y-91000000D03*
X197500000Y-91000000D03*
X196500000Y-91000000D03*
X195500000Y-91000000D03*
X194500000Y-91000000D03*
X193500000Y-91000000D03*
X192500000Y-91000000D03*
X198500000Y-89500000D03*
X197500000Y-89500000D03*
X196500000Y-89500000D03*
X195500000Y-89500000D03*
X194500000Y-89500000D03*
X193500000Y-89500000D03*
X192500000Y-89500000D03*
X192500000Y-88000000D03*
X193500000Y-88000000D03*
X194500000Y-88000000D03*
X195500000Y-88000000D03*
X196500000Y-88000000D03*
X197500000Y-88000000D03*
X198500000Y-88000000D03*
X198500000Y-104500000D03*
X198500000Y-106000000D03*
X198500000Y-107500000D03*
X191500000Y-88000000D03*
X191500000Y-89500000D03*
X191500000Y-91000000D03*
X190500000Y-91000000D03*
X190500000Y-89500000D03*
X190500000Y-88000000D03*
X198500000Y-109000000D03*
X198500000Y-110500000D03*
X198500000Y-112000000D03*
X198500000Y-113500000D03*
X198500000Y-115000000D03*
X197000000Y-106000000D03*
X197000000Y-107500000D03*
X197000000Y-109000000D03*
X197000000Y-110500000D03*
X197000000Y-112000000D03*
X197000000Y-113500000D03*
X197000000Y-115000000D03*
X195500000Y-115000000D03*
X195500000Y-113500000D03*
X195500000Y-112000000D03*
X195500000Y-110500000D03*
X195500000Y-109000000D03*
X195500000Y-107500000D03*
X194000000Y-107500000D03*
X194000000Y-109000000D03*
X194000000Y-110500000D03*
X194000000Y-112000000D03*
X194000000Y-113500000D03*
X194000000Y-115000000D03*
X192500000Y-115000000D03*
X192500000Y-113500000D03*
X192500000Y-112000000D03*
X191000000Y-112000000D03*
X191000000Y-113500000D03*
X191000000Y-115000000D03*
X189500000Y-115000000D03*
X189500000Y-113500000D03*
X189500000Y-112000000D03*
X188000000Y-112000000D03*
X188000000Y-113500000D03*
X188000000Y-115000000D03*
X186500000Y-115000000D03*
X186500000Y-113500000D03*
X186500000Y-112000000D03*
X185000000Y-112000000D03*
X185000000Y-113500000D03*
X185000000Y-115000000D03*
X183500000Y-98500000D03*
X183500000Y-97500000D03*
X183500000Y-96000000D03*
X183500000Y-95000000D03*
X183500000Y-92000000D03*
X183500000Y-90500000D03*
X183500000Y-89000000D03*
X182000000Y-89000000D03*
X181000000Y-89000000D03*
X179500000Y-89000000D03*
X162000000Y-100000000D03*
X161000000Y-99000000D03*
X160000000Y-98000000D03*
X159000000Y-97500000D03*
X162500000Y-99000000D03*
X162000000Y-98000000D03*
X161000000Y-97500000D03*
X164500000Y-99500000D03*
X165000000Y-100500000D03*
X163500000Y-99000000D03*
X163000000Y-98000000D03*
X162000000Y-97000000D03*
X160000000Y-97000000D03*
X160500000Y-106500000D03*
X161500000Y-107000000D03*
X162500000Y-107500000D03*
X164500000Y-107500000D03*
X165500000Y-107500000D03*
X168000000Y-105000000D03*
X169000000Y-106000000D03*
X170000000Y-105000000D03*
X171000000Y-104000000D03*
X172000000Y-103000000D03*
X173000000Y-104000000D03*
X172000000Y-105000000D03*
X171000000Y-106000000D03*
X170000000Y-107000000D03*
X170000000Y-103000000D03*
X169000000Y-104000000D03*
X171000000Y-102000000D03*
X169000000Y-102000000D03*
X182420000Y-106340000D03*
X181500000Y-107500000D03*
X181500000Y-108500000D03*
X181500000Y-109500000D03*
X181500000Y-110500000D03*
X180000000Y-110500000D03*
X178500000Y-110500000D03*
X180000000Y-109500000D03*
X180000000Y-108500000D03*
X181500000Y-106500000D03*
X178500000Y-109500000D03*
X161500000Y-111500000D03*
X161500000Y-110500000D03*
X162500000Y-110500000D03*
X162500000Y-111500000D03*
X163500000Y-110500000D03*
X163500000Y-111500000D03*
X166000000Y-111500000D03*
X164500000Y-110500000D03*
X183850000Y-107930000D03*
X183850000Y-108750000D03*
X183850000Y-109830000D03*
X183760000Y-110870000D03*
X183760000Y-111730000D03*
X183760000Y-112870000D03*
X183730000Y-113930000D03*
X182950000Y-114680000D03*
X189480000Y-93160000D03*
X190480000Y-93130000D03*
X191430000Y-93140000D03*
X187490000Y-95340000D03*
X187370000Y-96300000D03*
X189460000Y-88010000D03*
X182260000Y-88000000D03*
X179910000Y-88000000D03*
X158300000Y-99270000D03*
X155830000Y-111110000D03*
X152340000Y-103420000D03*
X151180000Y-98490000D03*
X152750000Y-98830000D03*
X153910000Y-98780000D03*
X154710000Y-98540000D03*
X154760000Y-97690000D03*
X152800000Y-99640000D03*
X152090000Y-100580000D03*
X151250000Y-100600000D03*
X154850000Y-96150000D03*
X154475000Y-94325000D03*
X157170000Y-94930000D03*
X160180000Y-95010000D03*
X158960000Y-94410000D03*
X162640000Y-94510000D03*
X161740000Y-94500000D03*
X166040000Y-95190000D03*
X165420000Y-94340000D03*
X167480000Y-95560000D03*
X168250000Y-96490000D03*
X168000000Y-94630000D03*
X168350000Y-95430000D03*
X170150000Y-95770000D03*
X170390000Y-94330000D03*
X170000000Y-94960000D03*
X170510000Y-92020000D03*
X168020000Y-91930000D03*
X165300000Y-91840000D03*
X172990000Y-91830000D03*
X160680000Y-91950000D03*
X162930000Y-91940000D03*
X157810000Y-91800000D03*
X155260000Y-91800000D03*
X153040000Y-91800000D03*
X173210000Y-89120000D03*
X160020000Y-115130000D03*
X197170000Y-103470000D03*
X196980000Y-104520000D03*
X198900000Y-102320000D03*
D16*
X189400000Y-110560000D03*
X190560000Y-110560000D03*
X191850000Y-110510000D03*
X191870000Y-109410000D03*
X191880000Y-108140000D03*
X191870000Y-106740000D03*
D15*
X199850000Y-102310000D03*
X197990000Y-102340000D03*
X175850000Y-99640000D03*
X180410000Y-99630000D03*
X180410000Y-98850000D03*
X180410000Y-97970000D03*
X180410000Y-97060000D03*
X180410000Y-96170000D03*
X179645000Y-96175000D03*
X178775000Y-96175000D03*
X177835000Y-96175000D03*
X177035000Y-96175000D03*
X176165000Y-96175000D03*
X179387500Y-100887500D03*
X175950000Y-98010000D03*
X181340000Y-94460000D03*
X181320000Y-93660000D03*
X180430000Y-93180000D03*
X180570000Y-93880000D03*
X180180000Y-91600000D03*
X179280000Y-91700000D03*
X177710000Y-94410000D03*
X178770000Y-94420000D03*
X179590000Y-94910000D03*
X178420000Y-95020000D03*
X176850000Y-95040000D03*
X175910000Y-95030000D03*
X176750000Y-93940000D03*
X178480000Y-91380000D03*
X172090000Y-110710000D03*
X172070000Y-111920000D03*
X172020000Y-113150000D03*
X171570000Y-114810000D03*
X170610000Y-115330000D03*
X169820000Y-115830000D03*
X171590000Y-115710000D03*
X171720000Y-114040000D03*
X155990000Y-113590000D03*
X154200000Y-113670000D03*
X171700000Y-96925000D03*
X171675000Y-96050000D03*
X171700000Y-95120000D03*
X150975000Y-94475000D03*
%TO.N,NRST*%
X185325000Y-92475000D03*
X177375000Y-92475000D03*
D16*
%TO.N,+5V*%
X156310000Y-106240000D03*
%TO.N,+3V3*%
X168960000Y-112110000D03*
D15*
X157610000Y-112560000D03*
%TO.N,CE*%
X176680000Y-106850000D03*
%TO.N,CSN*%
X175980000Y-107490000D03*
%TO.N,MOSI*%
X175260000Y-108120000D03*
%TO.N,MISO*%
X174175000Y-108750000D03*
D16*
%TO.N,SCK*%
X183050000Y-102470000D03*
X183050000Y-104410000D03*
D15*
X175610000Y-109300000D03*
%TO.N,IRQ*%
X174230000Y-110030000D03*
%TO.N,UART3_TX*%
X167090000Y-102640000D03*
%TO.N,UART3_RX*%
X167180000Y-103620000D03*
%TO.N,UART3_CTS*%
X163795289Y-105395289D03*
%TO.N,UART3_RTS*%
X163890000Y-106410000D03*
%TD*%
D17*
%TO.N,NRST*%
X177475001Y-92575001D02*
X177375000Y-92475000D01*
X185325000Y-92475000D02*
X185224999Y-92575001D01*
X185224999Y-92575001D02*
X177475001Y-92575001D01*
D18*
%TO.N,+3V3*%
X150480000Y-115040000D02*
X152960000Y-112560000D01*
X168510000Y-112560000D02*
X168960000Y-112110000D01*
X162250000Y-112630000D02*
X162180000Y-112560000D01*
X152960000Y-112560000D02*
X157610000Y-112560000D01*
X162250000Y-115050000D02*
X162250000Y-112630000D01*
X162180000Y-112560000D02*
X168510000Y-112560000D01*
X168960000Y-112110000D02*
X169070000Y-112000000D01*
X157610000Y-112560000D02*
X162180000Y-112560000D01*
D17*
%TO.N,CE*%
X178510000Y-112360000D02*
X177999750Y-112360000D01*
X176860010Y-111220260D02*
X176860010Y-107030010D01*
X176860010Y-107030010D02*
X176680000Y-106850000D01*
X177999750Y-112360000D02*
X176860010Y-111220260D01*
%TO.N,CSN*%
X175980000Y-107490000D02*
X176510000Y-108020000D01*
X177472999Y-113862999D02*
X178510000Y-114900000D01*
X177472999Y-112328237D02*
X177472999Y-113862999D01*
X176510000Y-111365238D02*
X177472999Y-112328237D01*
X176510000Y-108020000D02*
X176510000Y-111365238D01*
%TO.N,MOSI*%
X175260000Y-108180000D02*
X175260000Y-108120000D01*
X175970000Y-114900000D02*
X174932999Y-113862999D01*
X174932999Y-108507001D02*
X175260000Y-108180000D01*
X174932999Y-113862999D02*
X174932999Y-108507001D01*
%TO.N,MISO*%
X173430000Y-109400000D02*
X173430000Y-112360000D01*
X174110000Y-108720000D02*
X173430000Y-109400000D01*
D19*
%TO.N,SCK*%
X183050000Y-102800000D02*
X183075000Y-102775000D01*
X183050000Y-102980000D02*
X183050000Y-102470000D01*
X183050000Y-102980000D02*
X183050000Y-102800000D01*
X183050000Y-102470000D02*
X183050000Y-102320000D01*
X183050000Y-104410000D02*
X183050000Y-102980000D01*
D17*
X175610000Y-112000000D02*
X175970000Y-112360000D01*
X175610000Y-109300000D02*
X175610000Y-112000000D01*
%TO.N,IRQ*%
X174467001Y-113862999D02*
X173430000Y-114900000D01*
X174467001Y-110267001D02*
X174467001Y-113862999D01*
X174230000Y-110030000D02*
X174467001Y-110267001D01*
%TO.N,UART3_TX*%
X159500000Y-100250000D02*
X158325000Y-100250000D01*
X159775000Y-100250000D02*
X162855000Y-103330000D01*
X158325000Y-100250000D02*
X159775000Y-100250000D01*
X162855000Y-103330000D02*
X166400000Y-103330000D01*
X166400000Y-103330000D02*
X167090000Y-102640000D01*
X167090000Y-102640000D02*
X167090000Y-102640000D01*
%TO.N,UART3_RX*%
X162710022Y-103680010D02*
X160780012Y-101750000D01*
X167180000Y-103620000D02*
X167155000Y-103620000D01*
X160780012Y-101750000D02*
X158325000Y-101750000D01*
X167094990Y-103680010D02*
X162710022Y-103680010D01*
X167155000Y-103620000D02*
X167094990Y-103680010D01*
%TO.N,UART3_CTS*%
X161650000Y-103250000D02*
X163760000Y-105360000D01*
X158325000Y-103250000D02*
X161650000Y-103250000D01*
%TO.N,UART3_RTS*%
X158325000Y-104750000D02*
X159250000Y-104750000D01*
X162150998Y-104750000D02*
X163810998Y-106410000D01*
X163810998Y-106410000D02*
X163890000Y-106410000D01*
X158325000Y-104750000D02*
X162150998Y-104750000D01*
X163890000Y-106410000D02*
X163890000Y-106410000D01*
%TD*%
D20*
%TO.N,GND*%
G36*
X188873000Y-105170000D02*
G01*
X188875440Y-105194776D01*
X188882667Y-105218601D01*
X188894403Y-105240557D01*
X188910197Y-105259803D01*
X188929443Y-105275597D01*
X188951399Y-105287333D01*
X188975224Y-105294560D01*
X189000000Y-105297000D01*
X190323000Y-105297000D01*
X190323000Y-106400000D01*
X190325440Y-106424776D01*
X190332667Y-106448601D01*
X190344403Y-106470557D01*
X190360197Y-106489803D01*
X190363616Y-106492609D01*
X190363003Y-106579099D01*
X190365268Y-106603892D01*
X190372326Y-106627767D01*
X190383906Y-106649807D01*
X190399563Y-106669163D01*
X190418695Y-106685094D01*
X190440568Y-106696985D01*
X190464341Y-106704381D01*
X190490000Y-106707000D01*
X192103000Y-106707000D01*
X192103000Y-110872805D01*
X185316702Y-110863179D01*
X185307912Y-107127000D01*
X186990000Y-107127000D01*
X187014776Y-107124560D01*
X187038601Y-107117333D01*
X187060557Y-107105597D01*
X187079803Y-107089803D01*
X187095597Y-107070557D01*
X187107333Y-107048601D01*
X187114560Y-107024776D01*
X187117000Y-107000000D01*
X187117000Y-106789224D01*
X187117333Y-106788601D01*
X187124560Y-106764776D01*
X187127000Y-106740000D01*
X187127000Y-103167000D01*
X188873000Y-103167000D01*
X188873000Y-105170000D01*
G37*
X188873000Y-105170000D02*
X188875440Y-105194776D01*
X188882667Y-105218601D01*
X188894403Y-105240557D01*
X188910197Y-105259803D01*
X188929443Y-105275597D01*
X188951399Y-105287333D01*
X188975224Y-105294560D01*
X189000000Y-105297000D01*
X190323000Y-105297000D01*
X190323000Y-106400000D01*
X190325440Y-106424776D01*
X190332667Y-106448601D01*
X190344403Y-106470557D01*
X190360197Y-106489803D01*
X190363616Y-106492609D01*
X190363003Y-106579099D01*
X190365268Y-106603892D01*
X190372326Y-106627767D01*
X190383906Y-106649807D01*
X190399563Y-106669163D01*
X190418695Y-106685094D01*
X190440568Y-106696985D01*
X190464341Y-106704381D01*
X190490000Y-106707000D01*
X192103000Y-106707000D01*
X192103000Y-110872805D01*
X185316702Y-110863179D01*
X185307912Y-107127000D01*
X186990000Y-107127000D01*
X187014776Y-107124560D01*
X187038601Y-107117333D01*
X187060557Y-107105597D01*
X187079803Y-107089803D01*
X187095597Y-107070557D01*
X187107333Y-107048601D01*
X187114560Y-107024776D01*
X187117000Y-107000000D01*
X187117000Y-106789224D01*
X187117333Y-106788601D01*
X187124560Y-106764776D01*
X187127000Y-106740000D01*
X187127000Y-103167000D01*
X188873000Y-103167000D01*
X188873000Y-105170000D01*
G36*
X180633000Y-100074255D02*
G01*
X179590481Y-101033000D01*
X174960000Y-101033000D01*
X174958725Y-101033006D01*
X171037712Y-101072364D01*
X169982088Y-99676147D01*
X170761643Y-99673533D01*
X170710841Y-99741379D01*
X170703152Y-99752909D01*
X170692652Y-99775482D01*
X170686758Y-99799671D01*
X170685696Y-99824545D01*
X170689506Y-99849148D01*
X170698044Y-99872534D01*
X170710980Y-99893806D01*
X170727817Y-99912146D01*
X170822817Y-99997146D01*
X170843313Y-100012086D01*
X170865925Y-100022502D01*
X170890135Y-100028307D01*
X170915013Y-100029278D01*
X170939601Y-100025376D01*
X170962957Y-100016752D01*
X170984180Y-100003738D01*
X171002458Y-99986833D01*
X171281951Y-99672129D01*
X175669714Y-99682000D01*
X175696105Y-99679288D01*
X175719851Y-99671807D01*
X175741681Y-99659837D01*
X175760757Y-99643838D01*
X175775755Y-99625159D01*
X175782603Y-99619501D01*
X175798333Y-99600203D01*
X175809995Y-99578207D01*
X175817142Y-99554359D01*
X175819495Y-99528896D01*
X175788281Y-95936945D01*
X180633000Y-95927407D01*
X180633000Y-100074255D01*
G37*
X180633000Y-100074255D02*
X179590481Y-101033000D01*
X174960000Y-101033000D01*
X174958725Y-101033006D01*
X171037712Y-101072364D01*
X169982088Y-99676147D01*
X170761643Y-99673533D01*
X170710841Y-99741379D01*
X170703152Y-99752909D01*
X170692652Y-99775482D01*
X170686758Y-99799671D01*
X170685696Y-99824545D01*
X170689506Y-99849148D01*
X170698044Y-99872534D01*
X170710980Y-99893806D01*
X170727817Y-99912146D01*
X170822817Y-99997146D01*
X170843313Y-100012086D01*
X170865925Y-100022502D01*
X170890135Y-100028307D01*
X170915013Y-100029278D01*
X170939601Y-100025376D01*
X170962957Y-100016752D01*
X170984180Y-100003738D01*
X171002458Y-99986833D01*
X171281951Y-99672129D01*
X175669714Y-99682000D01*
X175696105Y-99679288D01*
X175719851Y-99671807D01*
X175741681Y-99659837D01*
X175760757Y-99643838D01*
X175775755Y-99625159D01*
X175782603Y-99619501D01*
X175798333Y-99600203D01*
X175809995Y-99578207D01*
X175817142Y-99554359D01*
X175819495Y-99528896D01*
X175788281Y-95936945D01*
X180633000Y-95927407D01*
X180633000Y-100074255D01*
G36*
X199238000Y-86351344D02*
G01*
X199238001Y-96994972D01*
X199236540Y-97009618D01*
X199238001Y-97024647D01*
X199238001Y-97024833D01*
X199239399Y-97039024D01*
X199242296Y-97068827D01*
X199242352Y-97069014D01*
X199242371Y-97069202D01*
X199250801Y-97096990D01*
X199259493Y-97125775D01*
X199259585Y-97125948D01*
X199259640Y-97126129D01*
X199273346Y-97151772D01*
X199287469Y-97178276D01*
X199287593Y-97178427D01*
X199287682Y-97178594D01*
X199306192Y-97201148D01*
X199325151Y-97224308D01*
X199325301Y-97224431D01*
X199325422Y-97224579D01*
X199348264Y-97243326D01*
X199371089Y-97262106D01*
X199371258Y-97262196D01*
X199371407Y-97262319D01*
X199397557Y-97276296D01*
X199423518Y-97290214D01*
X199423702Y-97290270D01*
X199423872Y-97290361D01*
X199452282Y-97298979D01*
X199480424Y-97307555D01*
X199480614Y-97307574D01*
X199480799Y-97307630D01*
X199510328Y-97310539D01*
X199524787Y-97311981D01*
X199524976Y-97311981D01*
X199540000Y-97313461D01*
X199554645Y-97312019D01*
X207178354Y-97321620D01*
X207187646Y-105238000D01*
X199374975Y-105238000D01*
X199360284Y-105236539D01*
X199345308Y-105238000D01*
X199345167Y-105238000D01*
X199330422Y-105239452D01*
X199301078Y-105242315D01*
X199300943Y-105242356D01*
X199300798Y-105242370D01*
X199272111Y-105251072D01*
X199244135Y-105259530D01*
X199244009Y-105259597D01*
X199243871Y-105259639D01*
X199217567Y-105273698D01*
X199191643Y-105287523D01*
X199191533Y-105287613D01*
X199191406Y-105287681D01*
X199168220Y-105306710D01*
X199145623Y-105325220D01*
X199145534Y-105325328D01*
X199145421Y-105325421D01*
X199126332Y-105348680D01*
X199107840Y-105371169D01*
X199107773Y-105371294D01*
X199107681Y-105371406D01*
X199093403Y-105398120D01*
X199079749Y-105423608D01*
X199079709Y-105423741D01*
X199079639Y-105423871D01*
X199070855Y-105452829D01*
X199062426Y-105480519D01*
X199062412Y-105480659D01*
X199062370Y-105480798D01*
X199059383Y-105511123D01*
X199058015Y-105524884D01*
X199058015Y-105525015D01*
X199056539Y-105540000D01*
X199057987Y-105554702D01*
X199048015Y-116175018D01*
X199048000Y-116175168D01*
X199048000Y-116190704D01*
X199047987Y-116204549D01*
X199048000Y-116204682D01*
X199048000Y-116287880D01*
X149192000Y-116268121D01*
X149192000Y-114190000D01*
X149351660Y-114190000D01*
X149351660Y-115890000D01*
X149357008Y-115944301D01*
X149372847Y-115996516D01*
X149398569Y-116044637D01*
X149433184Y-116086816D01*
X149475363Y-116121431D01*
X149523484Y-116147153D01*
X149575699Y-116162992D01*
X149630000Y-116168340D01*
X151330000Y-116168340D01*
X151384301Y-116162992D01*
X151436516Y-116147153D01*
X151484637Y-116121431D01*
X151526816Y-116086816D01*
X151561431Y-116044637D01*
X151587153Y-115996516D01*
X151602992Y-115944301D01*
X151608340Y-115890000D01*
X151608340Y-114929000D01*
X151893000Y-114929000D01*
X151893000Y-115151000D01*
X151936310Y-115368734D01*
X152021266Y-115573835D01*
X152144602Y-115758421D01*
X152301579Y-115915398D01*
X152486165Y-116038734D01*
X152691266Y-116123690D01*
X152909000Y-116167000D01*
X153131000Y-116167000D01*
X153348734Y-116123690D01*
X153553835Y-116038734D01*
X153738421Y-115915398D01*
X153895398Y-115758421D01*
X154018734Y-115573835D01*
X154103690Y-115368734D01*
X154147000Y-115151000D01*
X154147000Y-114929000D01*
X154433000Y-114929000D01*
X154433000Y-115151000D01*
X154476310Y-115368734D01*
X154561266Y-115573835D01*
X154684602Y-115758421D01*
X154841579Y-115915398D01*
X155026165Y-116038734D01*
X155231266Y-116123690D01*
X155449000Y-116167000D01*
X155671000Y-116167000D01*
X155888734Y-116123690D01*
X156093835Y-116038734D01*
X156278421Y-115915398D01*
X156435398Y-115758421D01*
X156558734Y-115573835D01*
X156643690Y-115368734D01*
X156687000Y-115151000D01*
X156687000Y-114929000D01*
X156643690Y-114711266D01*
X156558734Y-114506165D01*
X156435398Y-114321579D01*
X156278421Y-114164602D01*
X156093835Y-114041266D01*
X155888734Y-113956310D01*
X155671000Y-113913000D01*
X155449000Y-113913000D01*
X155231266Y-113956310D01*
X155026165Y-114041266D01*
X154841579Y-114164602D01*
X154684602Y-114321579D01*
X154561266Y-114506165D01*
X154476310Y-114711266D01*
X154433000Y-114929000D01*
X154147000Y-114929000D01*
X154103690Y-114711266D01*
X154018734Y-114506165D01*
X153895398Y-114321579D01*
X153738421Y-114164602D01*
X153553835Y-114041266D01*
X153348734Y-113956310D01*
X153131000Y-113913000D01*
X152909000Y-113913000D01*
X152691266Y-113956310D01*
X152486165Y-114041266D01*
X152301579Y-114164602D01*
X152144602Y-114321579D01*
X152021266Y-114506165D01*
X151936310Y-114711266D01*
X151893000Y-114929000D01*
X151608340Y-114929000D01*
X151608340Y-114788330D01*
X153216771Y-113179900D01*
X161630101Y-113179900D01*
X161630100Y-114108772D01*
X161531579Y-114174602D01*
X161374602Y-114331579D01*
X161251266Y-114516165D01*
X161166310Y-114721266D01*
X161123000Y-114939000D01*
X161123000Y-115161000D01*
X161166310Y-115378734D01*
X161251266Y-115583835D01*
X161374602Y-115768421D01*
X161531579Y-115925398D01*
X161716165Y-116048734D01*
X161921266Y-116133690D01*
X162139000Y-116177000D01*
X162361000Y-116177000D01*
X162578734Y-116133690D01*
X162783835Y-116048734D01*
X162968421Y-115925398D01*
X163125398Y-115768421D01*
X163248734Y-115583835D01*
X163333690Y-115378734D01*
X163377000Y-115161000D01*
X163377000Y-114939000D01*
X163663000Y-114939000D01*
X163663000Y-115161000D01*
X163706310Y-115378734D01*
X163791266Y-115583835D01*
X163914602Y-115768421D01*
X164071579Y-115925398D01*
X164256165Y-116048734D01*
X164461266Y-116133690D01*
X164679000Y-116177000D01*
X164901000Y-116177000D01*
X165118734Y-116133690D01*
X165323835Y-116048734D01*
X165508421Y-115925398D01*
X165665398Y-115768421D01*
X165788734Y-115583835D01*
X165873690Y-115378734D01*
X165917000Y-115161000D01*
X165917000Y-114939000D01*
X165873690Y-114721266D01*
X165788734Y-114516165D01*
X165665398Y-114331579D01*
X165508421Y-114174602D01*
X165323835Y-114051266D01*
X165118734Y-113966310D01*
X164901000Y-113923000D01*
X164679000Y-113923000D01*
X164461266Y-113966310D01*
X164256165Y-114051266D01*
X164071579Y-114174602D01*
X163914602Y-114331579D01*
X163791266Y-114516165D01*
X163706310Y-114721266D01*
X163663000Y-114939000D01*
X163377000Y-114939000D01*
X163333690Y-114721266D01*
X163248734Y-114516165D01*
X163125398Y-114331579D01*
X162968421Y-114174602D01*
X162869900Y-114108773D01*
X162869900Y-113179900D01*
X168479559Y-113179900D01*
X168510000Y-113182898D01*
X168540441Y-113179900D01*
X168540449Y-113179900D01*
X168631522Y-113170930D01*
X168748373Y-113135484D01*
X168856064Y-113077922D01*
X168950456Y-113000456D01*
X168969870Y-112976800D01*
X169205636Y-112741034D01*
X169280680Y-112709950D01*
X169391563Y-112635860D01*
X169485860Y-112541563D01*
X169559950Y-112430680D01*
X169610984Y-112307474D01*
X169612428Y-112300215D01*
X169635170Y-112257667D01*
X172391000Y-112257667D01*
X172391000Y-112462333D01*
X172430928Y-112663065D01*
X172509250Y-112852151D01*
X172622956Y-113022324D01*
X172767676Y-113167044D01*
X172937849Y-113280750D01*
X173126935Y-113359072D01*
X173327667Y-113399000D01*
X173532333Y-113399000D01*
X173733065Y-113359072D01*
X173922151Y-113280750D01*
X174092324Y-113167044D01*
X174115002Y-113144366D01*
X174115002Y-113717195D01*
X173873217Y-113958981D01*
X173733065Y-113900928D01*
X173532333Y-113861000D01*
X173327667Y-113861000D01*
X173126935Y-113900928D01*
X172937849Y-113979250D01*
X172767676Y-114092956D01*
X172622956Y-114237676D01*
X172509250Y-114407849D01*
X172430928Y-114596935D01*
X172391000Y-114797667D01*
X172391000Y-115002333D01*
X172430928Y-115203065D01*
X172509250Y-115392151D01*
X172622956Y-115562324D01*
X172767676Y-115707044D01*
X172937849Y-115820750D01*
X173126935Y-115899072D01*
X173327667Y-115939000D01*
X173532333Y-115939000D01*
X173733065Y-115899072D01*
X173922151Y-115820750D01*
X174092324Y-115707044D01*
X174237044Y-115562324D01*
X174350750Y-115392151D01*
X174429072Y-115203065D01*
X174469000Y-115002333D01*
X174469000Y-114797667D01*
X174429072Y-114596935D01*
X174371019Y-114456783D01*
X174700000Y-114127803D01*
X175028981Y-114456783D01*
X174970928Y-114596935D01*
X174931000Y-114797667D01*
X174931000Y-115002333D01*
X174970928Y-115203065D01*
X175049250Y-115392151D01*
X175162956Y-115562324D01*
X175307676Y-115707044D01*
X175477849Y-115820750D01*
X175666935Y-115899072D01*
X175867667Y-115939000D01*
X176072333Y-115939000D01*
X176273065Y-115899072D01*
X176462151Y-115820750D01*
X176632324Y-115707044D01*
X176777044Y-115562324D01*
X176890750Y-115392151D01*
X176969072Y-115203065D01*
X177009000Y-115002333D01*
X177009000Y-114797667D01*
X176969072Y-114596935D01*
X176890750Y-114407849D01*
X176777044Y-114237676D01*
X176632324Y-114092956D01*
X176462151Y-113979250D01*
X176273065Y-113900928D01*
X176072333Y-113861000D01*
X175867667Y-113861000D01*
X175666935Y-113900928D01*
X175526783Y-113958981D01*
X175284999Y-113717197D01*
X175284999Y-113144367D01*
X175307676Y-113167044D01*
X175477849Y-113280750D01*
X175666935Y-113359072D01*
X175867667Y-113399000D01*
X176072333Y-113399000D01*
X176273065Y-113359072D01*
X176462151Y-113280750D01*
X176632324Y-113167044D01*
X176777044Y-113022324D01*
X176890750Y-112852151D01*
X176969072Y-112663065D01*
X177009000Y-112462333D01*
X177009000Y-112362041D01*
X177120999Y-112474040D01*
X177121000Y-113845700D01*
X177119296Y-113862999D01*
X177123032Y-113900928D01*
X177126093Y-113932003D01*
X177144652Y-113993184D01*
X177146221Y-113998355D01*
X177178906Y-114059506D01*
X177198585Y-114083484D01*
X177222894Y-114113105D01*
X177236327Y-114124129D01*
X177568981Y-114456783D01*
X177510928Y-114596935D01*
X177471000Y-114797667D01*
X177471000Y-115002333D01*
X177510928Y-115203065D01*
X177589250Y-115392151D01*
X177702956Y-115562324D01*
X177847676Y-115707044D01*
X178017849Y-115820750D01*
X178206935Y-115899072D01*
X178407667Y-115939000D01*
X178612333Y-115939000D01*
X178813065Y-115899072D01*
X179002151Y-115820750D01*
X179172324Y-115707044D01*
X179317044Y-115562324D01*
X179430750Y-115392151D01*
X179509072Y-115203065D01*
X179549000Y-115002333D01*
X179549000Y-114797667D01*
X180011000Y-114797667D01*
X180011000Y-115002333D01*
X180050928Y-115203065D01*
X180129250Y-115392151D01*
X180242956Y-115562324D01*
X180387676Y-115707044D01*
X180557849Y-115820750D01*
X180746935Y-115899072D01*
X180947667Y-115939000D01*
X181152333Y-115939000D01*
X181353065Y-115899072D01*
X181542151Y-115820750D01*
X181712324Y-115707044D01*
X181857044Y-115562324D01*
X181970750Y-115392151D01*
X182049072Y-115203065D01*
X182089000Y-115002333D01*
X182089000Y-114797667D01*
X182049072Y-114596935D01*
X181970750Y-114407849D01*
X181857044Y-114237676D01*
X181712324Y-114092956D01*
X181542151Y-113979250D01*
X181353065Y-113900928D01*
X181152333Y-113861000D01*
X180947667Y-113861000D01*
X180746935Y-113900928D01*
X180557849Y-113979250D01*
X180387676Y-114092956D01*
X180242956Y-114237676D01*
X180129250Y-114407849D01*
X180050928Y-114596935D01*
X180011000Y-114797667D01*
X179549000Y-114797667D01*
X179509072Y-114596935D01*
X179430750Y-114407849D01*
X179317044Y-114237676D01*
X179172324Y-114092956D01*
X179002151Y-113979250D01*
X178813065Y-113900928D01*
X178612333Y-113861000D01*
X178407667Y-113861000D01*
X178206935Y-113900928D01*
X178066783Y-113958981D01*
X177824999Y-113717197D01*
X177824999Y-113144367D01*
X177847676Y-113167044D01*
X178017849Y-113280750D01*
X178206935Y-113359072D01*
X178407667Y-113399000D01*
X178612333Y-113399000D01*
X178813065Y-113359072D01*
X179002151Y-113280750D01*
X179172324Y-113167044D01*
X179317044Y-113022324D01*
X179430750Y-112852151D01*
X179509072Y-112663065D01*
X179549000Y-112462333D01*
X179549000Y-112257667D01*
X179509072Y-112056935D01*
X179430750Y-111867849D01*
X179317044Y-111697676D01*
X179172324Y-111552956D01*
X179002151Y-111439250D01*
X178857514Y-111379339D01*
X184513002Y-111379339D01*
X184515409Y-111404621D01*
X184522607Y-111428454D01*
X184534315Y-111450426D01*
X184550085Y-111469690D01*
X184569311Y-111485508D01*
X184591253Y-111497272D01*
X184615068Y-111504529D01*
X184639841Y-111507000D01*
X192649841Y-111517000D01*
X192674776Y-111514560D01*
X192698601Y-111507333D01*
X192720557Y-111495597D01*
X192739803Y-111479803D01*
X192755597Y-111460557D01*
X192767333Y-111438601D01*
X192774560Y-111414776D01*
X192777000Y-111390000D01*
X192777000Y-106110000D01*
X192774560Y-106085224D01*
X192767333Y-106061399D01*
X192755597Y-106039443D01*
X192739803Y-106020197D01*
X192720557Y-106004403D01*
X192698601Y-105992667D01*
X192674776Y-105985440D01*
X192650000Y-105983000D01*
X190907000Y-105983000D01*
X190907000Y-104670000D01*
X190905642Y-104651475D01*
X190899613Y-104627319D01*
X190888988Y-104604804D01*
X190874175Y-104584794D01*
X190855743Y-104568059D01*
X190834399Y-104555241D01*
X190810966Y-104546833D01*
X190786342Y-104543158D01*
X190586342Y-104533158D01*
X190579016Y-104533004D01*
X189417000Y-104542012D01*
X189417000Y-102830000D01*
X189415707Y-102811922D01*
X189409765Y-102787745D01*
X189399220Y-102765192D01*
X189384478Y-102745130D01*
X189366105Y-102728329D01*
X189344808Y-102715435D01*
X189321404Y-102706944D01*
X189296794Y-102703182D01*
X189068540Y-102690954D01*
X189060557Y-102684403D01*
X189038601Y-102672667D01*
X189014776Y-102665440D01*
X188990000Y-102663000D01*
X186710000Y-102663000D01*
X186685059Y-102665473D01*
X186661244Y-102672732D01*
X186639303Y-102684497D01*
X186620079Y-102700316D01*
X186604310Y-102719582D01*
X186592603Y-102741554D01*
X186585408Y-102765388D01*
X186583000Y-102790168D01*
X186587832Y-106453000D01*
X184665000Y-106453000D01*
X184640873Y-106455313D01*
X184617011Y-106462416D01*
X184594994Y-106474037D01*
X184575666Y-106489731D01*
X184559772Y-106508894D01*
X184547922Y-106530789D01*
X184540571Y-106554575D01*
X184538002Y-106579339D01*
X184513002Y-111379339D01*
X178857514Y-111379339D01*
X178813065Y-111360928D01*
X178612333Y-111321000D01*
X178407667Y-111321000D01*
X178206935Y-111360928D01*
X178017849Y-111439250D01*
X177847676Y-111552956D01*
X177769093Y-111631539D01*
X177212010Y-111074458D01*
X177212010Y-107073388D01*
X177234826Y-107018305D01*
X177257000Y-106906830D01*
X177257000Y-106793170D01*
X177234826Y-106681695D01*
X177191331Y-106576688D01*
X177128185Y-106482184D01*
X177047816Y-106401815D01*
X176953312Y-106338669D01*
X176848305Y-106295174D01*
X176736830Y-106273000D01*
X176623170Y-106273000D01*
X176511695Y-106295174D01*
X176406688Y-106338669D01*
X176312184Y-106401815D01*
X176231815Y-106482184D01*
X176168669Y-106576688D01*
X176125174Y-106681695D01*
X176103000Y-106793170D01*
X176103000Y-106906830D01*
X176107004Y-106926959D01*
X176036830Y-106913000D01*
X175923170Y-106913000D01*
X175811695Y-106935174D01*
X175706688Y-106978669D01*
X175612184Y-107041815D01*
X175531815Y-107122184D01*
X175468669Y-107216688D01*
X175425174Y-107321695D01*
X175403000Y-107433170D01*
X175403000Y-107546830D01*
X175405757Y-107560689D01*
X175316830Y-107543000D01*
X175203170Y-107543000D01*
X175091695Y-107565174D01*
X174986688Y-107608669D01*
X174892184Y-107671815D01*
X174811815Y-107752184D01*
X174748669Y-107846688D01*
X174705174Y-107951695D01*
X174683000Y-108063170D01*
X174683000Y-108176830D01*
X174696666Y-108245532D01*
X174696327Y-108245871D01*
X174682894Y-108256895D01*
X174671871Y-108270327D01*
X174638906Y-108310494D01*
X174608459Y-108367458D01*
X174542816Y-108301815D01*
X174448312Y-108238669D01*
X174343305Y-108195174D01*
X174231830Y-108173000D01*
X174118170Y-108173000D01*
X174006695Y-108195174D01*
X173901688Y-108238669D01*
X173807184Y-108301815D01*
X173726815Y-108382184D01*
X173663669Y-108476688D01*
X173620174Y-108581695D01*
X173598000Y-108693170D01*
X173598000Y-108734197D01*
X173193328Y-109138870D01*
X173179894Y-109149895D01*
X173168872Y-109163326D01*
X173135907Y-109203493D01*
X173121207Y-109230996D01*
X173103221Y-109264645D01*
X173083093Y-109330997D01*
X173080549Y-109356830D01*
X173076297Y-109400000D01*
X173078000Y-109417289D01*
X173078001Y-111381197D01*
X172937849Y-111439250D01*
X172767676Y-111552956D01*
X172622956Y-111697676D01*
X172509250Y-111867849D01*
X172430928Y-112056935D01*
X172391000Y-112257667D01*
X169635170Y-112257667D01*
X169645483Y-112238373D01*
X169680930Y-112121522D01*
X169692898Y-112000001D01*
X169680930Y-111878479D01*
X169645483Y-111761627D01*
X169587921Y-111653937D01*
X169510455Y-111559545D01*
X169416063Y-111482079D01*
X169308373Y-111424517D01*
X169191521Y-111389070D01*
X169069999Y-111377102D01*
X168948478Y-111389070D01*
X168831627Y-111424517D01*
X168769785Y-111457572D01*
X168762526Y-111459016D01*
X168639320Y-111510050D01*
X168528437Y-111584140D01*
X168434140Y-111678437D01*
X168360050Y-111789320D01*
X168328966Y-111864364D01*
X168253230Y-111940100D01*
X162210441Y-111940100D01*
X162180000Y-111937102D01*
X162149559Y-111940100D01*
X152990449Y-111940100D01*
X152960000Y-111937101D01*
X152838478Y-111949070D01*
X152721626Y-111984516D01*
X152679373Y-112007101D01*
X152613936Y-112042078D01*
X152519544Y-112119544D01*
X152500134Y-112143195D01*
X150731670Y-113911660D01*
X149630000Y-113911660D01*
X149575699Y-113917008D01*
X149523484Y-113932847D01*
X149475363Y-113958569D01*
X149433184Y-113993184D01*
X149398569Y-114035363D01*
X149372847Y-114083484D01*
X149357008Y-114135699D01*
X149351660Y-114190000D01*
X149192000Y-114190000D01*
X149192000Y-108200000D01*
X150221660Y-108200000D01*
X150221660Y-109500000D01*
X150231812Y-109603074D01*
X150261877Y-109702187D01*
X150310701Y-109793530D01*
X150376407Y-109873593D01*
X150456470Y-109939299D01*
X150547813Y-109988123D01*
X150646926Y-110018188D01*
X150750000Y-110028340D01*
X154050000Y-110028340D01*
X154153074Y-110018188D01*
X154252187Y-109988123D01*
X154343530Y-109939299D01*
X154423593Y-109873593D01*
X154489299Y-109793530D01*
X154538123Y-109702187D01*
X154568188Y-109603074D01*
X154578340Y-109500000D01*
X154578340Y-108200000D01*
X154568188Y-108096926D01*
X154538123Y-107997813D01*
X154489299Y-107906470D01*
X154423593Y-107826407D01*
X154343530Y-107760701D01*
X154252187Y-107711877D01*
X154153074Y-107681812D01*
X154050000Y-107671660D01*
X150750000Y-107671660D01*
X150646926Y-107681812D01*
X150547813Y-107711877D01*
X150456470Y-107760701D01*
X150376407Y-107826407D01*
X150310701Y-107906470D01*
X150261877Y-107997813D01*
X150231812Y-108096926D01*
X150221660Y-108200000D01*
X149192000Y-108200000D01*
X149192000Y-106050000D01*
X155371660Y-106050000D01*
X155371660Y-106450000D01*
X155380851Y-106543320D01*
X155408071Y-106633053D01*
X155452275Y-106715751D01*
X155511763Y-106788237D01*
X155584249Y-106847725D01*
X155666947Y-106891929D01*
X155756680Y-106919149D01*
X155850000Y-106928340D01*
X158350000Y-106928340D01*
X158443320Y-106919149D01*
X158533053Y-106891929D01*
X158615751Y-106847725D01*
X158688237Y-106788237D01*
X158747725Y-106715751D01*
X158791929Y-106633053D01*
X158819149Y-106543320D01*
X158828340Y-106450000D01*
X158828340Y-106050000D01*
X158819149Y-105956680D01*
X158791929Y-105866947D01*
X158747725Y-105784249D01*
X158688237Y-105711763D01*
X158615751Y-105652275D01*
X158533053Y-105608071D01*
X158443320Y-105580851D01*
X158350000Y-105571660D01*
X156420217Y-105571660D01*
X156376679Y-105563000D01*
X156243321Y-105563000D01*
X156199783Y-105571660D01*
X155850000Y-105571660D01*
X155756680Y-105580851D01*
X155666947Y-105608071D01*
X155584249Y-105652275D01*
X155511763Y-105711763D01*
X155452275Y-105784249D01*
X155408071Y-105866947D01*
X155380851Y-105956680D01*
X155371660Y-106050000D01*
X149192000Y-106050000D01*
X149192000Y-100050000D01*
X155371660Y-100050000D01*
X155371660Y-100450000D01*
X155380851Y-100543320D01*
X155408071Y-100633053D01*
X155452275Y-100715751D01*
X155511763Y-100788237D01*
X155584249Y-100847725D01*
X155666947Y-100891929D01*
X155756680Y-100919149D01*
X155850000Y-100928340D01*
X158350000Y-100928340D01*
X158443320Y-100919149D01*
X158533053Y-100891929D01*
X158615751Y-100847725D01*
X158688237Y-100788237D01*
X158747725Y-100715751D01*
X158791929Y-100633053D01*
X158801349Y-100602000D01*
X159629198Y-100602000D01*
X160425197Y-101398000D01*
X158801349Y-101398000D01*
X158791929Y-101366947D01*
X158747725Y-101284249D01*
X158688237Y-101211763D01*
X158615751Y-101152275D01*
X158533053Y-101108071D01*
X158443320Y-101080851D01*
X158350000Y-101071660D01*
X155850000Y-101071660D01*
X155756680Y-101080851D01*
X155666947Y-101108071D01*
X155584249Y-101152275D01*
X155511763Y-101211763D01*
X155452275Y-101284249D01*
X155408071Y-101366947D01*
X155380851Y-101456680D01*
X155371660Y-101550000D01*
X155371660Y-101950000D01*
X155380851Y-102043320D01*
X155408071Y-102133053D01*
X155452275Y-102215751D01*
X155511763Y-102288237D01*
X155584249Y-102347725D01*
X155666947Y-102391929D01*
X155756680Y-102419149D01*
X155850000Y-102428340D01*
X158350000Y-102428340D01*
X158443320Y-102419149D01*
X158533053Y-102391929D01*
X158615751Y-102347725D01*
X158688237Y-102288237D01*
X158747725Y-102215751D01*
X158791929Y-102133053D01*
X158801349Y-102102000D01*
X160634210Y-102102000D01*
X161430210Y-102898000D01*
X158801349Y-102898000D01*
X158791929Y-102866947D01*
X158747725Y-102784249D01*
X158688237Y-102711763D01*
X158615751Y-102652275D01*
X158533053Y-102608071D01*
X158443320Y-102580851D01*
X158350000Y-102571660D01*
X155850000Y-102571660D01*
X155756680Y-102580851D01*
X155666947Y-102608071D01*
X155584249Y-102652275D01*
X155511763Y-102711763D01*
X155452275Y-102784249D01*
X155408071Y-102866947D01*
X155380851Y-102956680D01*
X155371660Y-103050000D01*
X155371660Y-103450000D01*
X155380851Y-103543320D01*
X155408071Y-103633053D01*
X155452275Y-103715751D01*
X155511763Y-103788237D01*
X155584249Y-103847725D01*
X155666947Y-103891929D01*
X155756680Y-103919149D01*
X155850000Y-103928340D01*
X158350000Y-103928340D01*
X158443320Y-103919149D01*
X158533053Y-103891929D01*
X158615751Y-103847725D01*
X158688237Y-103788237D01*
X158747725Y-103715751D01*
X158791929Y-103633053D01*
X158801349Y-103602000D01*
X161504198Y-103602000D01*
X163222000Y-105319804D01*
X163221436Y-105322636D01*
X162412133Y-104513333D01*
X162401104Y-104499894D01*
X162347505Y-104455907D01*
X162286354Y-104423221D01*
X162220002Y-104403093D01*
X162168290Y-104398000D01*
X162168287Y-104398000D01*
X162150998Y-104396297D01*
X162133709Y-104398000D01*
X158801349Y-104398000D01*
X158791929Y-104366947D01*
X158747725Y-104284249D01*
X158688237Y-104211763D01*
X158615751Y-104152275D01*
X158533053Y-104108071D01*
X158443320Y-104080851D01*
X158350000Y-104071660D01*
X155850000Y-104071660D01*
X155756680Y-104080851D01*
X155666947Y-104108071D01*
X155584249Y-104152275D01*
X155511763Y-104211763D01*
X155452275Y-104284249D01*
X155408071Y-104366947D01*
X155380851Y-104456680D01*
X155371660Y-104550000D01*
X155371660Y-104950000D01*
X155380851Y-105043320D01*
X155408071Y-105133053D01*
X155452275Y-105215751D01*
X155511763Y-105288237D01*
X155584249Y-105347725D01*
X155666947Y-105391929D01*
X155756680Y-105419149D01*
X155850000Y-105428340D01*
X158350000Y-105428340D01*
X158443320Y-105419149D01*
X158533053Y-105391929D01*
X158615751Y-105347725D01*
X158688237Y-105288237D01*
X158747725Y-105215751D01*
X158791929Y-105133053D01*
X158801349Y-105102000D01*
X162005196Y-105102000D01*
X163313000Y-106409805D01*
X163313000Y-106466830D01*
X163335174Y-106578305D01*
X163378669Y-106683312D01*
X163441815Y-106777816D01*
X163522184Y-106858185D01*
X163616688Y-106921331D01*
X163721695Y-106964826D01*
X163833170Y-106987000D01*
X163946830Y-106987000D01*
X164058305Y-106964826D01*
X164163312Y-106921331D01*
X164257816Y-106858185D01*
X164338185Y-106777816D01*
X164401331Y-106683312D01*
X164444826Y-106578305D01*
X164467000Y-106466830D01*
X164467000Y-106353170D01*
X164444826Y-106241695D01*
X164401331Y-106136688D01*
X164338185Y-106042184D01*
X164257816Y-105961815D01*
X164163312Y-105898669D01*
X164112191Y-105877494D01*
X164163105Y-105843474D01*
X164243474Y-105763105D01*
X164306620Y-105668601D01*
X164350115Y-105563594D01*
X164372289Y-105452119D01*
X164372289Y-105338459D01*
X164350115Y-105226984D01*
X164306620Y-105121977D01*
X164243474Y-105027473D01*
X164163105Y-104947104D01*
X164068601Y-104883958D01*
X163963594Y-104840463D01*
X163852119Y-104818289D01*
X163738459Y-104818289D01*
X163719804Y-104822000D01*
X162929813Y-104032010D01*
X166776009Y-104032010D01*
X166812184Y-104068185D01*
X166906688Y-104131331D01*
X167011695Y-104174826D01*
X167123170Y-104197000D01*
X167236830Y-104197000D01*
X167348305Y-104174826D01*
X167453312Y-104131331D01*
X167547816Y-104068185D01*
X167628185Y-103987816D01*
X167691331Y-103893312D01*
X167734826Y-103788305D01*
X167757000Y-103676830D01*
X167757000Y-103563170D01*
X167734826Y-103451695D01*
X167691331Y-103346688D01*
X167628185Y-103252184D01*
X167547816Y-103171815D01*
X167453312Y-103108669D01*
X167437168Y-103101982D01*
X167457816Y-103088185D01*
X167538185Y-103007816D01*
X167601331Y-102913312D01*
X167644826Y-102808305D01*
X167667000Y-102696830D01*
X167667000Y-102583170D01*
X167644826Y-102471695D01*
X167601331Y-102366688D01*
X167538185Y-102272184D01*
X167457816Y-102191815D01*
X167363312Y-102128669D01*
X167258305Y-102085174D01*
X167146830Y-102063000D01*
X167033170Y-102063000D01*
X166921695Y-102085174D01*
X166816688Y-102128669D01*
X166722184Y-102191815D01*
X166641815Y-102272184D01*
X166578669Y-102366688D01*
X166535174Y-102471695D01*
X166513000Y-102583170D01*
X166513000Y-102696830D01*
X166516711Y-102715486D01*
X166254198Y-102978000D01*
X163000804Y-102978000D01*
X160036135Y-100013333D01*
X160025106Y-99999894D01*
X159971507Y-99955907D01*
X159910356Y-99923221D01*
X159844004Y-99903093D01*
X159792292Y-99898000D01*
X159792289Y-99898000D01*
X159775000Y-99896297D01*
X159757711Y-99898000D01*
X158801349Y-99898000D01*
X158791929Y-99866947D01*
X158769265Y-99824545D01*
X170685696Y-99824545D01*
X170689506Y-99849148D01*
X170698044Y-99872534D01*
X170710980Y-99893806D01*
X170727817Y-99912146D01*
X170822817Y-99997146D01*
X170843313Y-100012086D01*
X170865925Y-100022502D01*
X170890135Y-100028307D01*
X170915013Y-100029278D01*
X170939601Y-100025376D01*
X170962957Y-100016752D01*
X170984180Y-100003738D01*
X171002458Y-99986833D01*
X171281951Y-99672129D01*
X175669714Y-99682000D01*
X175696105Y-99679288D01*
X175719851Y-99671807D01*
X175741681Y-99659837D01*
X175760757Y-99643838D01*
X175776344Y-99624426D01*
X175787845Y-99602345D01*
X175794817Y-99578445D01*
X175796993Y-99553644D01*
X175758364Y-95937000D01*
X175760250Y-95937000D01*
X180713000Y-95927250D01*
X180713000Y-100087076D01*
X179617714Y-101173000D01*
X173630000Y-101173000D01*
X173606913Y-101175116D01*
X173582993Y-101182020D01*
X173560880Y-101193457D01*
X173541422Y-101208989D01*
X172606422Y-102118989D01*
X172591659Y-102136179D01*
X172579243Y-102157758D01*
X172571275Y-102181345D01*
X172568062Y-102206033D01*
X172569727Y-102230874D01*
X172576207Y-102254912D01*
X172587251Y-102277225D01*
X172602436Y-102296954D01*
X172912436Y-102626954D01*
X172935813Y-102646499D01*
X172957919Y-102657951D01*
X172981835Y-102664869D01*
X173006641Y-102666989D01*
X173031384Y-102664229D01*
X173055113Y-102656695D01*
X173076916Y-102644676D01*
X173095955Y-102628635D01*
X173315521Y-102403321D01*
X182373000Y-102403321D01*
X182373000Y-102536679D01*
X182399016Y-102667474D01*
X182450050Y-102790680D01*
X182524140Y-102901563D01*
X182618437Y-102995860D01*
X182648001Y-103015614D01*
X182648000Y-103864386D01*
X182618437Y-103884140D01*
X182524140Y-103978437D01*
X182450050Y-104089320D01*
X182399016Y-104212526D01*
X182373000Y-104343321D01*
X182373000Y-104476679D01*
X182399016Y-104607474D01*
X182450050Y-104730680D01*
X182524140Y-104841563D01*
X182618437Y-104935860D01*
X182729320Y-105009950D01*
X182852526Y-105060984D01*
X182983321Y-105087000D01*
X183116679Y-105087000D01*
X183247474Y-105060984D01*
X183370680Y-105009950D01*
X183481563Y-104935860D01*
X183575860Y-104841563D01*
X183649950Y-104730680D01*
X183700984Y-104607474D01*
X183727000Y-104476679D01*
X183727000Y-104343321D01*
X183700984Y-104212526D01*
X183649950Y-104089320D01*
X183575860Y-103978437D01*
X183481563Y-103884140D01*
X183452000Y-103864387D01*
X183452000Y-103015613D01*
X183481563Y-102995860D01*
X183575860Y-102901563D01*
X183649950Y-102790680D01*
X183700984Y-102667474D01*
X183727000Y-102536679D01*
X183727000Y-102403321D01*
X183700984Y-102272526D01*
X183649950Y-102149320D01*
X183575860Y-102038437D01*
X183481563Y-101944140D01*
X183370680Y-101870050D01*
X183247474Y-101819016D01*
X183116679Y-101793000D01*
X182983321Y-101793000D01*
X182852526Y-101819016D01*
X182729320Y-101870050D01*
X182618437Y-101944140D01*
X182524140Y-102038437D01*
X182450050Y-102149320D01*
X182399016Y-102272526D01*
X182373000Y-102403321D01*
X173315521Y-102403321D01*
X174013569Y-101687000D01*
X179750000Y-101687000D01*
X179775257Y-101684463D01*
X179799053Y-101677144D01*
X179820965Y-101665323D01*
X179840149Y-101649455D01*
X180383477Y-101101915D01*
X201868000Y-101101915D01*
X201868000Y-101378085D01*
X201921878Y-101648948D01*
X202027563Y-101904096D01*
X202180995Y-102133723D01*
X202376277Y-102329005D01*
X202605904Y-102482437D01*
X202861052Y-102588122D01*
X203131915Y-102642000D01*
X203408085Y-102642000D01*
X203678948Y-102588122D01*
X203934096Y-102482437D01*
X204163723Y-102329005D01*
X204359005Y-102133723D01*
X204512437Y-101904096D01*
X204618122Y-101648948D01*
X204672000Y-101378085D01*
X204672000Y-101101915D01*
X204618122Y-100831052D01*
X204512437Y-100575904D01*
X204359005Y-100346277D01*
X204163723Y-100150995D01*
X203934096Y-99997563D01*
X203678948Y-99891878D01*
X203408085Y-99838000D01*
X203131915Y-99838000D01*
X202861052Y-99891878D01*
X202605904Y-99997563D01*
X202376277Y-100150995D01*
X202180995Y-100346277D01*
X202027563Y-100575904D01*
X201921878Y-100831052D01*
X201868000Y-101101915D01*
X180383477Y-101101915D01*
X181130149Y-100349455D01*
X181145597Y-100330557D01*
X181157333Y-100308601D01*
X181164560Y-100284776D01*
X181167000Y-100260000D01*
X181167000Y-95550000D01*
X181164560Y-95525224D01*
X181157333Y-95501399D01*
X181145597Y-95479443D01*
X181129803Y-95460197D01*
X181110557Y-95444403D01*
X181088601Y-95432667D01*
X181064776Y-95425440D01*
X181040000Y-95423000D01*
X175430000Y-95423000D01*
X175404974Y-95425490D01*
X175381165Y-95432765D01*
X175359232Y-95444545D01*
X175340018Y-95460377D01*
X175324262Y-95479654D01*
X175312570Y-95501634D01*
X175305391Y-95525473D01*
X175303000Y-95550254D01*
X175310245Y-99173000D01*
X171200000Y-99173000D01*
X171181942Y-99174290D01*
X171157764Y-99180229D01*
X171135210Y-99190770D01*
X171115145Y-99205509D01*
X171098341Y-99223879D01*
X170710841Y-99741379D01*
X170703152Y-99752909D01*
X170692652Y-99775482D01*
X170686758Y-99799671D01*
X170685696Y-99824545D01*
X158769265Y-99824545D01*
X158747725Y-99784249D01*
X158688237Y-99711763D01*
X158615751Y-99652275D01*
X158533053Y-99608071D01*
X158443320Y-99580851D01*
X158350000Y-99571660D01*
X155850000Y-99571660D01*
X155756680Y-99580851D01*
X155666947Y-99608071D01*
X155584249Y-99652275D01*
X155511763Y-99711763D01*
X155452275Y-99784249D01*
X155408071Y-99866947D01*
X155380851Y-99956680D01*
X155371660Y-100050000D01*
X149192000Y-100050000D01*
X149192000Y-95500000D01*
X150221660Y-95500000D01*
X150221660Y-96800000D01*
X150231812Y-96903074D01*
X150261877Y-97002187D01*
X150310701Y-97093530D01*
X150376407Y-97173593D01*
X150456470Y-97239299D01*
X150547813Y-97288123D01*
X150646926Y-97318188D01*
X150750000Y-97328340D01*
X154050000Y-97328340D01*
X154153074Y-97318188D01*
X154252187Y-97288123D01*
X154343530Y-97239299D01*
X154423593Y-97173593D01*
X154489299Y-97093530D01*
X154538123Y-97002187D01*
X154568188Y-96903074D01*
X154578340Y-96800000D01*
X154578340Y-95500000D01*
X154568188Y-95396926D01*
X154538123Y-95297813D01*
X154489299Y-95206470D01*
X154423593Y-95126407D01*
X154343530Y-95060701D01*
X154252187Y-95011877D01*
X154153074Y-94981812D01*
X154050000Y-94971660D01*
X150750000Y-94971660D01*
X150646926Y-94981812D01*
X150547813Y-95011877D01*
X150456470Y-95060701D01*
X150376407Y-95126407D01*
X150310701Y-95206470D01*
X150261877Y-95297813D01*
X150231812Y-95396926D01*
X150221660Y-95500000D01*
X149192000Y-95500000D01*
X149192000Y-92889000D01*
X150383000Y-92889000D01*
X150383000Y-93111000D01*
X150426310Y-93328734D01*
X150511266Y-93533835D01*
X150634602Y-93718421D01*
X150791579Y-93875398D01*
X150976165Y-93998734D01*
X151181266Y-94083690D01*
X151399000Y-94127000D01*
X151621000Y-94127000D01*
X151838734Y-94083690D01*
X152043835Y-93998734D01*
X152228421Y-93875398D01*
X152385398Y-93718421D01*
X152508734Y-93533835D01*
X152593690Y-93328734D01*
X152637000Y-93111000D01*
X152637000Y-92889000D01*
X152923000Y-92889000D01*
X152923000Y-93111000D01*
X152966310Y-93328734D01*
X153051266Y-93533835D01*
X153174602Y-93718421D01*
X153331579Y-93875398D01*
X153516165Y-93998734D01*
X153721266Y-94083690D01*
X153939000Y-94127000D01*
X154161000Y-94127000D01*
X154378734Y-94083690D01*
X154583835Y-93998734D01*
X154768421Y-93875398D01*
X154925398Y-93718421D01*
X155048734Y-93533835D01*
X155133690Y-93328734D01*
X155177000Y-93111000D01*
X155177000Y-92889000D01*
X155463000Y-92889000D01*
X155463000Y-93111000D01*
X155506310Y-93328734D01*
X155591266Y-93533835D01*
X155714602Y-93718421D01*
X155871579Y-93875398D01*
X156056165Y-93998734D01*
X156261266Y-94083690D01*
X156479000Y-94127000D01*
X156701000Y-94127000D01*
X156918734Y-94083690D01*
X157123835Y-93998734D01*
X157308421Y-93875398D01*
X157465398Y-93718421D01*
X157588734Y-93533835D01*
X157673690Y-93328734D01*
X157717000Y-93111000D01*
X157717000Y-92889000D01*
X158003000Y-92889000D01*
X158003000Y-93111000D01*
X158046310Y-93328734D01*
X158131266Y-93533835D01*
X158254602Y-93718421D01*
X158411579Y-93875398D01*
X158596165Y-93998734D01*
X158801266Y-94083690D01*
X159019000Y-94127000D01*
X159241000Y-94127000D01*
X159458734Y-94083690D01*
X159663835Y-93998734D01*
X159848421Y-93875398D01*
X160005398Y-93718421D01*
X160128734Y-93533835D01*
X160213690Y-93328734D01*
X160257000Y-93111000D01*
X160257000Y-92889000D01*
X160543000Y-92889000D01*
X160543000Y-93111000D01*
X160586310Y-93328734D01*
X160671266Y-93533835D01*
X160794602Y-93718421D01*
X160951579Y-93875398D01*
X161136165Y-93998734D01*
X161341266Y-94083690D01*
X161559000Y-94127000D01*
X161781000Y-94127000D01*
X161998734Y-94083690D01*
X162203835Y-93998734D01*
X162388421Y-93875398D01*
X162545398Y-93718421D01*
X162668734Y-93533835D01*
X162753690Y-93328734D01*
X162797000Y-93111000D01*
X162797000Y-92889000D01*
X163083000Y-92889000D01*
X163083000Y-93111000D01*
X163126310Y-93328734D01*
X163211266Y-93533835D01*
X163334602Y-93718421D01*
X163491579Y-93875398D01*
X163676165Y-93998734D01*
X163881266Y-94083690D01*
X164099000Y-94127000D01*
X164321000Y-94127000D01*
X164538734Y-94083690D01*
X164743835Y-93998734D01*
X164928421Y-93875398D01*
X165085398Y-93718421D01*
X165208734Y-93533835D01*
X165293690Y-93328734D01*
X165337000Y-93111000D01*
X165337000Y-92889000D01*
X165623000Y-92889000D01*
X165623000Y-93111000D01*
X165666310Y-93328734D01*
X165751266Y-93533835D01*
X165874602Y-93718421D01*
X166031579Y-93875398D01*
X166216165Y-93998734D01*
X166421266Y-94083690D01*
X166639000Y-94127000D01*
X166861000Y-94127000D01*
X167078734Y-94083690D01*
X167283835Y-93998734D01*
X167468421Y-93875398D01*
X167625398Y-93718421D01*
X167748734Y-93533835D01*
X167833690Y-93328734D01*
X167877000Y-93111000D01*
X167877000Y-92889000D01*
X168163000Y-92889000D01*
X168163000Y-93111000D01*
X168206310Y-93328734D01*
X168291266Y-93533835D01*
X168414602Y-93718421D01*
X168571579Y-93875398D01*
X168756165Y-93998734D01*
X168961266Y-94083690D01*
X169179000Y-94127000D01*
X169401000Y-94127000D01*
X169618734Y-94083690D01*
X169823835Y-93998734D01*
X170008421Y-93875398D01*
X170165398Y-93718421D01*
X170288734Y-93533835D01*
X170373690Y-93328734D01*
X170417000Y-93111000D01*
X170417000Y-92889000D01*
X170703000Y-92889000D01*
X170703000Y-93111000D01*
X170746310Y-93328734D01*
X170831266Y-93533835D01*
X170954602Y-93718421D01*
X171111579Y-93875398D01*
X171296165Y-93998734D01*
X171501266Y-94083690D01*
X171719000Y-94127000D01*
X171941000Y-94127000D01*
X172158734Y-94083690D01*
X172363835Y-93998734D01*
X172548421Y-93875398D01*
X172705398Y-93718421D01*
X172828734Y-93533835D01*
X172913690Y-93328734D01*
X172957000Y-93111000D01*
X172957000Y-92889000D01*
X172913690Y-92671266D01*
X172828734Y-92466165D01*
X172705398Y-92281579D01*
X172573819Y-92150000D01*
X173241660Y-92150000D01*
X173241660Y-93850000D01*
X173247008Y-93904301D01*
X173262847Y-93956516D01*
X173288569Y-94004637D01*
X173323184Y-94046816D01*
X173365363Y-94081431D01*
X173413484Y-94107153D01*
X173465699Y-94122992D01*
X173520000Y-94128340D01*
X175220000Y-94128340D01*
X175274301Y-94122992D01*
X175326516Y-94107153D01*
X175374637Y-94081431D01*
X175416816Y-94046816D01*
X175451431Y-94004637D01*
X175477153Y-93956516D01*
X175492992Y-93904301D01*
X175498340Y-93850000D01*
X175498340Y-92418170D01*
X176798000Y-92418170D01*
X176798000Y-92531830D01*
X176820174Y-92643305D01*
X176863669Y-92748312D01*
X176926815Y-92842816D01*
X177007184Y-92923185D01*
X177101688Y-92986331D01*
X177206695Y-93029826D01*
X177318170Y-93052000D01*
X177431830Y-93052000D01*
X177543305Y-93029826D01*
X177648312Y-92986331D01*
X177737105Y-92927001D01*
X184962895Y-92927001D01*
X185051688Y-92986331D01*
X185156695Y-93029826D01*
X185268170Y-93052000D01*
X185381830Y-93052000D01*
X185493305Y-93029826D01*
X185598312Y-92986331D01*
X185692816Y-92923185D01*
X185773185Y-92842816D01*
X185836331Y-92748312D01*
X185879826Y-92643305D01*
X185902000Y-92531830D01*
X185902000Y-92418170D01*
X185879826Y-92306695D01*
X185836331Y-92201688D01*
X185773185Y-92107184D01*
X185692816Y-92026815D01*
X185598312Y-91963669D01*
X185493305Y-91920174D01*
X185381830Y-91898000D01*
X185268170Y-91898000D01*
X185156695Y-91920174D01*
X185051688Y-91963669D01*
X184957184Y-92026815D01*
X184876815Y-92107184D01*
X184813669Y-92201688D01*
X184804841Y-92223001D01*
X177895159Y-92223001D01*
X177886331Y-92201688D01*
X177823185Y-92107184D01*
X177742816Y-92026815D01*
X177648312Y-91963669D01*
X177543305Y-91920174D01*
X177431830Y-91898000D01*
X177318170Y-91898000D01*
X177206695Y-91920174D01*
X177101688Y-91963669D01*
X177007184Y-92026815D01*
X176926815Y-92107184D01*
X176863669Y-92201688D01*
X176820174Y-92306695D01*
X176798000Y-92418170D01*
X175498340Y-92418170D01*
X175498340Y-92150000D01*
X175492992Y-92095699D01*
X175477153Y-92043484D01*
X175451431Y-91995363D01*
X175416816Y-91953184D01*
X175374637Y-91918569D01*
X175326516Y-91892847D01*
X175274301Y-91877008D01*
X175220000Y-91871660D01*
X173520000Y-91871660D01*
X173465699Y-91877008D01*
X173413484Y-91892847D01*
X173365363Y-91918569D01*
X173323184Y-91953184D01*
X173288569Y-91995363D01*
X173262847Y-92043484D01*
X173247008Y-92095699D01*
X173241660Y-92150000D01*
X172573819Y-92150000D01*
X172548421Y-92124602D01*
X172363835Y-92001266D01*
X172158734Y-91916310D01*
X171941000Y-91873000D01*
X171719000Y-91873000D01*
X171501266Y-91916310D01*
X171296165Y-92001266D01*
X171111579Y-92124602D01*
X170954602Y-92281579D01*
X170831266Y-92466165D01*
X170746310Y-92671266D01*
X170703000Y-92889000D01*
X170417000Y-92889000D01*
X170373690Y-92671266D01*
X170288734Y-92466165D01*
X170165398Y-92281579D01*
X170008421Y-92124602D01*
X169823835Y-92001266D01*
X169618734Y-91916310D01*
X169401000Y-91873000D01*
X169179000Y-91873000D01*
X168961266Y-91916310D01*
X168756165Y-92001266D01*
X168571579Y-92124602D01*
X168414602Y-92281579D01*
X168291266Y-92466165D01*
X168206310Y-92671266D01*
X168163000Y-92889000D01*
X167877000Y-92889000D01*
X167833690Y-92671266D01*
X167748734Y-92466165D01*
X167625398Y-92281579D01*
X167468421Y-92124602D01*
X167283835Y-92001266D01*
X167078734Y-91916310D01*
X166861000Y-91873000D01*
X166639000Y-91873000D01*
X166421266Y-91916310D01*
X166216165Y-92001266D01*
X166031579Y-92124602D01*
X165874602Y-92281579D01*
X165751266Y-92466165D01*
X165666310Y-92671266D01*
X165623000Y-92889000D01*
X165337000Y-92889000D01*
X165293690Y-92671266D01*
X165208734Y-92466165D01*
X165085398Y-92281579D01*
X164928421Y-92124602D01*
X164743835Y-92001266D01*
X164538734Y-91916310D01*
X164321000Y-91873000D01*
X164099000Y-91873000D01*
X163881266Y-91916310D01*
X163676165Y-92001266D01*
X163491579Y-92124602D01*
X163334602Y-92281579D01*
X163211266Y-92466165D01*
X163126310Y-92671266D01*
X163083000Y-92889000D01*
X162797000Y-92889000D01*
X162753690Y-92671266D01*
X162668734Y-92466165D01*
X162545398Y-92281579D01*
X162388421Y-92124602D01*
X162203835Y-92001266D01*
X161998734Y-91916310D01*
X161781000Y-91873000D01*
X161559000Y-91873000D01*
X161341266Y-91916310D01*
X161136165Y-92001266D01*
X160951579Y-92124602D01*
X160794602Y-92281579D01*
X160671266Y-92466165D01*
X160586310Y-92671266D01*
X160543000Y-92889000D01*
X160257000Y-92889000D01*
X160213690Y-92671266D01*
X160128734Y-92466165D01*
X160005398Y-92281579D01*
X159848421Y-92124602D01*
X159663835Y-92001266D01*
X159458734Y-91916310D01*
X159241000Y-91873000D01*
X159019000Y-91873000D01*
X158801266Y-91916310D01*
X158596165Y-92001266D01*
X158411579Y-92124602D01*
X158254602Y-92281579D01*
X158131266Y-92466165D01*
X158046310Y-92671266D01*
X158003000Y-92889000D01*
X157717000Y-92889000D01*
X157673690Y-92671266D01*
X157588734Y-92466165D01*
X157465398Y-92281579D01*
X157308421Y-92124602D01*
X157123835Y-92001266D01*
X156918734Y-91916310D01*
X156701000Y-91873000D01*
X156479000Y-91873000D01*
X156261266Y-91916310D01*
X156056165Y-92001266D01*
X155871579Y-92124602D01*
X155714602Y-92281579D01*
X155591266Y-92466165D01*
X155506310Y-92671266D01*
X155463000Y-92889000D01*
X155177000Y-92889000D01*
X155133690Y-92671266D01*
X155048734Y-92466165D01*
X154925398Y-92281579D01*
X154768421Y-92124602D01*
X154583835Y-92001266D01*
X154378734Y-91916310D01*
X154161000Y-91873000D01*
X153939000Y-91873000D01*
X153721266Y-91916310D01*
X153516165Y-92001266D01*
X153331579Y-92124602D01*
X153174602Y-92281579D01*
X153051266Y-92466165D01*
X152966310Y-92671266D01*
X152923000Y-92889000D01*
X152637000Y-92889000D01*
X152593690Y-92671266D01*
X152508734Y-92466165D01*
X152385398Y-92281579D01*
X152228421Y-92124602D01*
X152043835Y-92001266D01*
X151838734Y-91916310D01*
X151621000Y-91873000D01*
X151399000Y-91873000D01*
X151181266Y-91916310D01*
X150976165Y-92001266D01*
X150791579Y-92124602D01*
X150634602Y-92281579D01*
X150511266Y-92466165D01*
X150426310Y-92671266D01*
X150383000Y-92889000D01*
X149192000Y-92889000D01*
X149192000Y-89650000D01*
X150371660Y-89650000D01*
X150371660Y-91350000D01*
X150377008Y-91404301D01*
X150392847Y-91456516D01*
X150418569Y-91504637D01*
X150453184Y-91546816D01*
X150495363Y-91581431D01*
X150543484Y-91607153D01*
X150595699Y-91622992D01*
X150650000Y-91628340D01*
X152350000Y-91628340D01*
X152404301Y-91622992D01*
X152456516Y-91607153D01*
X152504637Y-91581431D01*
X152546816Y-91546816D01*
X152581431Y-91504637D01*
X152607153Y-91456516D01*
X152622992Y-91404301D01*
X152628340Y-91350000D01*
X152628340Y-90389000D01*
X152913000Y-90389000D01*
X152913000Y-90611000D01*
X152956310Y-90828734D01*
X153041266Y-91033835D01*
X153164602Y-91218421D01*
X153321579Y-91375398D01*
X153506165Y-91498734D01*
X153711266Y-91583690D01*
X153929000Y-91627000D01*
X154151000Y-91627000D01*
X154368734Y-91583690D01*
X154573835Y-91498734D01*
X154758421Y-91375398D01*
X154915398Y-91218421D01*
X155038734Y-91033835D01*
X155123690Y-90828734D01*
X155167000Y-90611000D01*
X155167000Y-90389000D01*
X155453000Y-90389000D01*
X155453000Y-90611000D01*
X155496310Y-90828734D01*
X155581266Y-91033835D01*
X155704602Y-91218421D01*
X155861579Y-91375398D01*
X156046165Y-91498734D01*
X156251266Y-91583690D01*
X156469000Y-91627000D01*
X156691000Y-91627000D01*
X156908734Y-91583690D01*
X157113835Y-91498734D01*
X157298421Y-91375398D01*
X157455398Y-91218421D01*
X157578734Y-91033835D01*
X157663690Y-90828734D01*
X157707000Y-90611000D01*
X157707000Y-90389000D01*
X157993000Y-90389000D01*
X157993000Y-90611000D01*
X158036310Y-90828734D01*
X158121266Y-91033835D01*
X158244602Y-91218421D01*
X158401579Y-91375398D01*
X158586165Y-91498734D01*
X158791266Y-91583690D01*
X159009000Y-91627000D01*
X159231000Y-91627000D01*
X159448734Y-91583690D01*
X159653835Y-91498734D01*
X159838421Y-91375398D01*
X159995398Y-91218421D01*
X160118734Y-91033835D01*
X160203690Y-90828734D01*
X160247000Y-90611000D01*
X160247000Y-90389000D01*
X160533000Y-90389000D01*
X160533000Y-90611000D01*
X160576310Y-90828734D01*
X160661266Y-91033835D01*
X160784602Y-91218421D01*
X160941579Y-91375398D01*
X161126165Y-91498734D01*
X161331266Y-91583690D01*
X161549000Y-91627000D01*
X161771000Y-91627000D01*
X161988734Y-91583690D01*
X162193835Y-91498734D01*
X162378421Y-91375398D01*
X162535398Y-91218421D01*
X162658734Y-91033835D01*
X162743690Y-90828734D01*
X162787000Y-90611000D01*
X162787000Y-90389000D01*
X163073000Y-90389000D01*
X163073000Y-90611000D01*
X163116310Y-90828734D01*
X163201266Y-91033835D01*
X163324602Y-91218421D01*
X163481579Y-91375398D01*
X163666165Y-91498734D01*
X163871266Y-91583690D01*
X164089000Y-91627000D01*
X164311000Y-91627000D01*
X164528734Y-91583690D01*
X164733835Y-91498734D01*
X164918421Y-91375398D01*
X165075398Y-91218421D01*
X165198734Y-91033835D01*
X165283690Y-90828734D01*
X165327000Y-90611000D01*
X165327000Y-90389000D01*
X165613000Y-90389000D01*
X165613000Y-90611000D01*
X165656310Y-90828734D01*
X165741266Y-91033835D01*
X165864602Y-91218421D01*
X166021579Y-91375398D01*
X166206165Y-91498734D01*
X166411266Y-91583690D01*
X166629000Y-91627000D01*
X166851000Y-91627000D01*
X167068734Y-91583690D01*
X167273835Y-91498734D01*
X167458421Y-91375398D01*
X167615398Y-91218421D01*
X167738734Y-91033835D01*
X167823690Y-90828734D01*
X167867000Y-90611000D01*
X167867000Y-90389000D01*
X168153000Y-90389000D01*
X168153000Y-90611000D01*
X168196310Y-90828734D01*
X168281266Y-91033835D01*
X168404602Y-91218421D01*
X168561579Y-91375398D01*
X168746165Y-91498734D01*
X168951266Y-91583690D01*
X169169000Y-91627000D01*
X169391000Y-91627000D01*
X169608734Y-91583690D01*
X169813835Y-91498734D01*
X169998421Y-91375398D01*
X170155398Y-91218421D01*
X170278734Y-91033835D01*
X170363690Y-90828734D01*
X170407000Y-90611000D01*
X170407000Y-90389000D01*
X170693000Y-90389000D01*
X170693000Y-90611000D01*
X170736310Y-90828734D01*
X170821266Y-91033835D01*
X170944602Y-91218421D01*
X171101579Y-91375398D01*
X171286165Y-91498734D01*
X171491266Y-91583690D01*
X171709000Y-91627000D01*
X171931000Y-91627000D01*
X172148734Y-91583690D01*
X172353835Y-91498734D01*
X172538421Y-91375398D01*
X172695398Y-91218421D01*
X172818734Y-91033835D01*
X172903690Y-90828734D01*
X172947000Y-90611000D01*
X172947000Y-90389000D01*
X173233000Y-90389000D01*
X173233000Y-90611000D01*
X173276310Y-90828734D01*
X173361266Y-91033835D01*
X173484602Y-91218421D01*
X173641579Y-91375398D01*
X173826165Y-91498734D01*
X174031266Y-91583690D01*
X174249000Y-91627000D01*
X174471000Y-91627000D01*
X174688734Y-91583690D01*
X174893835Y-91498734D01*
X175078421Y-91375398D01*
X175235398Y-91218421D01*
X175358734Y-91033835D01*
X175443690Y-90828734D01*
X175487000Y-90611000D01*
X175487000Y-90389000D01*
X175443690Y-90171266D01*
X175358734Y-89966165D01*
X175235398Y-89781579D01*
X175078421Y-89624602D01*
X174893835Y-89501266D01*
X174688734Y-89416310D01*
X174471000Y-89373000D01*
X174249000Y-89373000D01*
X174031266Y-89416310D01*
X173826165Y-89501266D01*
X173641579Y-89624602D01*
X173484602Y-89781579D01*
X173361266Y-89966165D01*
X173276310Y-90171266D01*
X173233000Y-90389000D01*
X172947000Y-90389000D01*
X172903690Y-90171266D01*
X172818734Y-89966165D01*
X172695398Y-89781579D01*
X172538421Y-89624602D01*
X172353835Y-89501266D01*
X172148734Y-89416310D01*
X171931000Y-89373000D01*
X171709000Y-89373000D01*
X171491266Y-89416310D01*
X171286165Y-89501266D01*
X171101579Y-89624602D01*
X170944602Y-89781579D01*
X170821266Y-89966165D01*
X170736310Y-90171266D01*
X170693000Y-90389000D01*
X170407000Y-90389000D01*
X170363690Y-90171266D01*
X170278734Y-89966165D01*
X170155398Y-89781579D01*
X169998421Y-89624602D01*
X169813835Y-89501266D01*
X169608734Y-89416310D01*
X169391000Y-89373000D01*
X169169000Y-89373000D01*
X168951266Y-89416310D01*
X168746165Y-89501266D01*
X168561579Y-89624602D01*
X168404602Y-89781579D01*
X168281266Y-89966165D01*
X168196310Y-90171266D01*
X168153000Y-90389000D01*
X167867000Y-90389000D01*
X167823690Y-90171266D01*
X167738734Y-89966165D01*
X167615398Y-89781579D01*
X167458421Y-89624602D01*
X167273835Y-89501266D01*
X167068734Y-89416310D01*
X166851000Y-89373000D01*
X166629000Y-89373000D01*
X166411266Y-89416310D01*
X166206165Y-89501266D01*
X166021579Y-89624602D01*
X165864602Y-89781579D01*
X165741266Y-89966165D01*
X165656310Y-90171266D01*
X165613000Y-90389000D01*
X165327000Y-90389000D01*
X165283690Y-90171266D01*
X165198734Y-89966165D01*
X165075398Y-89781579D01*
X164918421Y-89624602D01*
X164733835Y-89501266D01*
X164528734Y-89416310D01*
X164311000Y-89373000D01*
X164089000Y-89373000D01*
X163871266Y-89416310D01*
X163666165Y-89501266D01*
X163481579Y-89624602D01*
X163324602Y-89781579D01*
X163201266Y-89966165D01*
X163116310Y-90171266D01*
X163073000Y-90389000D01*
X162787000Y-90389000D01*
X162743690Y-90171266D01*
X162658734Y-89966165D01*
X162535398Y-89781579D01*
X162378421Y-89624602D01*
X162193835Y-89501266D01*
X161988734Y-89416310D01*
X161771000Y-89373000D01*
X161549000Y-89373000D01*
X161331266Y-89416310D01*
X161126165Y-89501266D01*
X160941579Y-89624602D01*
X160784602Y-89781579D01*
X160661266Y-89966165D01*
X160576310Y-90171266D01*
X160533000Y-90389000D01*
X160247000Y-90389000D01*
X160203690Y-90171266D01*
X160118734Y-89966165D01*
X159995398Y-89781579D01*
X159838421Y-89624602D01*
X159653835Y-89501266D01*
X159448734Y-89416310D01*
X159231000Y-89373000D01*
X159009000Y-89373000D01*
X158791266Y-89416310D01*
X158586165Y-89501266D01*
X158401579Y-89624602D01*
X158244602Y-89781579D01*
X158121266Y-89966165D01*
X158036310Y-90171266D01*
X157993000Y-90389000D01*
X157707000Y-90389000D01*
X157663690Y-90171266D01*
X157578734Y-89966165D01*
X157455398Y-89781579D01*
X157298421Y-89624602D01*
X157113835Y-89501266D01*
X156908734Y-89416310D01*
X156691000Y-89373000D01*
X156469000Y-89373000D01*
X156251266Y-89416310D01*
X156046165Y-89501266D01*
X155861579Y-89624602D01*
X155704602Y-89781579D01*
X155581266Y-89966165D01*
X155496310Y-90171266D01*
X155453000Y-90389000D01*
X155167000Y-90389000D01*
X155123690Y-90171266D01*
X155038734Y-89966165D01*
X154915398Y-89781579D01*
X154758421Y-89624602D01*
X154573835Y-89501266D01*
X154368734Y-89416310D01*
X154151000Y-89373000D01*
X153929000Y-89373000D01*
X153711266Y-89416310D01*
X153506165Y-89501266D01*
X153321579Y-89624602D01*
X153164602Y-89781579D01*
X153041266Y-89966165D01*
X152956310Y-90171266D01*
X152913000Y-90389000D01*
X152628340Y-90389000D01*
X152628340Y-89650000D01*
X152622992Y-89595699D01*
X152607153Y-89543484D01*
X152581431Y-89495363D01*
X152546816Y-89453184D01*
X152504637Y-89418569D01*
X152456516Y-89392847D01*
X152404301Y-89377008D01*
X152350000Y-89371660D01*
X150650000Y-89371660D01*
X150595699Y-89377008D01*
X150543484Y-89392847D01*
X150495363Y-89418569D01*
X150453184Y-89453184D01*
X150418569Y-89495363D01*
X150392847Y-89543484D01*
X150377008Y-89595699D01*
X150371660Y-89650000D01*
X149192000Y-89650000D01*
X149192000Y-86242657D01*
X199238000Y-86351344D01*
G37*
X199238000Y-86351344D02*
X199238001Y-96994972D01*
X199236540Y-97009618D01*
X199238001Y-97024647D01*
X199238001Y-97024833D01*
X199239399Y-97039024D01*
X199242296Y-97068827D01*
X199242352Y-97069014D01*
X199242371Y-97069202D01*
X199250801Y-97096990D01*
X199259493Y-97125775D01*
X199259585Y-97125948D01*
X199259640Y-97126129D01*
X199273346Y-97151772D01*
X199287469Y-97178276D01*
X199287593Y-97178427D01*
X199287682Y-97178594D01*
X199306192Y-97201148D01*
X199325151Y-97224308D01*
X199325301Y-97224431D01*
X199325422Y-97224579D01*
X199348264Y-97243326D01*
X199371089Y-97262106D01*
X199371258Y-97262196D01*
X199371407Y-97262319D01*
X199397557Y-97276296D01*
X199423518Y-97290214D01*
X199423702Y-97290270D01*
X199423872Y-97290361D01*
X199452282Y-97298979D01*
X199480424Y-97307555D01*
X199480614Y-97307574D01*
X199480799Y-97307630D01*
X199510328Y-97310539D01*
X199524787Y-97311981D01*
X199524976Y-97311981D01*
X199540000Y-97313461D01*
X199554645Y-97312019D01*
X207178354Y-97321620D01*
X207187646Y-105238000D01*
X199374975Y-105238000D01*
X199360284Y-105236539D01*
X199345308Y-105238000D01*
X199345167Y-105238000D01*
X199330422Y-105239452D01*
X199301078Y-105242315D01*
X199300943Y-105242356D01*
X199300798Y-105242370D01*
X199272111Y-105251072D01*
X199244135Y-105259530D01*
X199244009Y-105259597D01*
X199243871Y-105259639D01*
X199217567Y-105273698D01*
X199191643Y-105287523D01*
X199191533Y-105287613D01*
X199191406Y-105287681D01*
X199168220Y-105306710D01*
X199145623Y-105325220D01*
X199145534Y-105325328D01*
X199145421Y-105325421D01*
X199126332Y-105348680D01*
X199107840Y-105371169D01*
X199107773Y-105371294D01*
X199107681Y-105371406D01*
X199093403Y-105398120D01*
X199079749Y-105423608D01*
X199079709Y-105423741D01*
X199079639Y-105423871D01*
X199070855Y-105452829D01*
X199062426Y-105480519D01*
X199062412Y-105480659D01*
X199062370Y-105480798D01*
X199059383Y-105511123D01*
X199058015Y-105524884D01*
X199058015Y-105525015D01*
X199056539Y-105540000D01*
X199057987Y-105554702D01*
X199048015Y-116175018D01*
X199048000Y-116175168D01*
X199048000Y-116190704D01*
X199047987Y-116204549D01*
X199048000Y-116204682D01*
X199048000Y-116287880D01*
X149192000Y-116268121D01*
X149192000Y-114190000D01*
X149351660Y-114190000D01*
X149351660Y-115890000D01*
X149357008Y-115944301D01*
X149372847Y-115996516D01*
X149398569Y-116044637D01*
X149433184Y-116086816D01*
X149475363Y-116121431D01*
X149523484Y-116147153D01*
X149575699Y-116162992D01*
X149630000Y-116168340D01*
X151330000Y-116168340D01*
X151384301Y-116162992D01*
X151436516Y-116147153D01*
X151484637Y-116121431D01*
X151526816Y-116086816D01*
X151561431Y-116044637D01*
X151587153Y-115996516D01*
X151602992Y-115944301D01*
X151608340Y-115890000D01*
X151608340Y-114929000D01*
X151893000Y-114929000D01*
X151893000Y-115151000D01*
X151936310Y-115368734D01*
X152021266Y-115573835D01*
X152144602Y-115758421D01*
X152301579Y-115915398D01*
X152486165Y-116038734D01*
X152691266Y-116123690D01*
X152909000Y-116167000D01*
X153131000Y-116167000D01*
X153348734Y-116123690D01*
X153553835Y-116038734D01*
X153738421Y-115915398D01*
X153895398Y-115758421D01*
X154018734Y-115573835D01*
X154103690Y-115368734D01*
X154147000Y-115151000D01*
X154147000Y-114929000D01*
X154433000Y-114929000D01*
X154433000Y-115151000D01*
X154476310Y-115368734D01*
X154561266Y-115573835D01*
X154684602Y-115758421D01*
X154841579Y-115915398D01*
X155026165Y-116038734D01*
X155231266Y-116123690D01*
X155449000Y-116167000D01*
X155671000Y-116167000D01*
X155888734Y-116123690D01*
X156093835Y-116038734D01*
X156278421Y-115915398D01*
X156435398Y-115758421D01*
X156558734Y-115573835D01*
X156643690Y-115368734D01*
X156687000Y-115151000D01*
X156687000Y-114929000D01*
X156643690Y-114711266D01*
X156558734Y-114506165D01*
X156435398Y-114321579D01*
X156278421Y-114164602D01*
X156093835Y-114041266D01*
X155888734Y-113956310D01*
X155671000Y-113913000D01*
X155449000Y-113913000D01*
X155231266Y-113956310D01*
X155026165Y-114041266D01*
X154841579Y-114164602D01*
X154684602Y-114321579D01*
X154561266Y-114506165D01*
X154476310Y-114711266D01*
X154433000Y-114929000D01*
X154147000Y-114929000D01*
X154103690Y-114711266D01*
X154018734Y-114506165D01*
X153895398Y-114321579D01*
X153738421Y-114164602D01*
X153553835Y-114041266D01*
X153348734Y-113956310D01*
X153131000Y-113913000D01*
X152909000Y-113913000D01*
X152691266Y-113956310D01*
X152486165Y-114041266D01*
X152301579Y-114164602D01*
X152144602Y-114321579D01*
X152021266Y-114506165D01*
X151936310Y-114711266D01*
X151893000Y-114929000D01*
X151608340Y-114929000D01*
X151608340Y-114788330D01*
X153216771Y-113179900D01*
X161630101Y-113179900D01*
X161630100Y-114108772D01*
X161531579Y-114174602D01*
X161374602Y-114331579D01*
X161251266Y-114516165D01*
X161166310Y-114721266D01*
X161123000Y-114939000D01*
X161123000Y-115161000D01*
X161166310Y-115378734D01*
X161251266Y-115583835D01*
X161374602Y-115768421D01*
X161531579Y-115925398D01*
X161716165Y-116048734D01*
X161921266Y-116133690D01*
X162139000Y-116177000D01*
X162361000Y-116177000D01*
X162578734Y-116133690D01*
X162783835Y-116048734D01*
X162968421Y-115925398D01*
X163125398Y-115768421D01*
X163248734Y-115583835D01*
X163333690Y-115378734D01*
X163377000Y-115161000D01*
X163377000Y-114939000D01*
X163663000Y-114939000D01*
X163663000Y-115161000D01*
X163706310Y-115378734D01*
X163791266Y-115583835D01*
X163914602Y-115768421D01*
X164071579Y-115925398D01*
X164256165Y-116048734D01*
X164461266Y-116133690D01*
X164679000Y-116177000D01*
X164901000Y-116177000D01*
X165118734Y-116133690D01*
X165323835Y-116048734D01*
X165508421Y-115925398D01*
X165665398Y-115768421D01*
X165788734Y-115583835D01*
X165873690Y-115378734D01*
X165917000Y-115161000D01*
X165917000Y-114939000D01*
X165873690Y-114721266D01*
X165788734Y-114516165D01*
X165665398Y-114331579D01*
X165508421Y-114174602D01*
X165323835Y-114051266D01*
X165118734Y-113966310D01*
X164901000Y-113923000D01*
X164679000Y-113923000D01*
X164461266Y-113966310D01*
X164256165Y-114051266D01*
X164071579Y-114174602D01*
X163914602Y-114331579D01*
X163791266Y-114516165D01*
X163706310Y-114721266D01*
X163663000Y-114939000D01*
X163377000Y-114939000D01*
X163333690Y-114721266D01*
X163248734Y-114516165D01*
X163125398Y-114331579D01*
X162968421Y-114174602D01*
X162869900Y-114108773D01*
X162869900Y-113179900D01*
X168479559Y-113179900D01*
X168510000Y-113182898D01*
X168540441Y-113179900D01*
X168540449Y-113179900D01*
X168631522Y-113170930D01*
X168748373Y-113135484D01*
X168856064Y-113077922D01*
X168950456Y-113000456D01*
X168969870Y-112976800D01*
X169205636Y-112741034D01*
X169280680Y-112709950D01*
X169391563Y-112635860D01*
X169485860Y-112541563D01*
X169559950Y-112430680D01*
X169610984Y-112307474D01*
X169612428Y-112300215D01*
X169635170Y-112257667D01*
X172391000Y-112257667D01*
X172391000Y-112462333D01*
X172430928Y-112663065D01*
X172509250Y-112852151D01*
X172622956Y-113022324D01*
X172767676Y-113167044D01*
X172937849Y-113280750D01*
X173126935Y-113359072D01*
X173327667Y-113399000D01*
X173532333Y-113399000D01*
X173733065Y-113359072D01*
X173922151Y-113280750D01*
X174092324Y-113167044D01*
X174115002Y-113144366D01*
X174115002Y-113717195D01*
X173873217Y-113958981D01*
X173733065Y-113900928D01*
X173532333Y-113861000D01*
X173327667Y-113861000D01*
X173126935Y-113900928D01*
X172937849Y-113979250D01*
X172767676Y-114092956D01*
X172622956Y-114237676D01*
X172509250Y-114407849D01*
X172430928Y-114596935D01*
X172391000Y-114797667D01*
X172391000Y-115002333D01*
X172430928Y-115203065D01*
X172509250Y-115392151D01*
X172622956Y-115562324D01*
X172767676Y-115707044D01*
X172937849Y-115820750D01*
X173126935Y-115899072D01*
X173327667Y-115939000D01*
X173532333Y-115939000D01*
X173733065Y-115899072D01*
X173922151Y-115820750D01*
X174092324Y-115707044D01*
X174237044Y-115562324D01*
X174350750Y-115392151D01*
X174429072Y-115203065D01*
X174469000Y-115002333D01*
X174469000Y-114797667D01*
X174429072Y-114596935D01*
X174371019Y-114456783D01*
X174700000Y-114127803D01*
X175028981Y-114456783D01*
X174970928Y-114596935D01*
X174931000Y-114797667D01*
X174931000Y-115002333D01*
X174970928Y-115203065D01*
X175049250Y-115392151D01*
X175162956Y-115562324D01*
X175307676Y-115707044D01*
X175477849Y-115820750D01*
X175666935Y-115899072D01*
X175867667Y-115939000D01*
X176072333Y-115939000D01*
X176273065Y-115899072D01*
X176462151Y-115820750D01*
X176632324Y-115707044D01*
X176777044Y-115562324D01*
X176890750Y-115392151D01*
X176969072Y-115203065D01*
X177009000Y-115002333D01*
X177009000Y-114797667D01*
X176969072Y-114596935D01*
X176890750Y-114407849D01*
X176777044Y-114237676D01*
X176632324Y-114092956D01*
X176462151Y-113979250D01*
X176273065Y-113900928D01*
X176072333Y-113861000D01*
X175867667Y-113861000D01*
X175666935Y-113900928D01*
X175526783Y-113958981D01*
X175284999Y-113717197D01*
X175284999Y-113144367D01*
X175307676Y-113167044D01*
X175477849Y-113280750D01*
X175666935Y-113359072D01*
X175867667Y-113399000D01*
X176072333Y-113399000D01*
X176273065Y-113359072D01*
X176462151Y-113280750D01*
X176632324Y-113167044D01*
X176777044Y-113022324D01*
X176890750Y-112852151D01*
X176969072Y-112663065D01*
X177009000Y-112462333D01*
X177009000Y-112362041D01*
X177120999Y-112474040D01*
X177121000Y-113845700D01*
X177119296Y-113862999D01*
X177123032Y-113900928D01*
X177126093Y-113932003D01*
X177144652Y-113993184D01*
X177146221Y-113998355D01*
X177178906Y-114059506D01*
X177198585Y-114083484D01*
X177222894Y-114113105D01*
X177236327Y-114124129D01*
X177568981Y-114456783D01*
X177510928Y-114596935D01*
X177471000Y-114797667D01*
X177471000Y-115002333D01*
X177510928Y-115203065D01*
X177589250Y-115392151D01*
X177702956Y-115562324D01*
X177847676Y-115707044D01*
X178017849Y-115820750D01*
X178206935Y-115899072D01*
X178407667Y-115939000D01*
X178612333Y-115939000D01*
X178813065Y-115899072D01*
X179002151Y-115820750D01*
X179172324Y-115707044D01*
X179317044Y-115562324D01*
X179430750Y-115392151D01*
X179509072Y-115203065D01*
X179549000Y-115002333D01*
X179549000Y-114797667D01*
X180011000Y-114797667D01*
X180011000Y-115002333D01*
X180050928Y-115203065D01*
X180129250Y-115392151D01*
X180242956Y-115562324D01*
X180387676Y-115707044D01*
X180557849Y-115820750D01*
X180746935Y-115899072D01*
X180947667Y-115939000D01*
X181152333Y-115939000D01*
X181353065Y-115899072D01*
X181542151Y-115820750D01*
X181712324Y-115707044D01*
X181857044Y-115562324D01*
X181970750Y-115392151D01*
X182049072Y-115203065D01*
X182089000Y-115002333D01*
X182089000Y-114797667D01*
X182049072Y-114596935D01*
X181970750Y-114407849D01*
X181857044Y-114237676D01*
X181712324Y-114092956D01*
X181542151Y-113979250D01*
X181353065Y-113900928D01*
X181152333Y-113861000D01*
X180947667Y-113861000D01*
X180746935Y-113900928D01*
X180557849Y-113979250D01*
X180387676Y-114092956D01*
X180242956Y-114237676D01*
X180129250Y-114407849D01*
X180050928Y-114596935D01*
X180011000Y-114797667D01*
X179549000Y-114797667D01*
X179509072Y-114596935D01*
X179430750Y-114407849D01*
X179317044Y-114237676D01*
X179172324Y-114092956D01*
X179002151Y-113979250D01*
X178813065Y-113900928D01*
X178612333Y-113861000D01*
X178407667Y-113861000D01*
X178206935Y-113900928D01*
X178066783Y-113958981D01*
X177824999Y-113717197D01*
X177824999Y-113144367D01*
X177847676Y-113167044D01*
X178017849Y-113280750D01*
X178206935Y-113359072D01*
X178407667Y-113399000D01*
X178612333Y-113399000D01*
X178813065Y-113359072D01*
X179002151Y-113280750D01*
X179172324Y-113167044D01*
X179317044Y-113022324D01*
X179430750Y-112852151D01*
X179509072Y-112663065D01*
X179549000Y-112462333D01*
X179549000Y-112257667D01*
X179509072Y-112056935D01*
X179430750Y-111867849D01*
X179317044Y-111697676D01*
X179172324Y-111552956D01*
X179002151Y-111439250D01*
X178857514Y-111379339D01*
X184513002Y-111379339D01*
X184515409Y-111404621D01*
X184522607Y-111428454D01*
X184534315Y-111450426D01*
X184550085Y-111469690D01*
X184569311Y-111485508D01*
X184591253Y-111497272D01*
X184615068Y-111504529D01*
X184639841Y-111507000D01*
X192649841Y-111517000D01*
X192674776Y-111514560D01*
X192698601Y-111507333D01*
X192720557Y-111495597D01*
X192739803Y-111479803D01*
X192755597Y-111460557D01*
X192767333Y-111438601D01*
X192774560Y-111414776D01*
X192777000Y-111390000D01*
X192777000Y-106110000D01*
X192774560Y-106085224D01*
X192767333Y-106061399D01*
X192755597Y-106039443D01*
X192739803Y-106020197D01*
X192720557Y-106004403D01*
X192698601Y-105992667D01*
X192674776Y-105985440D01*
X192650000Y-105983000D01*
X190907000Y-105983000D01*
X190907000Y-104670000D01*
X190905642Y-104651475D01*
X190899613Y-104627319D01*
X190888988Y-104604804D01*
X190874175Y-104584794D01*
X190855743Y-104568059D01*
X190834399Y-104555241D01*
X190810966Y-104546833D01*
X190786342Y-104543158D01*
X190586342Y-104533158D01*
X190579016Y-104533004D01*
X189417000Y-104542012D01*
X189417000Y-102830000D01*
X189415707Y-102811922D01*
X189409765Y-102787745D01*
X189399220Y-102765192D01*
X189384478Y-102745130D01*
X189366105Y-102728329D01*
X189344808Y-102715435D01*
X189321404Y-102706944D01*
X189296794Y-102703182D01*
X189068540Y-102690954D01*
X189060557Y-102684403D01*
X189038601Y-102672667D01*
X189014776Y-102665440D01*
X188990000Y-102663000D01*
X186710000Y-102663000D01*
X186685059Y-102665473D01*
X186661244Y-102672732D01*
X186639303Y-102684497D01*
X186620079Y-102700316D01*
X186604310Y-102719582D01*
X186592603Y-102741554D01*
X186585408Y-102765388D01*
X186583000Y-102790168D01*
X186587832Y-106453000D01*
X184665000Y-106453000D01*
X184640873Y-106455313D01*
X184617011Y-106462416D01*
X184594994Y-106474037D01*
X184575666Y-106489731D01*
X184559772Y-106508894D01*
X184547922Y-106530789D01*
X184540571Y-106554575D01*
X184538002Y-106579339D01*
X184513002Y-111379339D01*
X178857514Y-111379339D01*
X178813065Y-111360928D01*
X178612333Y-111321000D01*
X178407667Y-111321000D01*
X178206935Y-111360928D01*
X178017849Y-111439250D01*
X177847676Y-111552956D01*
X177769093Y-111631539D01*
X177212010Y-111074458D01*
X177212010Y-107073388D01*
X177234826Y-107018305D01*
X177257000Y-106906830D01*
X177257000Y-106793170D01*
X177234826Y-106681695D01*
X177191331Y-106576688D01*
X177128185Y-106482184D01*
X177047816Y-106401815D01*
X176953312Y-106338669D01*
X176848305Y-106295174D01*
X176736830Y-106273000D01*
X176623170Y-106273000D01*
X176511695Y-106295174D01*
X176406688Y-106338669D01*
X176312184Y-106401815D01*
X176231815Y-106482184D01*
X176168669Y-106576688D01*
X176125174Y-106681695D01*
X176103000Y-106793170D01*
X176103000Y-106906830D01*
X176107004Y-106926959D01*
X176036830Y-106913000D01*
X175923170Y-106913000D01*
X175811695Y-106935174D01*
X175706688Y-106978669D01*
X175612184Y-107041815D01*
X175531815Y-107122184D01*
X175468669Y-107216688D01*
X175425174Y-107321695D01*
X175403000Y-107433170D01*
X175403000Y-107546830D01*
X175405757Y-107560689D01*
X175316830Y-107543000D01*
X175203170Y-107543000D01*
X175091695Y-107565174D01*
X174986688Y-107608669D01*
X174892184Y-107671815D01*
X174811815Y-107752184D01*
X174748669Y-107846688D01*
X174705174Y-107951695D01*
X174683000Y-108063170D01*
X174683000Y-108176830D01*
X174696666Y-108245532D01*
X174696327Y-108245871D01*
X174682894Y-108256895D01*
X174671871Y-108270327D01*
X174638906Y-108310494D01*
X174608459Y-108367458D01*
X174542816Y-108301815D01*
X174448312Y-108238669D01*
X174343305Y-108195174D01*
X174231830Y-108173000D01*
X174118170Y-108173000D01*
X174006695Y-108195174D01*
X173901688Y-108238669D01*
X173807184Y-108301815D01*
X173726815Y-108382184D01*
X173663669Y-108476688D01*
X173620174Y-108581695D01*
X173598000Y-108693170D01*
X173598000Y-108734197D01*
X173193328Y-109138870D01*
X173179894Y-109149895D01*
X173168872Y-109163326D01*
X173135907Y-109203493D01*
X173121207Y-109230996D01*
X173103221Y-109264645D01*
X173083093Y-109330997D01*
X173080549Y-109356830D01*
X173076297Y-109400000D01*
X173078000Y-109417289D01*
X173078001Y-111381197D01*
X172937849Y-111439250D01*
X172767676Y-111552956D01*
X172622956Y-111697676D01*
X172509250Y-111867849D01*
X172430928Y-112056935D01*
X172391000Y-112257667D01*
X169635170Y-112257667D01*
X169645483Y-112238373D01*
X169680930Y-112121522D01*
X169692898Y-112000001D01*
X169680930Y-111878479D01*
X169645483Y-111761627D01*
X169587921Y-111653937D01*
X169510455Y-111559545D01*
X169416063Y-111482079D01*
X169308373Y-111424517D01*
X169191521Y-111389070D01*
X169069999Y-111377102D01*
X168948478Y-111389070D01*
X168831627Y-111424517D01*
X168769785Y-111457572D01*
X168762526Y-111459016D01*
X168639320Y-111510050D01*
X168528437Y-111584140D01*
X168434140Y-111678437D01*
X168360050Y-111789320D01*
X168328966Y-111864364D01*
X168253230Y-111940100D01*
X162210441Y-111940100D01*
X162180000Y-111937102D01*
X162149559Y-111940100D01*
X152990449Y-111940100D01*
X152960000Y-111937101D01*
X152838478Y-111949070D01*
X152721626Y-111984516D01*
X152679373Y-112007101D01*
X152613936Y-112042078D01*
X152519544Y-112119544D01*
X152500134Y-112143195D01*
X150731670Y-113911660D01*
X149630000Y-113911660D01*
X149575699Y-113917008D01*
X149523484Y-113932847D01*
X149475363Y-113958569D01*
X149433184Y-113993184D01*
X149398569Y-114035363D01*
X149372847Y-114083484D01*
X149357008Y-114135699D01*
X149351660Y-114190000D01*
X149192000Y-114190000D01*
X149192000Y-108200000D01*
X150221660Y-108200000D01*
X150221660Y-109500000D01*
X150231812Y-109603074D01*
X150261877Y-109702187D01*
X150310701Y-109793530D01*
X150376407Y-109873593D01*
X150456470Y-109939299D01*
X150547813Y-109988123D01*
X150646926Y-110018188D01*
X150750000Y-110028340D01*
X154050000Y-110028340D01*
X154153074Y-110018188D01*
X154252187Y-109988123D01*
X154343530Y-109939299D01*
X154423593Y-109873593D01*
X154489299Y-109793530D01*
X154538123Y-109702187D01*
X154568188Y-109603074D01*
X154578340Y-109500000D01*
X154578340Y-108200000D01*
X154568188Y-108096926D01*
X154538123Y-107997813D01*
X154489299Y-107906470D01*
X154423593Y-107826407D01*
X154343530Y-107760701D01*
X154252187Y-107711877D01*
X154153074Y-107681812D01*
X154050000Y-107671660D01*
X150750000Y-107671660D01*
X150646926Y-107681812D01*
X150547813Y-107711877D01*
X150456470Y-107760701D01*
X150376407Y-107826407D01*
X150310701Y-107906470D01*
X150261877Y-107997813D01*
X150231812Y-108096926D01*
X150221660Y-108200000D01*
X149192000Y-108200000D01*
X149192000Y-106050000D01*
X155371660Y-106050000D01*
X155371660Y-106450000D01*
X155380851Y-106543320D01*
X155408071Y-106633053D01*
X155452275Y-106715751D01*
X155511763Y-106788237D01*
X155584249Y-106847725D01*
X155666947Y-106891929D01*
X155756680Y-106919149D01*
X155850000Y-106928340D01*
X158350000Y-106928340D01*
X158443320Y-106919149D01*
X158533053Y-106891929D01*
X158615751Y-106847725D01*
X158688237Y-106788237D01*
X158747725Y-106715751D01*
X158791929Y-106633053D01*
X158819149Y-106543320D01*
X158828340Y-106450000D01*
X158828340Y-106050000D01*
X158819149Y-105956680D01*
X158791929Y-105866947D01*
X158747725Y-105784249D01*
X158688237Y-105711763D01*
X158615751Y-105652275D01*
X158533053Y-105608071D01*
X158443320Y-105580851D01*
X158350000Y-105571660D01*
X156420217Y-105571660D01*
X156376679Y-105563000D01*
X156243321Y-105563000D01*
X156199783Y-105571660D01*
X155850000Y-105571660D01*
X155756680Y-105580851D01*
X155666947Y-105608071D01*
X155584249Y-105652275D01*
X155511763Y-105711763D01*
X155452275Y-105784249D01*
X155408071Y-105866947D01*
X155380851Y-105956680D01*
X155371660Y-106050000D01*
X149192000Y-106050000D01*
X149192000Y-100050000D01*
X155371660Y-100050000D01*
X155371660Y-100450000D01*
X155380851Y-100543320D01*
X155408071Y-100633053D01*
X155452275Y-100715751D01*
X155511763Y-100788237D01*
X155584249Y-100847725D01*
X155666947Y-100891929D01*
X155756680Y-100919149D01*
X155850000Y-100928340D01*
X158350000Y-100928340D01*
X158443320Y-100919149D01*
X158533053Y-100891929D01*
X158615751Y-100847725D01*
X158688237Y-100788237D01*
X158747725Y-100715751D01*
X158791929Y-100633053D01*
X158801349Y-100602000D01*
X159629198Y-100602000D01*
X160425197Y-101398000D01*
X158801349Y-101398000D01*
X158791929Y-101366947D01*
X158747725Y-101284249D01*
X158688237Y-101211763D01*
X158615751Y-101152275D01*
X158533053Y-101108071D01*
X158443320Y-101080851D01*
X158350000Y-101071660D01*
X155850000Y-101071660D01*
X155756680Y-101080851D01*
X155666947Y-101108071D01*
X155584249Y-101152275D01*
X155511763Y-101211763D01*
X155452275Y-101284249D01*
X155408071Y-101366947D01*
X155380851Y-101456680D01*
X155371660Y-101550000D01*
X155371660Y-101950000D01*
X155380851Y-102043320D01*
X155408071Y-102133053D01*
X155452275Y-102215751D01*
X155511763Y-102288237D01*
X155584249Y-102347725D01*
X155666947Y-102391929D01*
X155756680Y-102419149D01*
X155850000Y-102428340D01*
X158350000Y-102428340D01*
X158443320Y-102419149D01*
X158533053Y-102391929D01*
X158615751Y-102347725D01*
X158688237Y-102288237D01*
X158747725Y-102215751D01*
X158791929Y-102133053D01*
X158801349Y-102102000D01*
X160634210Y-102102000D01*
X161430210Y-102898000D01*
X158801349Y-102898000D01*
X158791929Y-102866947D01*
X158747725Y-102784249D01*
X158688237Y-102711763D01*
X158615751Y-102652275D01*
X158533053Y-102608071D01*
X158443320Y-102580851D01*
X158350000Y-102571660D01*
X155850000Y-102571660D01*
X155756680Y-102580851D01*
X155666947Y-102608071D01*
X155584249Y-102652275D01*
X155511763Y-102711763D01*
X155452275Y-102784249D01*
X155408071Y-102866947D01*
X155380851Y-102956680D01*
X155371660Y-103050000D01*
X155371660Y-103450000D01*
X155380851Y-103543320D01*
X155408071Y-103633053D01*
X155452275Y-103715751D01*
X155511763Y-103788237D01*
X155584249Y-103847725D01*
X155666947Y-103891929D01*
X155756680Y-103919149D01*
X155850000Y-103928340D01*
X158350000Y-103928340D01*
X158443320Y-103919149D01*
X158533053Y-103891929D01*
X158615751Y-103847725D01*
X158688237Y-103788237D01*
X158747725Y-103715751D01*
X158791929Y-103633053D01*
X158801349Y-103602000D01*
X161504198Y-103602000D01*
X163222000Y-105319804D01*
X163221436Y-105322636D01*
X162412133Y-104513333D01*
X162401104Y-104499894D01*
X162347505Y-104455907D01*
X162286354Y-104423221D01*
X162220002Y-104403093D01*
X162168290Y-104398000D01*
X162168287Y-104398000D01*
X162150998Y-104396297D01*
X162133709Y-104398000D01*
X158801349Y-104398000D01*
X158791929Y-104366947D01*
X158747725Y-104284249D01*
X158688237Y-104211763D01*
X158615751Y-104152275D01*
X158533053Y-104108071D01*
X158443320Y-104080851D01*
X158350000Y-104071660D01*
X155850000Y-104071660D01*
X155756680Y-104080851D01*
X155666947Y-104108071D01*
X155584249Y-104152275D01*
X155511763Y-104211763D01*
X155452275Y-104284249D01*
X155408071Y-104366947D01*
X155380851Y-104456680D01*
X155371660Y-104550000D01*
X155371660Y-104950000D01*
X155380851Y-105043320D01*
X155408071Y-105133053D01*
X155452275Y-105215751D01*
X155511763Y-105288237D01*
X155584249Y-105347725D01*
X155666947Y-105391929D01*
X155756680Y-105419149D01*
X155850000Y-105428340D01*
X158350000Y-105428340D01*
X158443320Y-105419149D01*
X158533053Y-105391929D01*
X158615751Y-105347725D01*
X158688237Y-105288237D01*
X158747725Y-105215751D01*
X158791929Y-105133053D01*
X158801349Y-105102000D01*
X162005196Y-105102000D01*
X163313000Y-106409805D01*
X163313000Y-106466830D01*
X163335174Y-106578305D01*
X163378669Y-106683312D01*
X163441815Y-106777816D01*
X163522184Y-106858185D01*
X163616688Y-106921331D01*
X163721695Y-106964826D01*
X163833170Y-106987000D01*
X163946830Y-106987000D01*
X164058305Y-106964826D01*
X164163312Y-106921331D01*
X164257816Y-106858185D01*
X164338185Y-106777816D01*
X164401331Y-106683312D01*
X164444826Y-106578305D01*
X164467000Y-106466830D01*
X164467000Y-106353170D01*
X164444826Y-106241695D01*
X164401331Y-106136688D01*
X164338185Y-106042184D01*
X164257816Y-105961815D01*
X164163312Y-105898669D01*
X164112191Y-105877494D01*
X164163105Y-105843474D01*
X164243474Y-105763105D01*
X164306620Y-105668601D01*
X164350115Y-105563594D01*
X164372289Y-105452119D01*
X164372289Y-105338459D01*
X164350115Y-105226984D01*
X164306620Y-105121977D01*
X164243474Y-105027473D01*
X164163105Y-104947104D01*
X164068601Y-104883958D01*
X163963594Y-104840463D01*
X163852119Y-104818289D01*
X163738459Y-104818289D01*
X163719804Y-104822000D01*
X162929813Y-104032010D01*
X166776009Y-104032010D01*
X166812184Y-104068185D01*
X166906688Y-104131331D01*
X167011695Y-104174826D01*
X167123170Y-104197000D01*
X167236830Y-104197000D01*
X167348305Y-104174826D01*
X167453312Y-104131331D01*
X167547816Y-104068185D01*
X167628185Y-103987816D01*
X167691331Y-103893312D01*
X167734826Y-103788305D01*
X167757000Y-103676830D01*
X167757000Y-103563170D01*
X167734826Y-103451695D01*
X167691331Y-103346688D01*
X167628185Y-103252184D01*
X167547816Y-103171815D01*
X167453312Y-103108669D01*
X167437168Y-103101982D01*
X167457816Y-103088185D01*
X167538185Y-103007816D01*
X167601331Y-102913312D01*
X167644826Y-102808305D01*
X167667000Y-102696830D01*
X167667000Y-102583170D01*
X167644826Y-102471695D01*
X167601331Y-102366688D01*
X167538185Y-102272184D01*
X167457816Y-102191815D01*
X167363312Y-102128669D01*
X167258305Y-102085174D01*
X167146830Y-102063000D01*
X167033170Y-102063000D01*
X166921695Y-102085174D01*
X166816688Y-102128669D01*
X166722184Y-102191815D01*
X166641815Y-102272184D01*
X166578669Y-102366688D01*
X166535174Y-102471695D01*
X166513000Y-102583170D01*
X166513000Y-102696830D01*
X166516711Y-102715486D01*
X166254198Y-102978000D01*
X163000804Y-102978000D01*
X160036135Y-100013333D01*
X160025106Y-99999894D01*
X159971507Y-99955907D01*
X159910356Y-99923221D01*
X159844004Y-99903093D01*
X159792292Y-99898000D01*
X159792289Y-99898000D01*
X159775000Y-99896297D01*
X159757711Y-99898000D01*
X158801349Y-99898000D01*
X158791929Y-99866947D01*
X158769265Y-99824545D01*
X170685696Y-99824545D01*
X170689506Y-99849148D01*
X170698044Y-99872534D01*
X170710980Y-99893806D01*
X170727817Y-99912146D01*
X170822817Y-99997146D01*
X170843313Y-100012086D01*
X170865925Y-100022502D01*
X170890135Y-100028307D01*
X170915013Y-100029278D01*
X170939601Y-100025376D01*
X170962957Y-100016752D01*
X170984180Y-100003738D01*
X171002458Y-99986833D01*
X171281951Y-99672129D01*
X175669714Y-99682000D01*
X175696105Y-99679288D01*
X175719851Y-99671807D01*
X175741681Y-99659837D01*
X175760757Y-99643838D01*
X175776344Y-99624426D01*
X175787845Y-99602345D01*
X175794817Y-99578445D01*
X175796993Y-99553644D01*
X175758364Y-95937000D01*
X175760250Y-95937000D01*
X180713000Y-95927250D01*
X180713000Y-100087076D01*
X179617714Y-101173000D01*
X173630000Y-101173000D01*
X173606913Y-101175116D01*
X173582993Y-101182020D01*
X173560880Y-101193457D01*
X173541422Y-101208989D01*
X172606422Y-102118989D01*
X172591659Y-102136179D01*
X172579243Y-102157758D01*
X172571275Y-102181345D01*
X172568062Y-102206033D01*
X172569727Y-102230874D01*
X172576207Y-102254912D01*
X172587251Y-102277225D01*
X172602436Y-102296954D01*
X172912436Y-102626954D01*
X172935813Y-102646499D01*
X172957919Y-102657951D01*
X172981835Y-102664869D01*
X173006641Y-102666989D01*
X173031384Y-102664229D01*
X173055113Y-102656695D01*
X173076916Y-102644676D01*
X173095955Y-102628635D01*
X173315521Y-102403321D01*
X182373000Y-102403321D01*
X182373000Y-102536679D01*
X182399016Y-102667474D01*
X182450050Y-102790680D01*
X182524140Y-102901563D01*
X182618437Y-102995860D01*
X182648001Y-103015614D01*
X182648000Y-103864386D01*
X182618437Y-103884140D01*
X182524140Y-103978437D01*
X182450050Y-104089320D01*
X182399016Y-104212526D01*
X182373000Y-104343321D01*
X182373000Y-104476679D01*
X182399016Y-104607474D01*
X182450050Y-104730680D01*
X182524140Y-104841563D01*
X182618437Y-104935860D01*
X182729320Y-105009950D01*
X182852526Y-105060984D01*
X182983321Y-105087000D01*
X183116679Y-105087000D01*
X183247474Y-105060984D01*
X183370680Y-105009950D01*
X183481563Y-104935860D01*
X183575860Y-104841563D01*
X183649950Y-104730680D01*
X183700984Y-104607474D01*
X183727000Y-104476679D01*
X183727000Y-104343321D01*
X183700984Y-104212526D01*
X183649950Y-104089320D01*
X183575860Y-103978437D01*
X183481563Y-103884140D01*
X183452000Y-103864387D01*
X183452000Y-103015613D01*
X183481563Y-102995860D01*
X183575860Y-102901563D01*
X183649950Y-102790680D01*
X183700984Y-102667474D01*
X183727000Y-102536679D01*
X183727000Y-102403321D01*
X183700984Y-102272526D01*
X183649950Y-102149320D01*
X183575860Y-102038437D01*
X183481563Y-101944140D01*
X183370680Y-101870050D01*
X183247474Y-101819016D01*
X183116679Y-101793000D01*
X182983321Y-101793000D01*
X182852526Y-101819016D01*
X182729320Y-101870050D01*
X182618437Y-101944140D01*
X182524140Y-102038437D01*
X182450050Y-102149320D01*
X182399016Y-102272526D01*
X182373000Y-102403321D01*
X173315521Y-102403321D01*
X174013569Y-101687000D01*
X179750000Y-101687000D01*
X179775257Y-101684463D01*
X179799053Y-101677144D01*
X179820965Y-101665323D01*
X179840149Y-101649455D01*
X180383477Y-101101915D01*
X201868000Y-101101915D01*
X201868000Y-101378085D01*
X201921878Y-101648948D01*
X202027563Y-101904096D01*
X202180995Y-102133723D01*
X202376277Y-102329005D01*
X202605904Y-102482437D01*
X202861052Y-102588122D01*
X203131915Y-102642000D01*
X203408085Y-102642000D01*
X203678948Y-102588122D01*
X203934096Y-102482437D01*
X204163723Y-102329005D01*
X204359005Y-102133723D01*
X204512437Y-101904096D01*
X204618122Y-101648948D01*
X204672000Y-101378085D01*
X204672000Y-101101915D01*
X204618122Y-100831052D01*
X204512437Y-100575904D01*
X204359005Y-100346277D01*
X204163723Y-100150995D01*
X203934096Y-99997563D01*
X203678948Y-99891878D01*
X203408085Y-99838000D01*
X203131915Y-99838000D01*
X202861052Y-99891878D01*
X202605904Y-99997563D01*
X202376277Y-100150995D01*
X202180995Y-100346277D01*
X202027563Y-100575904D01*
X201921878Y-100831052D01*
X201868000Y-101101915D01*
X180383477Y-101101915D01*
X181130149Y-100349455D01*
X181145597Y-100330557D01*
X181157333Y-100308601D01*
X181164560Y-100284776D01*
X181167000Y-100260000D01*
X181167000Y-95550000D01*
X181164560Y-95525224D01*
X181157333Y-95501399D01*
X181145597Y-95479443D01*
X181129803Y-95460197D01*
X181110557Y-95444403D01*
X181088601Y-95432667D01*
X181064776Y-95425440D01*
X181040000Y-95423000D01*
X175430000Y-95423000D01*
X175404974Y-95425490D01*
X175381165Y-95432765D01*
X175359232Y-95444545D01*
X175340018Y-95460377D01*
X175324262Y-95479654D01*
X175312570Y-95501634D01*
X175305391Y-95525473D01*
X175303000Y-95550254D01*
X175310245Y-99173000D01*
X171200000Y-99173000D01*
X171181942Y-99174290D01*
X171157764Y-99180229D01*
X171135210Y-99190770D01*
X171115145Y-99205509D01*
X171098341Y-99223879D01*
X170710841Y-99741379D01*
X170703152Y-99752909D01*
X170692652Y-99775482D01*
X170686758Y-99799671D01*
X170685696Y-99824545D01*
X158769265Y-99824545D01*
X158747725Y-99784249D01*
X158688237Y-99711763D01*
X158615751Y-99652275D01*
X158533053Y-99608071D01*
X158443320Y-99580851D01*
X158350000Y-99571660D01*
X155850000Y-99571660D01*
X155756680Y-99580851D01*
X155666947Y-99608071D01*
X155584249Y-99652275D01*
X155511763Y-99711763D01*
X155452275Y-99784249D01*
X155408071Y-99866947D01*
X155380851Y-99956680D01*
X155371660Y-100050000D01*
X149192000Y-100050000D01*
X149192000Y-95500000D01*
X150221660Y-95500000D01*
X150221660Y-96800000D01*
X150231812Y-96903074D01*
X150261877Y-97002187D01*
X150310701Y-97093530D01*
X150376407Y-97173593D01*
X150456470Y-97239299D01*
X150547813Y-97288123D01*
X150646926Y-97318188D01*
X150750000Y-97328340D01*
X154050000Y-97328340D01*
X154153074Y-97318188D01*
X154252187Y-97288123D01*
X154343530Y-97239299D01*
X154423593Y-97173593D01*
X154489299Y-97093530D01*
X154538123Y-97002187D01*
X154568188Y-96903074D01*
X154578340Y-96800000D01*
X154578340Y-95500000D01*
X154568188Y-95396926D01*
X154538123Y-95297813D01*
X154489299Y-95206470D01*
X154423593Y-95126407D01*
X154343530Y-95060701D01*
X154252187Y-95011877D01*
X154153074Y-94981812D01*
X154050000Y-94971660D01*
X150750000Y-94971660D01*
X150646926Y-94981812D01*
X150547813Y-95011877D01*
X150456470Y-95060701D01*
X150376407Y-95126407D01*
X150310701Y-95206470D01*
X150261877Y-95297813D01*
X150231812Y-95396926D01*
X150221660Y-95500000D01*
X149192000Y-95500000D01*
X149192000Y-92889000D01*
X150383000Y-92889000D01*
X150383000Y-93111000D01*
X150426310Y-93328734D01*
X150511266Y-93533835D01*
X150634602Y-93718421D01*
X150791579Y-93875398D01*
X150976165Y-93998734D01*
X151181266Y-94083690D01*
X151399000Y-94127000D01*
X151621000Y-94127000D01*
X151838734Y-94083690D01*
X152043835Y-93998734D01*
X152228421Y-93875398D01*
X152385398Y-93718421D01*
X152508734Y-93533835D01*
X152593690Y-93328734D01*
X152637000Y-93111000D01*
X152637000Y-92889000D01*
X152923000Y-92889000D01*
X152923000Y-93111000D01*
X152966310Y-93328734D01*
X153051266Y-93533835D01*
X153174602Y-93718421D01*
X153331579Y-93875398D01*
X153516165Y-93998734D01*
X153721266Y-94083690D01*
X153939000Y-94127000D01*
X154161000Y-94127000D01*
X154378734Y-94083690D01*
X154583835Y-93998734D01*
X154768421Y-93875398D01*
X154925398Y-93718421D01*
X155048734Y-93533835D01*
X155133690Y-93328734D01*
X155177000Y-93111000D01*
X155177000Y-92889000D01*
X155463000Y-92889000D01*
X155463000Y-93111000D01*
X155506310Y-93328734D01*
X155591266Y-93533835D01*
X155714602Y-93718421D01*
X155871579Y-93875398D01*
X156056165Y-93998734D01*
X156261266Y-94083690D01*
X156479000Y-94127000D01*
X156701000Y-94127000D01*
X156918734Y-94083690D01*
X157123835Y-93998734D01*
X157308421Y-93875398D01*
X157465398Y-93718421D01*
X157588734Y-93533835D01*
X157673690Y-93328734D01*
X157717000Y-93111000D01*
X157717000Y-92889000D01*
X158003000Y-92889000D01*
X158003000Y-93111000D01*
X158046310Y-93328734D01*
X158131266Y-93533835D01*
X158254602Y-93718421D01*
X158411579Y-93875398D01*
X158596165Y-93998734D01*
X158801266Y-94083690D01*
X159019000Y-94127000D01*
X159241000Y-94127000D01*
X159458734Y-94083690D01*
X159663835Y-93998734D01*
X159848421Y-93875398D01*
X160005398Y-93718421D01*
X160128734Y-93533835D01*
X160213690Y-93328734D01*
X160257000Y-93111000D01*
X160257000Y-92889000D01*
X160543000Y-92889000D01*
X160543000Y-93111000D01*
X160586310Y-93328734D01*
X160671266Y-93533835D01*
X160794602Y-93718421D01*
X160951579Y-93875398D01*
X161136165Y-93998734D01*
X161341266Y-94083690D01*
X161559000Y-94127000D01*
X161781000Y-94127000D01*
X161998734Y-94083690D01*
X162203835Y-93998734D01*
X162388421Y-93875398D01*
X162545398Y-93718421D01*
X162668734Y-93533835D01*
X162753690Y-93328734D01*
X162797000Y-93111000D01*
X162797000Y-92889000D01*
X163083000Y-92889000D01*
X163083000Y-93111000D01*
X163126310Y-93328734D01*
X163211266Y-93533835D01*
X163334602Y-93718421D01*
X163491579Y-93875398D01*
X163676165Y-93998734D01*
X163881266Y-94083690D01*
X164099000Y-94127000D01*
X164321000Y-94127000D01*
X164538734Y-94083690D01*
X164743835Y-93998734D01*
X164928421Y-93875398D01*
X165085398Y-93718421D01*
X165208734Y-93533835D01*
X165293690Y-93328734D01*
X165337000Y-93111000D01*
X165337000Y-92889000D01*
X165623000Y-92889000D01*
X165623000Y-93111000D01*
X165666310Y-93328734D01*
X165751266Y-93533835D01*
X165874602Y-93718421D01*
X166031579Y-93875398D01*
X166216165Y-93998734D01*
X166421266Y-94083690D01*
X166639000Y-94127000D01*
X166861000Y-94127000D01*
X167078734Y-94083690D01*
X167283835Y-93998734D01*
X167468421Y-93875398D01*
X167625398Y-93718421D01*
X167748734Y-93533835D01*
X167833690Y-93328734D01*
X167877000Y-93111000D01*
X167877000Y-92889000D01*
X168163000Y-92889000D01*
X168163000Y-93111000D01*
X168206310Y-93328734D01*
X168291266Y-93533835D01*
X168414602Y-93718421D01*
X168571579Y-93875398D01*
X168756165Y-93998734D01*
X168961266Y-94083690D01*
X169179000Y-94127000D01*
X169401000Y-94127000D01*
X169618734Y-94083690D01*
X169823835Y-93998734D01*
X170008421Y-93875398D01*
X170165398Y-93718421D01*
X170288734Y-93533835D01*
X170373690Y-93328734D01*
X170417000Y-93111000D01*
X170417000Y-92889000D01*
X170703000Y-92889000D01*
X170703000Y-93111000D01*
X170746310Y-93328734D01*
X170831266Y-93533835D01*
X170954602Y-93718421D01*
X171111579Y-93875398D01*
X171296165Y-93998734D01*
X171501266Y-94083690D01*
X171719000Y-94127000D01*
X171941000Y-94127000D01*
X172158734Y-94083690D01*
X172363835Y-93998734D01*
X172548421Y-93875398D01*
X172705398Y-93718421D01*
X172828734Y-93533835D01*
X172913690Y-93328734D01*
X172957000Y-93111000D01*
X172957000Y-92889000D01*
X172913690Y-92671266D01*
X172828734Y-92466165D01*
X172705398Y-92281579D01*
X172573819Y-92150000D01*
X173241660Y-92150000D01*
X173241660Y-93850000D01*
X173247008Y-93904301D01*
X173262847Y-93956516D01*
X173288569Y-94004637D01*
X173323184Y-94046816D01*
X173365363Y-94081431D01*
X173413484Y-94107153D01*
X173465699Y-94122992D01*
X173520000Y-94128340D01*
X175220000Y-94128340D01*
X175274301Y-94122992D01*
X175326516Y-94107153D01*
X175374637Y-94081431D01*
X175416816Y-94046816D01*
X175451431Y-94004637D01*
X175477153Y-93956516D01*
X175492992Y-93904301D01*
X175498340Y-93850000D01*
X175498340Y-92418170D01*
X176798000Y-92418170D01*
X176798000Y-92531830D01*
X176820174Y-92643305D01*
X176863669Y-92748312D01*
X176926815Y-92842816D01*
X177007184Y-92923185D01*
X177101688Y-92986331D01*
X177206695Y-93029826D01*
X177318170Y-93052000D01*
X177431830Y-93052000D01*
X177543305Y-93029826D01*
X177648312Y-92986331D01*
X177737105Y-92927001D01*
X184962895Y-92927001D01*
X185051688Y-92986331D01*
X185156695Y-93029826D01*
X185268170Y-93052000D01*
X185381830Y-93052000D01*
X185493305Y-93029826D01*
X185598312Y-92986331D01*
X185692816Y-92923185D01*
X185773185Y-92842816D01*
X185836331Y-92748312D01*
X185879826Y-92643305D01*
X185902000Y-92531830D01*
X185902000Y-92418170D01*
X185879826Y-92306695D01*
X185836331Y-92201688D01*
X185773185Y-92107184D01*
X185692816Y-92026815D01*
X185598312Y-91963669D01*
X185493305Y-91920174D01*
X185381830Y-91898000D01*
X185268170Y-91898000D01*
X185156695Y-91920174D01*
X185051688Y-91963669D01*
X184957184Y-92026815D01*
X184876815Y-92107184D01*
X184813669Y-92201688D01*
X184804841Y-92223001D01*
X177895159Y-92223001D01*
X177886331Y-92201688D01*
X177823185Y-92107184D01*
X177742816Y-92026815D01*
X177648312Y-91963669D01*
X177543305Y-91920174D01*
X177431830Y-91898000D01*
X177318170Y-91898000D01*
X177206695Y-91920174D01*
X177101688Y-91963669D01*
X177007184Y-92026815D01*
X176926815Y-92107184D01*
X176863669Y-92201688D01*
X176820174Y-92306695D01*
X176798000Y-92418170D01*
X175498340Y-92418170D01*
X175498340Y-92150000D01*
X175492992Y-92095699D01*
X175477153Y-92043484D01*
X175451431Y-91995363D01*
X175416816Y-91953184D01*
X175374637Y-91918569D01*
X175326516Y-91892847D01*
X175274301Y-91877008D01*
X175220000Y-91871660D01*
X173520000Y-91871660D01*
X173465699Y-91877008D01*
X173413484Y-91892847D01*
X173365363Y-91918569D01*
X173323184Y-91953184D01*
X173288569Y-91995363D01*
X173262847Y-92043484D01*
X173247008Y-92095699D01*
X173241660Y-92150000D01*
X172573819Y-92150000D01*
X172548421Y-92124602D01*
X172363835Y-92001266D01*
X172158734Y-91916310D01*
X171941000Y-91873000D01*
X171719000Y-91873000D01*
X171501266Y-91916310D01*
X171296165Y-92001266D01*
X171111579Y-92124602D01*
X170954602Y-92281579D01*
X170831266Y-92466165D01*
X170746310Y-92671266D01*
X170703000Y-92889000D01*
X170417000Y-92889000D01*
X170373690Y-92671266D01*
X170288734Y-92466165D01*
X170165398Y-92281579D01*
X170008421Y-92124602D01*
X169823835Y-92001266D01*
X169618734Y-91916310D01*
X169401000Y-91873000D01*
X169179000Y-91873000D01*
X168961266Y-91916310D01*
X168756165Y-92001266D01*
X168571579Y-92124602D01*
X168414602Y-92281579D01*
X168291266Y-92466165D01*
X168206310Y-92671266D01*
X168163000Y-92889000D01*
X167877000Y-92889000D01*
X167833690Y-92671266D01*
X167748734Y-92466165D01*
X167625398Y-92281579D01*
X167468421Y-92124602D01*
X167283835Y-92001266D01*
X167078734Y-91916310D01*
X166861000Y-91873000D01*
X166639000Y-91873000D01*
X166421266Y-91916310D01*
X166216165Y-92001266D01*
X166031579Y-92124602D01*
X165874602Y-92281579D01*
X165751266Y-92466165D01*
X165666310Y-92671266D01*
X165623000Y-92889000D01*
X165337000Y-92889000D01*
X165293690Y-92671266D01*
X165208734Y-92466165D01*
X165085398Y-92281579D01*
X164928421Y-92124602D01*
X164743835Y-92001266D01*
X164538734Y-91916310D01*
X164321000Y-91873000D01*
X164099000Y-91873000D01*
X163881266Y-91916310D01*
X163676165Y-92001266D01*
X163491579Y-92124602D01*
X163334602Y-92281579D01*
X163211266Y-92466165D01*
X163126310Y-92671266D01*
X163083000Y-92889000D01*
X162797000Y-92889000D01*
X162753690Y-92671266D01*
X162668734Y-92466165D01*
X162545398Y-92281579D01*
X162388421Y-92124602D01*
X162203835Y-92001266D01*
X161998734Y-91916310D01*
X161781000Y-91873000D01*
X161559000Y-91873000D01*
X161341266Y-91916310D01*
X161136165Y-92001266D01*
X160951579Y-92124602D01*
X160794602Y-92281579D01*
X160671266Y-92466165D01*
X160586310Y-92671266D01*
X160543000Y-92889000D01*
X160257000Y-92889000D01*
X160213690Y-92671266D01*
X160128734Y-92466165D01*
X160005398Y-92281579D01*
X159848421Y-92124602D01*
X159663835Y-92001266D01*
X159458734Y-91916310D01*
X159241000Y-91873000D01*
X159019000Y-91873000D01*
X158801266Y-91916310D01*
X158596165Y-92001266D01*
X158411579Y-92124602D01*
X158254602Y-92281579D01*
X158131266Y-92466165D01*
X158046310Y-92671266D01*
X158003000Y-92889000D01*
X157717000Y-92889000D01*
X157673690Y-92671266D01*
X157588734Y-92466165D01*
X157465398Y-92281579D01*
X157308421Y-92124602D01*
X157123835Y-92001266D01*
X156918734Y-91916310D01*
X156701000Y-91873000D01*
X156479000Y-91873000D01*
X156261266Y-91916310D01*
X156056165Y-92001266D01*
X155871579Y-92124602D01*
X155714602Y-92281579D01*
X155591266Y-92466165D01*
X155506310Y-92671266D01*
X155463000Y-92889000D01*
X155177000Y-92889000D01*
X155133690Y-92671266D01*
X155048734Y-92466165D01*
X154925398Y-92281579D01*
X154768421Y-92124602D01*
X154583835Y-92001266D01*
X154378734Y-91916310D01*
X154161000Y-91873000D01*
X153939000Y-91873000D01*
X153721266Y-91916310D01*
X153516165Y-92001266D01*
X153331579Y-92124602D01*
X153174602Y-92281579D01*
X153051266Y-92466165D01*
X152966310Y-92671266D01*
X152923000Y-92889000D01*
X152637000Y-92889000D01*
X152593690Y-92671266D01*
X152508734Y-92466165D01*
X152385398Y-92281579D01*
X152228421Y-92124602D01*
X152043835Y-92001266D01*
X151838734Y-91916310D01*
X151621000Y-91873000D01*
X151399000Y-91873000D01*
X151181266Y-91916310D01*
X150976165Y-92001266D01*
X150791579Y-92124602D01*
X150634602Y-92281579D01*
X150511266Y-92466165D01*
X150426310Y-92671266D01*
X150383000Y-92889000D01*
X149192000Y-92889000D01*
X149192000Y-89650000D01*
X150371660Y-89650000D01*
X150371660Y-91350000D01*
X150377008Y-91404301D01*
X150392847Y-91456516D01*
X150418569Y-91504637D01*
X150453184Y-91546816D01*
X150495363Y-91581431D01*
X150543484Y-91607153D01*
X150595699Y-91622992D01*
X150650000Y-91628340D01*
X152350000Y-91628340D01*
X152404301Y-91622992D01*
X152456516Y-91607153D01*
X152504637Y-91581431D01*
X152546816Y-91546816D01*
X152581431Y-91504637D01*
X152607153Y-91456516D01*
X152622992Y-91404301D01*
X152628340Y-91350000D01*
X152628340Y-90389000D01*
X152913000Y-90389000D01*
X152913000Y-90611000D01*
X152956310Y-90828734D01*
X153041266Y-91033835D01*
X153164602Y-91218421D01*
X153321579Y-91375398D01*
X153506165Y-91498734D01*
X153711266Y-91583690D01*
X153929000Y-91627000D01*
X154151000Y-91627000D01*
X154368734Y-91583690D01*
X154573835Y-91498734D01*
X154758421Y-91375398D01*
X154915398Y-91218421D01*
X155038734Y-91033835D01*
X155123690Y-90828734D01*
X155167000Y-90611000D01*
X155167000Y-90389000D01*
X155453000Y-90389000D01*
X155453000Y-90611000D01*
X155496310Y-90828734D01*
X155581266Y-91033835D01*
X155704602Y-91218421D01*
X155861579Y-91375398D01*
X156046165Y-91498734D01*
X156251266Y-91583690D01*
X156469000Y-91627000D01*
X156691000Y-91627000D01*
X156908734Y-91583690D01*
X157113835Y-91498734D01*
X157298421Y-91375398D01*
X157455398Y-91218421D01*
X157578734Y-91033835D01*
X157663690Y-90828734D01*
X157707000Y-90611000D01*
X157707000Y-90389000D01*
X157993000Y-90389000D01*
X157993000Y-90611000D01*
X158036310Y-90828734D01*
X158121266Y-91033835D01*
X158244602Y-91218421D01*
X158401579Y-91375398D01*
X158586165Y-91498734D01*
X158791266Y-91583690D01*
X159009000Y-91627000D01*
X159231000Y-91627000D01*
X159448734Y-91583690D01*
X159653835Y-91498734D01*
X159838421Y-91375398D01*
X159995398Y-91218421D01*
X160118734Y-91033835D01*
X160203690Y-90828734D01*
X160247000Y-90611000D01*
X160247000Y-90389000D01*
X160533000Y-90389000D01*
X160533000Y-90611000D01*
X160576310Y-90828734D01*
X160661266Y-91033835D01*
X160784602Y-91218421D01*
X160941579Y-91375398D01*
X161126165Y-91498734D01*
X161331266Y-91583690D01*
X161549000Y-91627000D01*
X161771000Y-91627000D01*
X161988734Y-91583690D01*
X162193835Y-91498734D01*
X162378421Y-91375398D01*
X162535398Y-91218421D01*
X162658734Y-91033835D01*
X162743690Y-90828734D01*
X162787000Y-90611000D01*
X162787000Y-90389000D01*
X163073000Y-90389000D01*
X163073000Y-90611000D01*
X163116310Y-90828734D01*
X163201266Y-91033835D01*
X163324602Y-91218421D01*
X163481579Y-91375398D01*
X163666165Y-91498734D01*
X163871266Y-91583690D01*
X164089000Y-91627000D01*
X164311000Y-91627000D01*
X164528734Y-91583690D01*
X164733835Y-91498734D01*
X164918421Y-91375398D01*
X165075398Y-91218421D01*
X165198734Y-91033835D01*
X165283690Y-90828734D01*
X165327000Y-90611000D01*
X165327000Y-90389000D01*
X165613000Y-90389000D01*
X165613000Y-90611000D01*
X165656310Y-90828734D01*
X165741266Y-91033835D01*
X165864602Y-91218421D01*
X166021579Y-91375398D01*
X166206165Y-91498734D01*
X166411266Y-91583690D01*
X166629000Y-91627000D01*
X166851000Y-91627000D01*
X167068734Y-91583690D01*
X167273835Y-91498734D01*
X167458421Y-91375398D01*
X167615398Y-91218421D01*
X167738734Y-91033835D01*
X167823690Y-90828734D01*
X167867000Y-90611000D01*
X167867000Y-90389000D01*
X168153000Y-90389000D01*
X168153000Y-90611000D01*
X168196310Y-90828734D01*
X168281266Y-91033835D01*
X168404602Y-91218421D01*
X168561579Y-91375398D01*
X168746165Y-91498734D01*
X168951266Y-91583690D01*
X169169000Y-91627000D01*
X169391000Y-91627000D01*
X169608734Y-91583690D01*
X169813835Y-91498734D01*
X169998421Y-91375398D01*
X170155398Y-91218421D01*
X170278734Y-91033835D01*
X170363690Y-90828734D01*
X170407000Y-90611000D01*
X170407000Y-90389000D01*
X170693000Y-90389000D01*
X170693000Y-90611000D01*
X170736310Y-90828734D01*
X170821266Y-91033835D01*
X170944602Y-91218421D01*
X171101579Y-91375398D01*
X171286165Y-91498734D01*
X171491266Y-91583690D01*
X171709000Y-91627000D01*
X171931000Y-91627000D01*
X172148734Y-91583690D01*
X172353835Y-91498734D01*
X172538421Y-91375398D01*
X172695398Y-91218421D01*
X172818734Y-91033835D01*
X172903690Y-90828734D01*
X172947000Y-90611000D01*
X172947000Y-90389000D01*
X173233000Y-90389000D01*
X173233000Y-90611000D01*
X173276310Y-90828734D01*
X173361266Y-91033835D01*
X173484602Y-91218421D01*
X173641579Y-91375398D01*
X173826165Y-91498734D01*
X174031266Y-91583690D01*
X174249000Y-91627000D01*
X174471000Y-91627000D01*
X174688734Y-91583690D01*
X174893835Y-91498734D01*
X175078421Y-91375398D01*
X175235398Y-91218421D01*
X175358734Y-91033835D01*
X175443690Y-90828734D01*
X175487000Y-90611000D01*
X175487000Y-90389000D01*
X175443690Y-90171266D01*
X175358734Y-89966165D01*
X175235398Y-89781579D01*
X175078421Y-89624602D01*
X174893835Y-89501266D01*
X174688734Y-89416310D01*
X174471000Y-89373000D01*
X174249000Y-89373000D01*
X174031266Y-89416310D01*
X173826165Y-89501266D01*
X173641579Y-89624602D01*
X173484602Y-89781579D01*
X173361266Y-89966165D01*
X173276310Y-90171266D01*
X173233000Y-90389000D01*
X172947000Y-90389000D01*
X172903690Y-90171266D01*
X172818734Y-89966165D01*
X172695398Y-89781579D01*
X172538421Y-89624602D01*
X172353835Y-89501266D01*
X172148734Y-89416310D01*
X171931000Y-89373000D01*
X171709000Y-89373000D01*
X171491266Y-89416310D01*
X171286165Y-89501266D01*
X171101579Y-89624602D01*
X170944602Y-89781579D01*
X170821266Y-89966165D01*
X170736310Y-90171266D01*
X170693000Y-90389000D01*
X170407000Y-90389000D01*
X170363690Y-90171266D01*
X170278734Y-89966165D01*
X170155398Y-89781579D01*
X169998421Y-89624602D01*
X169813835Y-89501266D01*
X169608734Y-89416310D01*
X169391000Y-89373000D01*
X169169000Y-89373000D01*
X168951266Y-89416310D01*
X168746165Y-89501266D01*
X168561579Y-89624602D01*
X168404602Y-89781579D01*
X168281266Y-89966165D01*
X168196310Y-90171266D01*
X168153000Y-90389000D01*
X167867000Y-90389000D01*
X167823690Y-90171266D01*
X167738734Y-89966165D01*
X167615398Y-89781579D01*
X167458421Y-89624602D01*
X167273835Y-89501266D01*
X167068734Y-89416310D01*
X166851000Y-89373000D01*
X166629000Y-89373000D01*
X166411266Y-89416310D01*
X166206165Y-89501266D01*
X166021579Y-89624602D01*
X165864602Y-89781579D01*
X165741266Y-89966165D01*
X165656310Y-90171266D01*
X165613000Y-90389000D01*
X165327000Y-90389000D01*
X165283690Y-90171266D01*
X165198734Y-89966165D01*
X165075398Y-89781579D01*
X164918421Y-89624602D01*
X164733835Y-89501266D01*
X164528734Y-89416310D01*
X164311000Y-89373000D01*
X164089000Y-89373000D01*
X163871266Y-89416310D01*
X163666165Y-89501266D01*
X163481579Y-89624602D01*
X163324602Y-89781579D01*
X163201266Y-89966165D01*
X163116310Y-90171266D01*
X163073000Y-90389000D01*
X162787000Y-90389000D01*
X162743690Y-90171266D01*
X162658734Y-89966165D01*
X162535398Y-89781579D01*
X162378421Y-89624602D01*
X162193835Y-89501266D01*
X161988734Y-89416310D01*
X161771000Y-89373000D01*
X161549000Y-89373000D01*
X161331266Y-89416310D01*
X161126165Y-89501266D01*
X160941579Y-89624602D01*
X160784602Y-89781579D01*
X160661266Y-89966165D01*
X160576310Y-90171266D01*
X160533000Y-90389000D01*
X160247000Y-90389000D01*
X160203690Y-90171266D01*
X160118734Y-89966165D01*
X159995398Y-89781579D01*
X159838421Y-89624602D01*
X159653835Y-89501266D01*
X159448734Y-89416310D01*
X159231000Y-89373000D01*
X159009000Y-89373000D01*
X158791266Y-89416310D01*
X158586165Y-89501266D01*
X158401579Y-89624602D01*
X158244602Y-89781579D01*
X158121266Y-89966165D01*
X158036310Y-90171266D01*
X157993000Y-90389000D01*
X157707000Y-90389000D01*
X157663690Y-90171266D01*
X157578734Y-89966165D01*
X157455398Y-89781579D01*
X157298421Y-89624602D01*
X157113835Y-89501266D01*
X156908734Y-89416310D01*
X156691000Y-89373000D01*
X156469000Y-89373000D01*
X156251266Y-89416310D01*
X156046165Y-89501266D01*
X155861579Y-89624602D01*
X155704602Y-89781579D01*
X155581266Y-89966165D01*
X155496310Y-90171266D01*
X155453000Y-90389000D01*
X155167000Y-90389000D01*
X155123690Y-90171266D01*
X155038734Y-89966165D01*
X154915398Y-89781579D01*
X154758421Y-89624602D01*
X154573835Y-89501266D01*
X154368734Y-89416310D01*
X154151000Y-89373000D01*
X153929000Y-89373000D01*
X153711266Y-89416310D01*
X153506165Y-89501266D01*
X153321579Y-89624602D01*
X153164602Y-89781579D01*
X153041266Y-89966165D01*
X152956310Y-90171266D01*
X152913000Y-90389000D01*
X152628340Y-90389000D01*
X152628340Y-89650000D01*
X152622992Y-89595699D01*
X152607153Y-89543484D01*
X152581431Y-89495363D01*
X152546816Y-89453184D01*
X152504637Y-89418569D01*
X152456516Y-89392847D01*
X152404301Y-89377008D01*
X152350000Y-89371660D01*
X150650000Y-89371660D01*
X150595699Y-89377008D01*
X150543484Y-89392847D01*
X150495363Y-89418569D01*
X150453184Y-89453184D01*
X150418569Y-89495363D01*
X150392847Y-89543484D01*
X150377008Y-89595699D01*
X150371660Y-89650000D01*
X149192000Y-89650000D01*
X149192000Y-86242657D01*
X199238000Y-86351344D01*
G36*
X188883000Y-104965000D02*
G01*
X188885029Y-104987611D01*
X188891841Y-105011557D01*
X188903194Y-105033714D01*
X188918652Y-105053230D01*
X188937620Y-105069356D01*
X188959370Y-105081471D01*
X188983065Y-105089111D01*
X189007795Y-105091981D01*
X190323000Y-105114814D01*
X190323000Y-106400000D01*
X190325440Y-106424776D01*
X190332667Y-106448601D01*
X190344403Y-106470557D01*
X190360197Y-106489803D01*
X190379443Y-106505597D01*
X190401399Y-106517333D01*
X190425224Y-106524560D01*
X190450000Y-106527000D01*
X192122723Y-106527000D01*
X192113276Y-110872820D01*
X185316702Y-110863179D01*
X185307300Y-106867000D01*
X187000000Y-106867000D01*
X187024776Y-106864560D01*
X187048601Y-106857333D01*
X187070557Y-106845597D01*
X187089803Y-106829803D01*
X187105597Y-106810557D01*
X187117333Y-106788601D01*
X187124560Y-106764776D01*
X187127000Y-106740000D01*
X187127000Y-103157000D01*
X188883000Y-103157000D01*
X188883000Y-104965000D01*
G37*
X188883000Y-104965000D02*
X188885029Y-104987611D01*
X188891841Y-105011557D01*
X188903194Y-105033714D01*
X188918652Y-105053230D01*
X188937620Y-105069356D01*
X188959370Y-105081471D01*
X188983065Y-105089111D01*
X189007795Y-105091981D01*
X190323000Y-105114814D01*
X190323000Y-106400000D01*
X190325440Y-106424776D01*
X190332667Y-106448601D01*
X190344403Y-106470557D01*
X190360197Y-106489803D01*
X190379443Y-106505597D01*
X190401399Y-106517333D01*
X190425224Y-106524560D01*
X190450000Y-106527000D01*
X192122723Y-106527000D01*
X192113276Y-110872820D01*
X185316702Y-110863179D01*
X185307300Y-106867000D01*
X187000000Y-106867000D01*
X187024776Y-106864560D01*
X187048601Y-106857333D01*
X187070557Y-106845597D01*
X187089803Y-106829803D01*
X187105597Y-106810557D01*
X187117333Y-106788601D01*
X187124560Y-106764776D01*
X187127000Y-106740000D01*
X187127000Y-103157000D01*
X188883000Y-103157000D01*
X188883000Y-104965000D01*
%TD*%
M02*
