%TF.GenerationSoftware,KiCad,Pcbnew,(5.1.6)-1*%
%TF.CreationDate,2020-09-08T20:54:55+07:00*%
%TF.ProjectId,RX_nrf24,52585f6e-7266-4323-942e-6b696361645f,rev?*%
%TF.SameCoordinates,Original*%
%TF.FileFunction,Soldermask,Bot*%
%TF.FilePolarity,Negative*%
%FSLAX46Y46*%
G04 Gerber Fmt 4.6, Leading zero omitted, Abs format (unit mm)*
G04 Created by KiCad (PCBNEW (5.1.6)-1) date 2020-09-08 20:54:55*
%MOMM*%
%LPD*%
G01*
G04 APERTURE LIST*
%ADD10C,1.624000*%
%ADD11R,1.624000X1.624000*%
%ADD12O,1.800000X1.800000*%
%ADD13R,1.800000X1.800000*%
%ADD14C,2.350000*%
G04 APERTURE END LIST*
D10*
%TO.C,nRF*%
X173430000Y-114900000D03*
X173430000Y-112360000D03*
X175970000Y-114900000D03*
X175970000Y-112360000D03*
X178510000Y-114900000D03*
X178510000Y-112360000D03*
X181050000Y-114900000D03*
D11*
X181050000Y-112360000D03*
%TD*%
D12*
%TO.C,J4*%
X151510000Y-93000000D03*
X154050000Y-93000000D03*
X156590000Y-93000000D03*
X159130000Y-93000000D03*
X161670000Y-93000000D03*
X164210000Y-93000000D03*
X166750000Y-93000000D03*
X169290000Y-93000000D03*
X171830000Y-93000000D03*
D13*
X174370000Y-93000000D03*
%TD*%
D14*
%TO.C,J3*%
X203270000Y-101240000D03*
X200730000Y-103780000D03*
X205810000Y-103780000D03*
X205810000Y-98700000D03*
X200730000Y-98700000D03*
%TD*%
D12*
%TO.C,G*%
X174360000Y-88000000D03*
X171820000Y-88000000D03*
X169280000Y-88000000D03*
X166740000Y-88000000D03*
X164200000Y-88000000D03*
X161660000Y-88000000D03*
X159120000Y-88000000D03*
X156580000Y-88000000D03*
X154040000Y-88000000D03*
D13*
X151500000Y-88000000D03*
%TD*%
D12*
%TO.C,3.3v*%
X174360000Y-90500000D03*
X171820000Y-90500000D03*
X169280000Y-90500000D03*
X166740000Y-90500000D03*
X164200000Y-90500000D03*
X161660000Y-90500000D03*
X159120000Y-90500000D03*
X156580000Y-90500000D03*
X154040000Y-90500000D03*
D13*
X151500000Y-90500000D03*
%TD*%
%TO.C,J6*%
G36*
G01*
X154086111Y-97100000D02*
X150713889Y-97100000D01*
G75*
G02*
X150450000Y-96836111I0J263889D01*
G01*
X150450000Y-95463889D01*
G75*
G02*
X150713889Y-95200000I263889J0D01*
G01*
X154086111Y-95200000D01*
G75*
G02*
X154350000Y-95463889I0J-263889D01*
G01*
X154350000Y-96836111D01*
G75*
G02*
X154086111Y-97100000I-263889J0D01*
G01*
G37*
G36*
G01*
X154086111Y-109800000D02*
X150713889Y-109800000D01*
G75*
G02*
X150450000Y-109536111I0J263889D01*
G01*
X150450000Y-108163889D01*
G75*
G02*
X150713889Y-107900000I263889J0D01*
G01*
X154086111Y-107900000D01*
G75*
G02*
X154350000Y-108163889I0J-263889D01*
G01*
X154350000Y-109536111D01*
G75*
G02*
X154086111Y-109800000I-263889J0D01*
G01*
G37*
G36*
G01*
X158375000Y-99200000D02*
X155825000Y-99200000D01*
G75*
G02*
X155600000Y-98975000I0J225000D01*
G01*
X155600000Y-98525000D01*
G75*
G02*
X155825000Y-98300000I225000J0D01*
G01*
X158375000Y-98300000D01*
G75*
G02*
X158600000Y-98525000I0J-225000D01*
G01*
X158600000Y-98975000D01*
G75*
G02*
X158375000Y-99200000I-225000J0D01*
G01*
G37*
G36*
G01*
X158375000Y-100700000D02*
X155825000Y-100700000D01*
G75*
G02*
X155600000Y-100475000I0J225000D01*
G01*
X155600000Y-100025000D01*
G75*
G02*
X155825000Y-99800000I225000J0D01*
G01*
X158375000Y-99800000D01*
G75*
G02*
X158600000Y-100025000I0J-225000D01*
G01*
X158600000Y-100475000D01*
G75*
G02*
X158375000Y-100700000I-225000J0D01*
G01*
G37*
G36*
G01*
X158375000Y-102200000D02*
X155825000Y-102200000D01*
G75*
G02*
X155600000Y-101975000I0J225000D01*
G01*
X155600000Y-101525000D01*
G75*
G02*
X155825000Y-101300000I225000J0D01*
G01*
X158375000Y-101300000D01*
G75*
G02*
X158600000Y-101525000I0J-225000D01*
G01*
X158600000Y-101975000D01*
G75*
G02*
X158375000Y-102200000I-225000J0D01*
G01*
G37*
G36*
G01*
X158375000Y-103700000D02*
X155825000Y-103700000D01*
G75*
G02*
X155600000Y-103475000I0J225000D01*
G01*
X155600000Y-103025000D01*
G75*
G02*
X155825000Y-102800000I225000J0D01*
G01*
X158375000Y-102800000D01*
G75*
G02*
X158600000Y-103025000I0J-225000D01*
G01*
X158600000Y-103475000D01*
G75*
G02*
X158375000Y-103700000I-225000J0D01*
G01*
G37*
G36*
G01*
X158375000Y-105200000D02*
X155825000Y-105200000D01*
G75*
G02*
X155600000Y-104975000I0J225000D01*
G01*
X155600000Y-104525000D01*
G75*
G02*
X155825000Y-104300000I225000J0D01*
G01*
X158375000Y-104300000D01*
G75*
G02*
X158600000Y-104525000I0J-225000D01*
G01*
X158600000Y-104975000D01*
G75*
G02*
X158375000Y-105200000I-225000J0D01*
G01*
G37*
G36*
G01*
X158375000Y-106700000D02*
X155825000Y-106700000D01*
G75*
G02*
X155600000Y-106475000I0J225000D01*
G01*
X155600000Y-106025000D01*
G75*
G02*
X155825000Y-105800000I225000J0D01*
G01*
X158375000Y-105800000D01*
G75*
G02*
X158600000Y-106025000I0J-225000D01*
G01*
X158600000Y-106475000D01*
G75*
G02*
X158375000Y-106700000I-225000J0D01*
G01*
G37*
%TD*%
D12*
%TO.C,+3.3V CLK DIO GND*%
X158100000Y-115040000D03*
X155560000Y-115040000D03*
X153020000Y-115040000D03*
D13*
X150480000Y-115040000D03*
%TD*%
D12*
%TO.C,BOOT*%
X162250000Y-115050000D03*
X164790000Y-115050000D03*
D13*
X167330000Y-115050000D03*
%TD*%
M02*
