%TF.GenerationSoftware,KiCad,Pcbnew,(5.1.6)-1*%
%TF.CreationDate,2020-09-08T20:54:55+07:00*%
%TF.ProjectId,RX_nrf24,52585f6e-7266-4323-942e-6b696361645f,rev?*%
%TF.SameCoordinates,Original*%
%TF.FileFunction,Legend,Bot*%
%TF.FilePolarity,Positive*%
%FSLAX46Y46*%
G04 Gerber Fmt 4.6, Leading zero omitted, Abs format (unit mm)*
G04 Created by KiCad (PCBNEW (5.1.6)-1) date 2020-09-08 20:54:55*
%MOMM*%
%LPD*%
G01*
G04 APERTURE LIST*
%ADD10C,0.010000*%
%ADD11C,0.120000*%
%ADD12C,0.150000*%
G04 APERTURE END LIST*
D10*
%TO.C,G\u002A\u002A\u002A*%
G36*
X172757238Y-96040081D02*
G01*
X172619901Y-96070710D01*
X172550125Y-96074916D01*
X172504078Y-96112161D01*
X172502500Y-96127999D01*
X172453256Y-96188470D01*
X172431690Y-96191500D01*
X172349831Y-96235070D01*
X172224332Y-96345291D01*
X172161815Y-96410528D01*
X172057202Y-96527345D01*
X171966581Y-96634845D01*
X171868298Y-96760840D01*
X171740696Y-96933143D01*
X171562119Y-97179564D01*
X171550979Y-97195001D01*
X171399918Y-97373446D01*
X171282931Y-97439340D01*
X171245531Y-97436309D01*
X171113948Y-97406995D01*
X170925262Y-97374846D01*
X170880708Y-97368355D01*
X170672398Y-97336953D01*
X170491329Y-97306220D01*
X170467958Y-97301776D01*
X170306031Y-97274940D01*
X170092463Y-97245253D01*
X170026000Y-97237008D01*
X169813669Y-97208393D01*
X169631130Y-97178550D01*
X169590550Y-97170480D01*
X169465641Y-97157876D01*
X169242561Y-97148644D01*
X168950094Y-97142755D01*
X168617022Y-97140177D01*
X168272129Y-97140880D01*
X167944199Y-97144834D01*
X167662015Y-97152006D01*
X167454360Y-97162366D01*
X167361543Y-97172866D01*
X167193660Y-97204000D01*
X166984802Y-97238166D01*
X166952558Y-97243044D01*
X166763557Y-97282395D01*
X166512879Y-97349477D01*
X166232948Y-97433772D01*
X165956187Y-97524760D01*
X165715018Y-97611920D01*
X165541862Y-97684733D01*
X165478902Y-97721183D01*
X165405742Y-97763926D01*
X165390500Y-97753734D01*
X165341273Y-97751922D01*
X165209202Y-97807232D01*
X165017704Y-97907234D01*
X164790198Y-98039497D01*
X164550099Y-98191590D01*
X164490561Y-98231452D01*
X164295703Y-98378023D01*
X164062505Y-98575505D01*
X163811522Y-98803780D01*
X163563310Y-99042732D01*
X163338423Y-99272243D01*
X163157418Y-99472194D01*
X163040849Y-99622470D01*
X163010530Y-99679969D01*
X162957933Y-99784565D01*
X162920378Y-99811000D01*
X162876465Y-99863718D01*
X162792165Y-100003603D01*
X162681878Y-100203246D01*
X162560009Y-100435239D01*
X162440959Y-100672177D01*
X162339131Y-100886650D01*
X162269689Y-101049250D01*
X162214342Y-101191646D01*
X162140332Y-101379188D01*
X162126337Y-101414374D01*
X162073940Y-101562420D01*
X162057196Y-101645775D01*
X162061621Y-101652499D01*
X162056881Y-101701210D01*
X162005052Y-101819983D01*
X161997414Y-101834949D01*
X161943537Y-101971255D01*
X161940749Y-102054633D01*
X161942866Y-102057199D01*
X161965838Y-102098726D01*
X161900799Y-102081303D01*
X161767724Y-102012826D01*
X161647355Y-101940367D01*
X161220374Y-101604885D01*
X161148686Y-101525650D01*
X160439402Y-101525650D01*
X160136826Y-101833012D01*
X159977818Y-101989360D01*
X159852170Y-102103430D01*
X159787242Y-102150437D01*
X159727825Y-102108672D01*
X159622095Y-101990140D01*
X159522009Y-101859789D01*
X159398161Y-101673379D01*
X159351646Y-101553959D01*
X159372757Y-101476036D01*
X159374864Y-101473430D01*
X159472532Y-101382881D01*
X159626012Y-101266064D01*
X159797215Y-101148945D01*
X159948049Y-101057495D01*
X160040422Y-101017682D01*
X160043628Y-101017500D01*
X160110708Y-101066128D01*
X160213862Y-101189659D01*
X160271263Y-101271575D01*
X160439402Y-101525650D01*
X161148686Y-101525650D01*
X160804471Y-101145200D01*
X160482367Y-100691374D01*
X160239291Y-100335580D01*
X160031350Y-100083029D01*
X159843374Y-99920355D01*
X159660190Y-99834190D01*
X159483116Y-99811000D01*
X159124711Y-99861574D01*
X158846214Y-100008249D01*
X158654182Y-100243451D01*
X158555167Y-100559609D01*
X158549348Y-100889821D01*
X158639640Y-101300865D01*
X158839967Y-101737373D01*
X159153310Y-102204306D01*
X159582650Y-102706625D01*
X159739000Y-102869527D01*
X160012174Y-103140916D01*
X160233971Y-103341318D01*
X160436742Y-103495234D01*
X160652842Y-103627166D01*
X160914622Y-103761617D01*
X160921088Y-103764763D01*
X161180246Y-103887974D01*
X161408161Y-103991252D01*
X161573297Y-104060562D01*
X161629971Y-104080230D01*
X161708078Y-104123686D01*
X161757403Y-104223900D01*
X161790715Y-104411541D01*
X161799210Y-104486744D01*
X161837695Y-104790347D01*
X161890681Y-105129501D01*
X161948783Y-105448154D01*
X161997137Y-105668875D01*
X162054501Y-105898902D01*
X162106469Y-106109309D01*
X162119104Y-106161000D01*
X162146873Y-106254849D01*
X162155080Y-106272125D01*
X162180314Y-106338467D01*
X162183750Y-106351500D01*
X162209539Y-106426410D01*
X162212421Y-106430875D01*
X162234012Y-106498089D01*
X162245308Y-106549821D01*
X162285918Y-106682073D01*
X162364496Y-106882085D01*
X162468459Y-107123012D01*
X162585223Y-107378010D01*
X162702204Y-107620233D01*
X162806820Y-107822839D01*
X162886485Y-107958981D01*
X162926268Y-108002500D01*
X162974740Y-108052324D01*
X162977500Y-108076104D01*
X163021005Y-108189044D01*
X163139872Y-108367936D01*
X163316629Y-108592067D01*
X163533806Y-108840723D01*
X163773930Y-109093190D01*
X164019532Y-109328756D01*
X164078699Y-109381663D01*
X164252427Y-109575784D01*
X164311000Y-109745786D01*
X164352375Y-109893493D01*
X164455337Y-110063756D01*
X164491760Y-110107800D01*
X164658585Y-110254425D01*
X164847009Y-110316349D01*
X164934849Y-110324424D01*
X165103879Y-110319846D01*
X165243944Y-110270547D01*
X165403226Y-110155862D01*
X165478209Y-110091371D01*
X165759239Y-109844000D01*
X167873481Y-109844000D01*
X167961283Y-110054140D01*
X168109485Y-110262746D01*
X168344588Y-110382283D01*
X168626722Y-110415500D01*
X168792172Y-110399291D01*
X168921211Y-110332735D01*
X169062689Y-110188937D01*
X169084109Y-110163683D01*
X169295750Y-109911866D01*
X171052111Y-109902372D01*
X171513961Y-109901407D01*
X171935430Y-109903448D01*
X172299478Y-109908179D01*
X172589070Y-109915284D01*
X172787169Y-109924445D01*
X172876736Y-109935347D01*
X172878772Y-109936327D01*
X172920052Y-110014067D01*
X172910648Y-110041947D01*
X172930649Y-110117040D01*
X173023976Y-110240680D01*
X173104633Y-110323309D01*
X173366186Y-110497722D01*
X173642059Y-110550071D01*
X173916986Y-110479392D01*
X174066996Y-110384022D01*
X174206905Y-110243979D01*
X174296356Y-110100116D01*
X174304032Y-110076386D01*
X174340654Y-109990765D01*
X174418108Y-109938286D01*
X174568289Y-109904718D01*
X174733226Y-109884909D01*
X174973704Y-109866855D01*
X175288883Y-109852873D01*
X175626480Y-109845005D01*
X175780435Y-109844000D01*
X176436239Y-109844000D01*
X176531851Y-110028893D01*
X176726717Y-110289029D01*
X176984275Y-110439100D01*
X177248164Y-110479000D01*
X177448915Y-110461941D01*
X177600848Y-110392406D01*
X177747601Y-110263099D01*
X177908109Y-110060212D01*
X177963197Y-109868963D01*
X177963500Y-109852849D01*
X177976891Y-109748214D01*
X178030216Y-109650331D01*
X178143203Y-109536230D01*
X178335580Y-109382944D01*
X178423875Y-109316856D01*
X178905991Y-108920993D01*
X179305379Y-108501176D01*
X179664510Y-108012138D01*
X179701586Y-107954972D01*
X180048560Y-107365019D01*
X180301174Y-106817300D01*
X180471182Y-106284275D01*
X180528366Y-106017510D01*
X180557123Y-105860358D01*
X180598719Y-105634218D01*
X180633445Y-105446010D01*
X180687188Y-105016267D01*
X180711775Y-104490038D01*
X180710689Y-104273261D01*
X180214233Y-104273261D01*
X180159026Y-105131896D01*
X180031990Y-105911401D01*
X179989668Y-106088587D01*
X179780343Y-106722719D01*
X179488990Y-107333961D01*
X179130778Y-107900661D01*
X178720878Y-108401168D01*
X178274462Y-108813831D01*
X177904702Y-109064197D01*
X177672491Y-109209534D01*
X177535578Y-109339393D01*
X177470937Y-109484440D01*
X177455500Y-109662481D01*
X177422958Y-109870574D01*
X177346015Y-109962460D01*
X177193573Y-109990989D01*
X177072274Y-109914863D01*
X177012785Y-109756424D01*
X177011000Y-109718366D01*
X177003521Y-109602673D01*
X176971578Y-109513719D01*
X176900912Y-109448560D01*
X176777262Y-109404254D01*
X176586371Y-109377859D01*
X176313978Y-109366431D01*
X175945825Y-109367028D01*
X175467652Y-109376707D01*
X175367593Y-109379218D01*
X174888330Y-109392434D01*
X174521130Y-109407175D01*
X174251083Y-109427436D01*
X174063276Y-109457210D01*
X173942798Y-109500493D01*
X173874736Y-109561278D01*
X173844179Y-109643561D01*
X173836214Y-109751335D01*
X173836000Y-109789481D01*
X173797824Y-109945890D01*
X173726515Y-110025960D01*
X173574318Y-110053699D01*
X173451980Y-109977945D01*
X173392864Y-109822157D01*
X173391500Y-109790402D01*
X173391175Y-109688488D01*
X173382172Y-109605918D01*
X173352449Y-109540766D01*
X173289965Y-109491103D01*
X173182680Y-109455004D01*
X173018551Y-109430541D01*
X172785537Y-109415788D01*
X172471598Y-109408818D01*
X172064691Y-109407704D01*
X171552776Y-109410520D01*
X171042000Y-109414441D01*
X168851250Y-109431250D01*
X168784528Y-109637672D01*
X168693581Y-109853274D01*
X168597036Y-109946619D01*
X168489463Y-109922449D01*
X168472942Y-109909733D01*
X168394058Y-109783981D01*
X168375000Y-109681075D01*
X168363968Y-109574237D01*
X168321379Y-109491761D01*
X168232994Y-109430569D01*
X168084576Y-109387584D01*
X167861885Y-109359727D01*
X167550685Y-109343922D01*
X167136735Y-109337090D01*
X166778565Y-109336000D01*
X166377476Y-109337843D01*
X166015683Y-109342991D01*
X165713872Y-109350867D01*
X165492728Y-109360895D01*
X165372937Y-109372500D01*
X165361578Y-109375451D01*
X165270362Y-109456940D01*
X165179633Y-109605991D01*
X165167083Y-109634338D01*
X165065348Y-109796755D01*
X164960399Y-109837189D01*
X164871307Y-109758687D01*
X164819000Y-109578732D01*
X164788976Y-109459548D01*
X164721856Y-109336971D01*
X164600953Y-109189485D01*
X164409580Y-108995578D01*
X164247500Y-108841935D01*
X163720275Y-108271047D01*
X163275104Y-107618741D01*
X162909836Y-106880091D01*
X162622322Y-106050173D01*
X162410409Y-105124061D01*
X162302691Y-104388523D01*
X162249975Y-103768080D01*
X162250772Y-103220949D01*
X162309376Y-102703367D01*
X162351740Y-102516718D01*
X161505447Y-102516718D01*
X161475824Y-102667350D01*
X161424569Y-102863014D01*
X161362627Y-103066610D01*
X161300945Y-103241039D01*
X161250469Y-103349199D01*
X161231406Y-103367000D01*
X161142167Y-103335078D01*
X160986893Y-103252854D01*
X160859369Y-103175797D01*
X160674363Y-103040038D01*
X160599307Y-102938895D01*
X160603355Y-102905922D01*
X160660687Y-102813421D01*
X160763562Y-102652797D01*
X160866810Y-102493924D01*
X161084784Y-102160598D01*
X161285017Y-102298735D01*
X161417775Y-102390193D01*
X161496075Y-102443890D01*
X161502491Y-102448218D01*
X161505447Y-102516718D01*
X162351740Y-102516718D01*
X162430079Y-102171569D01*
X162562344Y-101741842D01*
X162894380Y-100901546D01*
X163294947Y-100165109D01*
X163768301Y-99526859D01*
X164318699Y-98981119D01*
X164950398Y-98522215D01*
X165000738Y-98491402D01*
X165214226Y-98362282D01*
X165403502Y-98577856D01*
X165663600Y-98785422D01*
X165976395Y-98896056D01*
X166302953Y-98895996D01*
X166303256Y-98895939D01*
X166594769Y-98780951D01*
X166841588Y-98570881D01*
X167018894Y-98296079D01*
X167101868Y-97986897D01*
X167105001Y-97915445D01*
X167134626Y-97765459D01*
X167239381Y-97694402D01*
X167247875Y-97692023D01*
X167454306Y-97652639D01*
X167568453Y-97678384D01*
X167611063Y-97776478D01*
X167613000Y-97819129D01*
X167667588Y-98049868D01*
X167812294Y-98282607D01*
X168018536Y-98474195D01*
X168067710Y-98505586D01*
X168327942Y-98603321D01*
X168620073Y-98628606D01*
X168894327Y-98581734D01*
X169057876Y-98499747D01*
X169245739Y-98324088D01*
X169402079Y-98112986D01*
X169499384Y-97908103D01*
X169518000Y-97802946D01*
X169515968Y-97748054D01*
X169521014Y-97708940D01*
X169549859Y-97686269D01*
X169619219Y-97680704D01*
X169745813Y-97692910D01*
X169946360Y-97723551D01*
X170237577Y-97773290D01*
X170636183Y-97842792D01*
X170670258Y-97848713D01*
X170981011Y-97898801D01*
X171251122Y-97935117D01*
X171453562Y-97954534D01*
X171561305Y-97953921D01*
X171566364Y-97952441D01*
X171638092Y-97888798D01*
X171763535Y-97742451D01*
X171924707Y-97535518D01*
X172094791Y-97302597D01*
X172284410Y-97048916D01*
X172467214Y-96828561D01*
X172621192Y-96666714D01*
X172715331Y-96592702D01*
X172855026Y-96533952D01*
X172959051Y-96548753D01*
X173066646Y-96618605D01*
X173173566Y-96722807D01*
X173325480Y-96903672D01*
X173498176Y-97131373D01*
X173599946Y-97275516D01*
X173759500Y-97501755D01*
X173896998Y-97685101D01*
X173994401Y-97802139D01*
X174028571Y-97831916D01*
X174070279Y-97903100D01*
X174089802Y-98048322D01*
X174090000Y-98065505D01*
X174131009Y-98275484D01*
X174235741Y-98416246D01*
X174376756Y-98473928D01*
X174526615Y-98434668D01*
X174626150Y-98336370D01*
X174702635Y-98173909D01*
X174725000Y-98050620D01*
X174755079Y-97939445D01*
X174867536Y-97906206D01*
X174883750Y-97906000D01*
X174998178Y-97927191D01*
X175039216Y-98016434D01*
X175042500Y-98091964D01*
X175092095Y-98299295D01*
X175224501Y-98436596D01*
X175383586Y-98477499D01*
X175560160Y-98429991D01*
X175656538Y-98285689D01*
X175677500Y-98115550D01*
X175691131Y-97970805D01*
X175751180Y-97913891D01*
X175836250Y-97906000D01*
X175950678Y-97927191D01*
X175991716Y-98016434D01*
X175995000Y-98091964D01*
X176044595Y-98299295D01*
X176177001Y-98436596D01*
X176336086Y-98477499D01*
X176512382Y-98430195D01*
X176608722Y-98286229D01*
X176630001Y-98113731D01*
X176648285Y-97992160D01*
X176711559Y-97847949D01*
X176832448Y-97659158D01*
X177023582Y-97403843D01*
X177079890Y-97332030D01*
X177308675Y-97048461D01*
X177482669Y-96852824D01*
X177620700Y-96729569D01*
X177741600Y-96663143D01*
X177864198Y-96637995D01*
X177922628Y-96636000D01*
X178103474Y-96697621D01*
X178300216Y-96877885D01*
X178509570Y-97169891D01*
X178728255Y-97566736D01*
X178952987Y-98061521D01*
X179180486Y-98647343D01*
X179407467Y-99317302D01*
X179630649Y-100064496D01*
X179734785Y-100446000D01*
X179957888Y-101421864D01*
X180112764Y-102398315D01*
X180198513Y-103355424D01*
X180214233Y-104273261D01*
X180710689Y-104273261D01*
X180708787Y-103894061D01*
X180679804Y-103255077D01*
X180626403Y-102599824D01*
X180550166Y-101955040D01*
X180452671Y-101347465D01*
X180366910Y-100933838D01*
X180313360Y-100682874D01*
X180279182Y-100481233D01*
X180269017Y-100358735D01*
X180273982Y-100336852D01*
X180352339Y-100320367D01*
X180524694Y-100311453D01*
X180758303Y-100309591D01*
X181020422Y-100314260D01*
X181278307Y-100324941D01*
X181499214Y-100341115D01*
X181631322Y-100358393D01*
X181845232Y-100355980D01*
X181981541Y-100262080D01*
X182027500Y-100092722D01*
X182021931Y-99999255D01*
X181989006Y-99938785D01*
X181904402Y-99900974D01*
X181743795Y-99875481D01*
X181482860Y-99851966D01*
X181456000Y-99849786D01*
X180979122Y-99810986D01*
X180615258Y-99779665D01*
X180350863Y-99752724D01*
X180172394Y-99727063D01*
X180066305Y-99699584D01*
X180019053Y-99667187D01*
X180017093Y-99626774D01*
X180046881Y-99575246D01*
X180076910Y-99534244D01*
X180152303Y-99480089D01*
X180301963Y-99435264D01*
X180544121Y-99395712D01*
X180852750Y-99361607D01*
X181232922Y-99322648D01*
X181505027Y-99287227D01*
X181687655Y-99249524D01*
X181799394Y-99203719D01*
X181858833Y-99143993D01*
X181884560Y-99064527D01*
X181888317Y-99037407D01*
X181873821Y-98896976D01*
X181772089Y-98826302D01*
X181771235Y-98826031D01*
X181624329Y-98808693D01*
X181376904Y-98811582D01*
X181053503Y-98832817D01*
X180678669Y-98870519D01*
X180276945Y-98922806D01*
X180047010Y-98958143D01*
X179878082Y-98941643D01*
X179779062Y-98820374D01*
X179761719Y-98763250D01*
X179680995Y-98502363D01*
X179547858Y-98162623D01*
X179375027Y-97774204D01*
X179175221Y-97367278D01*
X179164573Y-97346642D01*
X178899355Y-96880315D01*
X178645687Y-96533028D01*
X178397028Y-96298116D01*
X178146836Y-96168916D01*
X177978613Y-96138369D01*
X177671967Y-96167087D01*
X177380509Y-96295199D01*
X177092460Y-96530608D01*
X176796041Y-96881216D01*
X176725250Y-96979254D01*
X176617541Y-97129451D01*
X176523274Y-97238614D01*
X176420442Y-97313287D01*
X176287035Y-97360016D01*
X176101043Y-97385347D01*
X175840457Y-97395823D01*
X175483267Y-97397992D01*
X175317178Y-97397999D01*
X174282302Y-97397999D01*
X174107371Y-97128124D01*
X174000224Y-96967018D01*
X173920421Y-96854602D01*
X173897035Y-96826500D01*
X173841702Y-96758452D01*
X173745781Y-96626295D01*
X173708273Y-96572500D01*
X173547652Y-96362893D01*
X173388990Y-96223705D01*
X173179736Y-96110649D01*
X173138238Y-96092109D01*
X172910714Y-96030510D01*
X172757238Y-96040081D01*
G37*
X172757238Y-96040081D02*
X172619901Y-96070710D01*
X172550125Y-96074916D01*
X172504078Y-96112161D01*
X172502500Y-96127999D01*
X172453256Y-96188470D01*
X172431690Y-96191500D01*
X172349831Y-96235070D01*
X172224332Y-96345291D01*
X172161815Y-96410528D01*
X172057202Y-96527345D01*
X171966581Y-96634845D01*
X171868298Y-96760840D01*
X171740696Y-96933143D01*
X171562119Y-97179564D01*
X171550979Y-97195001D01*
X171399918Y-97373446D01*
X171282931Y-97439340D01*
X171245531Y-97436309D01*
X171113948Y-97406995D01*
X170925262Y-97374846D01*
X170880708Y-97368355D01*
X170672398Y-97336953D01*
X170491329Y-97306220D01*
X170467958Y-97301776D01*
X170306031Y-97274940D01*
X170092463Y-97245253D01*
X170026000Y-97237008D01*
X169813669Y-97208393D01*
X169631130Y-97178550D01*
X169590550Y-97170480D01*
X169465641Y-97157876D01*
X169242561Y-97148644D01*
X168950094Y-97142755D01*
X168617022Y-97140177D01*
X168272129Y-97140880D01*
X167944199Y-97144834D01*
X167662015Y-97152006D01*
X167454360Y-97162366D01*
X167361543Y-97172866D01*
X167193660Y-97204000D01*
X166984802Y-97238166D01*
X166952558Y-97243044D01*
X166763557Y-97282395D01*
X166512879Y-97349477D01*
X166232948Y-97433772D01*
X165956187Y-97524760D01*
X165715018Y-97611920D01*
X165541862Y-97684733D01*
X165478902Y-97721183D01*
X165405742Y-97763926D01*
X165390500Y-97753734D01*
X165341273Y-97751922D01*
X165209202Y-97807232D01*
X165017704Y-97907234D01*
X164790198Y-98039497D01*
X164550099Y-98191590D01*
X164490561Y-98231452D01*
X164295703Y-98378023D01*
X164062505Y-98575505D01*
X163811522Y-98803780D01*
X163563310Y-99042732D01*
X163338423Y-99272243D01*
X163157418Y-99472194D01*
X163040849Y-99622470D01*
X163010530Y-99679969D01*
X162957933Y-99784565D01*
X162920378Y-99811000D01*
X162876465Y-99863718D01*
X162792165Y-100003603D01*
X162681878Y-100203246D01*
X162560009Y-100435239D01*
X162440959Y-100672177D01*
X162339131Y-100886650D01*
X162269689Y-101049250D01*
X162214342Y-101191646D01*
X162140332Y-101379188D01*
X162126337Y-101414374D01*
X162073940Y-101562420D01*
X162057196Y-101645775D01*
X162061621Y-101652499D01*
X162056881Y-101701210D01*
X162005052Y-101819983D01*
X161997414Y-101834949D01*
X161943537Y-101971255D01*
X161940749Y-102054633D01*
X161942866Y-102057199D01*
X161965838Y-102098726D01*
X161900799Y-102081303D01*
X161767724Y-102012826D01*
X161647355Y-101940367D01*
X161220374Y-101604885D01*
X161148686Y-101525650D01*
X160439402Y-101525650D01*
X160136826Y-101833012D01*
X159977818Y-101989360D01*
X159852170Y-102103430D01*
X159787242Y-102150437D01*
X159727825Y-102108672D01*
X159622095Y-101990140D01*
X159522009Y-101859789D01*
X159398161Y-101673379D01*
X159351646Y-101553959D01*
X159372757Y-101476036D01*
X159374864Y-101473430D01*
X159472532Y-101382881D01*
X159626012Y-101266064D01*
X159797215Y-101148945D01*
X159948049Y-101057495D01*
X160040422Y-101017682D01*
X160043628Y-101017500D01*
X160110708Y-101066128D01*
X160213862Y-101189659D01*
X160271263Y-101271575D01*
X160439402Y-101525650D01*
X161148686Y-101525650D01*
X160804471Y-101145200D01*
X160482367Y-100691374D01*
X160239291Y-100335580D01*
X160031350Y-100083029D01*
X159843374Y-99920355D01*
X159660190Y-99834190D01*
X159483116Y-99811000D01*
X159124711Y-99861574D01*
X158846214Y-100008249D01*
X158654182Y-100243451D01*
X158555167Y-100559609D01*
X158549348Y-100889821D01*
X158639640Y-101300865D01*
X158839967Y-101737373D01*
X159153310Y-102204306D01*
X159582650Y-102706625D01*
X159739000Y-102869527D01*
X160012174Y-103140916D01*
X160233971Y-103341318D01*
X160436742Y-103495234D01*
X160652842Y-103627166D01*
X160914622Y-103761617D01*
X160921088Y-103764763D01*
X161180246Y-103887974D01*
X161408161Y-103991252D01*
X161573297Y-104060562D01*
X161629971Y-104080230D01*
X161708078Y-104123686D01*
X161757403Y-104223900D01*
X161790715Y-104411541D01*
X161799210Y-104486744D01*
X161837695Y-104790347D01*
X161890681Y-105129501D01*
X161948783Y-105448154D01*
X161997137Y-105668875D01*
X162054501Y-105898902D01*
X162106469Y-106109309D01*
X162119104Y-106161000D01*
X162146873Y-106254849D01*
X162155080Y-106272125D01*
X162180314Y-106338467D01*
X162183750Y-106351500D01*
X162209539Y-106426410D01*
X162212421Y-106430875D01*
X162234012Y-106498089D01*
X162245308Y-106549821D01*
X162285918Y-106682073D01*
X162364496Y-106882085D01*
X162468459Y-107123012D01*
X162585223Y-107378010D01*
X162702204Y-107620233D01*
X162806820Y-107822839D01*
X162886485Y-107958981D01*
X162926268Y-108002500D01*
X162974740Y-108052324D01*
X162977500Y-108076104D01*
X163021005Y-108189044D01*
X163139872Y-108367936D01*
X163316629Y-108592067D01*
X163533806Y-108840723D01*
X163773930Y-109093190D01*
X164019532Y-109328756D01*
X164078699Y-109381663D01*
X164252427Y-109575784D01*
X164311000Y-109745786D01*
X164352375Y-109893493D01*
X164455337Y-110063756D01*
X164491760Y-110107800D01*
X164658585Y-110254425D01*
X164847009Y-110316349D01*
X164934849Y-110324424D01*
X165103879Y-110319846D01*
X165243944Y-110270547D01*
X165403226Y-110155862D01*
X165478209Y-110091371D01*
X165759239Y-109844000D01*
X167873481Y-109844000D01*
X167961283Y-110054140D01*
X168109485Y-110262746D01*
X168344588Y-110382283D01*
X168626722Y-110415500D01*
X168792172Y-110399291D01*
X168921211Y-110332735D01*
X169062689Y-110188937D01*
X169084109Y-110163683D01*
X169295750Y-109911866D01*
X171052111Y-109902372D01*
X171513961Y-109901407D01*
X171935430Y-109903448D01*
X172299478Y-109908179D01*
X172589070Y-109915284D01*
X172787169Y-109924445D01*
X172876736Y-109935347D01*
X172878772Y-109936327D01*
X172920052Y-110014067D01*
X172910648Y-110041947D01*
X172930649Y-110117040D01*
X173023976Y-110240680D01*
X173104633Y-110323309D01*
X173366186Y-110497722D01*
X173642059Y-110550071D01*
X173916986Y-110479392D01*
X174066996Y-110384022D01*
X174206905Y-110243979D01*
X174296356Y-110100116D01*
X174304032Y-110076386D01*
X174340654Y-109990765D01*
X174418108Y-109938286D01*
X174568289Y-109904718D01*
X174733226Y-109884909D01*
X174973704Y-109866855D01*
X175288883Y-109852873D01*
X175626480Y-109845005D01*
X175780435Y-109844000D01*
X176436239Y-109844000D01*
X176531851Y-110028893D01*
X176726717Y-110289029D01*
X176984275Y-110439100D01*
X177248164Y-110479000D01*
X177448915Y-110461941D01*
X177600848Y-110392406D01*
X177747601Y-110263099D01*
X177908109Y-110060212D01*
X177963197Y-109868963D01*
X177963500Y-109852849D01*
X177976891Y-109748214D01*
X178030216Y-109650331D01*
X178143203Y-109536230D01*
X178335580Y-109382944D01*
X178423875Y-109316856D01*
X178905991Y-108920993D01*
X179305379Y-108501176D01*
X179664510Y-108012138D01*
X179701586Y-107954972D01*
X180048560Y-107365019D01*
X180301174Y-106817300D01*
X180471182Y-106284275D01*
X180528366Y-106017510D01*
X180557123Y-105860358D01*
X180598719Y-105634218D01*
X180633445Y-105446010D01*
X180687188Y-105016267D01*
X180711775Y-104490038D01*
X180710689Y-104273261D01*
X180214233Y-104273261D01*
X180159026Y-105131896D01*
X180031990Y-105911401D01*
X179989668Y-106088587D01*
X179780343Y-106722719D01*
X179488990Y-107333961D01*
X179130778Y-107900661D01*
X178720878Y-108401168D01*
X178274462Y-108813831D01*
X177904702Y-109064197D01*
X177672491Y-109209534D01*
X177535578Y-109339393D01*
X177470937Y-109484440D01*
X177455500Y-109662481D01*
X177422958Y-109870574D01*
X177346015Y-109962460D01*
X177193573Y-109990989D01*
X177072274Y-109914863D01*
X177012785Y-109756424D01*
X177011000Y-109718366D01*
X177003521Y-109602673D01*
X176971578Y-109513719D01*
X176900912Y-109448560D01*
X176777262Y-109404254D01*
X176586371Y-109377859D01*
X176313978Y-109366431D01*
X175945825Y-109367028D01*
X175467652Y-109376707D01*
X175367593Y-109379218D01*
X174888330Y-109392434D01*
X174521130Y-109407175D01*
X174251083Y-109427436D01*
X174063276Y-109457210D01*
X173942798Y-109500493D01*
X173874736Y-109561278D01*
X173844179Y-109643561D01*
X173836214Y-109751335D01*
X173836000Y-109789481D01*
X173797824Y-109945890D01*
X173726515Y-110025960D01*
X173574318Y-110053699D01*
X173451980Y-109977945D01*
X173392864Y-109822157D01*
X173391500Y-109790402D01*
X173391175Y-109688488D01*
X173382172Y-109605918D01*
X173352449Y-109540766D01*
X173289965Y-109491103D01*
X173182680Y-109455004D01*
X173018551Y-109430541D01*
X172785537Y-109415788D01*
X172471598Y-109408818D01*
X172064691Y-109407704D01*
X171552776Y-109410520D01*
X171042000Y-109414441D01*
X168851250Y-109431250D01*
X168784528Y-109637672D01*
X168693581Y-109853274D01*
X168597036Y-109946619D01*
X168489463Y-109922449D01*
X168472942Y-109909733D01*
X168394058Y-109783981D01*
X168375000Y-109681075D01*
X168363968Y-109574237D01*
X168321379Y-109491761D01*
X168232994Y-109430569D01*
X168084576Y-109387584D01*
X167861885Y-109359727D01*
X167550685Y-109343922D01*
X167136735Y-109337090D01*
X166778565Y-109336000D01*
X166377476Y-109337843D01*
X166015683Y-109342991D01*
X165713872Y-109350867D01*
X165492728Y-109360895D01*
X165372937Y-109372500D01*
X165361578Y-109375451D01*
X165270362Y-109456940D01*
X165179633Y-109605991D01*
X165167083Y-109634338D01*
X165065348Y-109796755D01*
X164960399Y-109837189D01*
X164871307Y-109758687D01*
X164819000Y-109578732D01*
X164788976Y-109459548D01*
X164721856Y-109336971D01*
X164600953Y-109189485D01*
X164409580Y-108995578D01*
X164247500Y-108841935D01*
X163720275Y-108271047D01*
X163275104Y-107618741D01*
X162909836Y-106880091D01*
X162622322Y-106050173D01*
X162410409Y-105124061D01*
X162302691Y-104388523D01*
X162249975Y-103768080D01*
X162250772Y-103220949D01*
X162309376Y-102703367D01*
X162351740Y-102516718D01*
X161505447Y-102516718D01*
X161475824Y-102667350D01*
X161424569Y-102863014D01*
X161362627Y-103066610D01*
X161300945Y-103241039D01*
X161250469Y-103349199D01*
X161231406Y-103367000D01*
X161142167Y-103335078D01*
X160986893Y-103252854D01*
X160859369Y-103175797D01*
X160674363Y-103040038D01*
X160599307Y-102938895D01*
X160603355Y-102905922D01*
X160660687Y-102813421D01*
X160763562Y-102652797D01*
X160866810Y-102493924D01*
X161084784Y-102160598D01*
X161285017Y-102298735D01*
X161417775Y-102390193D01*
X161496075Y-102443890D01*
X161502491Y-102448218D01*
X161505447Y-102516718D01*
X162351740Y-102516718D01*
X162430079Y-102171569D01*
X162562344Y-101741842D01*
X162894380Y-100901546D01*
X163294947Y-100165109D01*
X163768301Y-99526859D01*
X164318699Y-98981119D01*
X164950398Y-98522215D01*
X165000738Y-98491402D01*
X165214226Y-98362282D01*
X165403502Y-98577856D01*
X165663600Y-98785422D01*
X165976395Y-98896056D01*
X166302953Y-98895996D01*
X166303256Y-98895939D01*
X166594769Y-98780951D01*
X166841588Y-98570881D01*
X167018894Y-98296079D01*
X167101868Y-97986897D01*
X167105001Y-97915445D01*
X167134626Y-97765459D01*
X167239381Y-97694402D01*
X167247875Y-97692023D01*
X167454306Y-97652639D01*
X167568453Y-97678384D01*
X167611063Y-97776478D01*
X167613000Y-97819129D01*
X167667588Y-98049868D01*
X167812294Y-98282607D01*
X168018536Y-98474195D01*
X168067710Y-98505586D01*
X168327942Y-98603321D01*
X168620073Y-98628606D01*
X168894327Y-98581734D01*
X169057876Y-98499747D01*
X169245739Y-98324088D01*
X169402079Y-98112986D01*
X169499384Y-97908103D01*
X169518000Y-97802946D01*
X169515968Y-97748054D01*
X169521014Y-97708940D01*
X169549859Y-97686269D01*
X169619219Y-97680704D01*
X169745813Y-97692910D01*
X169946360Y-97723551D01*
X170237577Y-97773290D01*
X170636183Y-97842792D01*
X170670258Y-97848713D01*
X170981011Y-97898801D01*
X171251122Y-97935117D01*
X171453562Y-97954534D01*
X171561305Y-97953921D01*
X171566364Y-97952441D01*
X171638092Y-97888798D01*
X171763535Y-97742451D01*
X171924707Y-97535518D01*
X172094791Y-97302597D01*
X172284410Y-97048916D01*
X172467214Y-96828561D01*
X172621192Y-96666714D01*
X172715331Y-96592702D01*
X172855026Y-96533952D01*
X172959051Y-96548753D01*
X173066646Y-96618605D01*
X173173566Y-96722807D01*
X173325480Y-96903672D01*
X173498176Y-97131373D01*
X173599946Y-97275516D01*
X173759500Y-97501755D01*
X173896998Y-97685101D01*
X173994401Y-97802139D01*
X174028571Y-97831916D01*
X174070279Y-97903100D01*
X174089802Y-98048322D01*
X174090000Y-98065505D01*
X174131009Y-98275484D01*
X174235741Y-98416246D01*
X174376756Y-98473928D01*
X174526615Y-98434668D01*
X174626150Y-98336370D01*
X174702635Y-98173909D01*
X174725000Y-98050620D01*
X174755079Y-97939445D01*
X174867536Y-97906206D01*
X174883750Y-97906000D01*
X174998178Y-97927191D01*
X175039216Y-98016434D01*
X175042500Y-98091964D01*
X175092095Y-98299295D01*
X175224501Y-98436596D01*
X175383586Y-98477499D01*
X175560160Y-98429991D01*
X175656538Y-98285689D01*
X175677500Y-98115550D01*
X175691131Y-97970805D01*
X175751180Y-97913891D01*
X175836250Y-97906000D01*
X175950678Y-97927191D01*
X175991716Y-98016434D01*
X175995000Y-98091964D01*
X176044595Y-98299295D01*
X176177001Y-98436596D01*
X176336086Y-98477499D01*
X176512382Y-98430195D01*
X176608722Y-98286229D01*
X176630001Y-98113731D01*
X176648285Y-97992160D01*
X176711559Y-97847949D01*
X176832448Y-97659158D01*
X177023582Y-97403843D01*
X177079890Y-97332030D01*
X177308675Y-97048461D01*
X177482669Y-96852824D01*
X177620700Y-96729569D01*
X177741600Y-96663143D01*
X177864198Y-96637995D01*
X177922628Y-96636000D01*
X178103474Y-96697621D01*
X178300216Y-96877885D01*
X178509570Y-97169891D01*
X178728255Y-97566736D01*
X178952987Y-98061521D01*
X179180486Y-98647343D01*
X179407467Y-99317302D01*
X179630649Y-100064496D01*
X179734785Y-100446000D01*
X179957888Y-101421864D01*
X180112764Y-102398315D01*
X180198513Y-103355424D01*
X180214233Y-104273261D01*
X180710689Y-104273261D01*
X180708787Y-103894061D01*
X180679804Y-103255077D01*
X180626403Y-102599824D01*
X180550166Y-101955040D01*
X180452671Y-101347465D01*
X180366910Y-100933838D01*
X180313360Y-100682874D01*
X180279182Y-100481233D01*
X180269017Y-100358735D01*
X180273982Y-100336852D01*
X180352339Y-100320367D01*
X180524694Y-100311453D01*
X180758303Y-100309591D01*
X181020422Y-100314260D01*
X181278307Y-100324941D01*
X181499214Y-100341115D01*
X181631322Y-100358393D01*
X181845232Y-100355980D01*
X181981541Y-100262080D01*
X182027500Y-100092722D01*
X182021931Y-99999255D01*
X181989006Y-99938785D01*
X181904402Y-99900974D01*
X181743795Y-99875481D01*
X181482860Y-99851966D01*
X181456000Y-99849786D01*
X180979122Y-99810986D01*
X180615258Y-99779665D01*
X180350863Y-99752724D01*
X180172394Y-99727063D01*
X180066305Y-99699584D01*
X180019053Y-99667187D01*
X180017093Y-99626774D01*
X180046881Y-99575246D01*
X180076910Y-99534244D01*
X180152303Y-99480089D01*
X180301963Y-99435264D01*
X180544121Y-99395712D01*
X180852750Y-99361607D01*
X181232922Y-99322648D01*
X181505027Y-99287227D01*
X181687655Y-99249524D01*
X181799394Y-99203719D01*
X181858833Y-99143993D01*
X181884560Y-99064527D01*
X181888317Y-99037407D01*
X181873821Y-98896976D01*
X181772089Y-98826302D01*
X181771235Y-98826031D01*
X181624329Y-98808693D01*
X181376904Y-98811582D01*
X181053503Y-98832817D01*
X180678669Y-98870519D01*
X180276945Y-98922806D01*
X180047010Y-98958143D01*
X179878082Y-98941643D01*
X179779062Y-98820374D01*
X179761719Y-98763250D01*
X179680995Y-98502363D01*
X179547858Y-98162623D01*
X179375027Y-97774204D01*
X179175221Y-97367278D01*
X179164573Y-97346642D01*
X178899355Y-96880315D01*
X178645687Y-96533028D01*
X178397028Y-96298116D01*
X178146836Y-96168916D01*
X177978613Y-96138369D01*
X177671967Y-96167087D01*
X177380509Y-96295199D01*
X177092460Y-96530608D01*
X176796041Y-96881216D01*
X176725250Y-96979254D01*
X176617541Y-97129451D01*
X176523274Y-97238614D01*
X176420442Y-97313287D01*
X176287035Y-97360016D01*
X176101043Y-97385347D01*
X175840457Y-97395823D01*
X175483267Y-97397992D01*
X175317178Y-97397999D01*
X174282302Y-97397999D01*
X174107371Y-97128124D01*
X174000224Y-96967018D01*
X173920421Y-96854602D01*
X173897035Y-96826500D01*
X173841702Y-96758452D01*
X173745781Y-96626295D01*
X173708273Y-96572500D01*
X173547652Y-96362893D01*
X173388990Y-96223705D01*
X173179736Y-96110649D01*
X173138238Y-96092109D01*
X172910714Y-96030510D01*
X172757238Y-96040081D01*
G36*
X175236822Y-99427954D02*
G01*
X175132149Y-99554999D01*
X175093947Y-99731813D01*
X175072046Y-99886849D01*
X175020858Y-99948949D01*
X174909294Y-99952164D01*
X174894181Y-99950618D01*
X174687775Y-99969925D01*
X174566823Y-100059804D01*
X174539957Y-100189695D01*
X174615806Y-100329039D01*
X174759280Y-100428244D01*
X174937638Y-100494946D01*
X175085483Y-100491436D01*
X175180521Y-100461277D01*
X175395826Y-100421675D01*
X175491318Y-100448310D01*
X175724610Y-100506575D01*
X175963947Y-100456626D01*
X176044371Y-100410649D01*
X176164693Y-100272857D01*
X176177167Y-100130282D01*
X176096074Y-100012980D01*
X175935694Y-99951009D01*
X175825820Y-99950618D01*
X175706783Y-99951284D01*
X175651123Y-99896353D01*
X175627751Y-99751772D01*
X175626054Y-99731813D01*
X175569992Y-99524558D01*
X175455093Y-99409860D01*
X175299492Y-99401879D01*
X175236822Y-99427954D01*
G37*
X175236822Y-99427954D02*
X175132149Y-99554999D01*
X175093947Y-99731813D01*
X175072046Y-99886849D01*
X175020858Y-99948949D01*
X174909294Y-99952164D01*
X174894181Y-99950618D01*
X174687775Y-99969925D01*
X174566823Y-100059804D01*
X174539957Y-100189695D01*
X174615806Y-100329039D01*
X174759280Y-100428244D01*
X174937638Y-100494946D01*
X175085483Y-100491436D01*
X175180521Y-100461277D01*
X175395826Y-100421675D01*
X175491318Y-100448310D01*
X175724610Y-100506575D01*
X175963947Y-100456626D01*
X176044371Y-100410649D01*
X176164693Y-100272857D01*
X176177167Y-100130282D01*
X176096074Y-100012980D01*
X175935694Y-99951009D01*
X175825820Y-99950618D01*
X175706783Y-99951284D01*
X175651123Y-99896353D01*
X175627751Y-99751772D01*
X175626054Y-99731813D01*
X175569992Y-99524558D01*
X175455093Y-99409860D01*
X175299492Y-99401879D01*
X175236822Y-99427954D01*
G36*
X177358192Y-99395100D02*
G01*
X177166864Y-99522363D01*
X177034866Y-99728965D01*
X177018878Y-99947506D01*
X177114035Y-100150964D01*
X177308451Y-100308627D01*
X177449438Y-100368709D01*
X177569001Y-100362779D01*
X177646000Y-100337450D01*
X177839073Y-100209412D01*
X177949059Y-100020269D01*
X177969511Y-99806051D01*
X177893982Y-99602784D01*
X177796187Y-99498108D01*
X177572946Y-99383574D01*
X177358192Y-99395100D01*
G37*
X177358192Y-99395100D02*
X177166864Y-99522363D01*
X177034866Y-99728965D01*
X177018878Y-99947506D01*
X177114035Y-100150964D01*
X177308451Y-100308627D01*
X177449438Y-100368709D01*
X177569001Y-100362779D01*
X177646000Y-100337450D01*
X177839073Y-100209412D01*
X177949059Y-100020269D01*
X177969511Y-99806051D01*
X177893982Y-99602784D01*
X177796187Y-99498108D01*
X177572946Y-99383574D01*
X177358192Y-99395100D01*
G36*
X172923814Y-99498108D02*
G01*
X172792822Y-99664425D01*
X172757091Y-99856645D01*
X172800635Y-100048760D01*
X172907471Y-100214762D01*
X173061612Y-100328642D01*
X173247074Y-100364393D01*
X173423250Y-100310709D01*
X173618518Y-100143291D01*
X173705979Y-99935949D01*
X173681193Y-99715638D01*
X173553137Y-99522363D01*
X173351054Y-99391436D01*
X173135742Y-99386387D01*
X172923814Y-99498108D01*
G37*
X172923814Y-99498108D02*
X172792822Y-99664425D01*
X172757091Y-99856645D01*
X172800635Y-100048760D01*
X172907471Y-100214762D01*
X173061612Y-100328642D01*
X173247074Y-100364393D01*
X173423250Y-100310709D01*
X173618518Y-100143291D01*
X173705979Y-99935949D01*
X173681193Y-99715638D01*
X173553137Y-99522363D01*
X173351054Y-99391436D01*
X173135742Y-99386387D01*
X172923814Y-99498108D01*
G36*
X170561138Y-99695829D02*
G01*
X170443193Y-99700937D01*
X169952679Y-99739758D01*
X169583341Y-99803252D01*
X169335994Y-99891055D01*
X169211450Y-100002806D01*
X169210522Y-100138140D01*
X169266532Y-100226800D01*
X169350578Y-100288513D01*
X169482809Y-100307638D01*
X169690998Y-100285332D01*
X169867250Y-100251857D01*
X170051787Y-100226717D01*
X170313680Y-100207104D01*
X170603305Y-100196486D01*
X170671682Y-100195659D01*
X170993857Y-100189251D01*
X171209604Y-100170928D01*
X171339371Y-100134418D01*
X171403605Y-100073448D01*
X171422753Y-99981746D01*
X171423000Y-99965190D01*
X171398966Y-99844418D01*
X171316423Y-99761320D01*
X171159711Y-99711671D01*
X170913170Y-99691249D01*
X170561138Y-99695829D01*
G37*
X170561138Y-99695829D02*
X170443193Y-99700937D01*
X169952679Y-99739758D01*
X169583341Y-99803252D01*
X169335994Y-99891055D01*
X169211450Y-100002806D01*
X169210522Y-100138140D01*
X169266532Y-100226800D01*
X169350578Y-100288513D01*
X169482809Y-100307638D01*
X169690998Y-100285332D01*
X169867250Y-100251857D01*
X170051787Y-100226717D01*
X170313680Y-100207104D01*
X170603305Y-100196486D01*
X170671682Y-100195659D01*
X170993857Y-100189251D01*
X171209604Y-100170928D01*
X171339371Y-100134418D01*
X171403605Y-100073448D01*
X171422753Y-99981746D01*
X171423000Y-99965190D01*
X171398966Y-99844418D01*
X171316423Y-99761320D01*
X171159711Y-99711671D01*
X170913170Y-99691249D01*
X170561138Y-99695829D01*
G36*
X169411587Y-98708560D02*
G01*
X169345000Y-98777419D01*
X169327500Y-98886022D01*
X169351870Y-99007523D01*
X169438540Y-99092539D01*
X169607852Y-99151543D01*
X169880148Y-99195006D01*
X169941184Y-99201935D01*
X170216134Y-99243358D01*
X170535246Y-99307930D01*
X170781755Y-99369037D01*
X171059319Y-99442968D01*
X171242469Y-99480616D01*
X171358120Y-99483217D01*
X171433188Y-99452008D01*
X171483972Y-99401297D01*
X171538328Y-99262929D01*
X171470317Y-99131396D01*
X171284490Y-99008921D01*
X170985395Y-98897728D01*
X170577584Y-98800038D01*
X170093298Y-98721726D01*
X169766999Y-98684733D01*
X169546008Y-98679004D01*
X169411587Y-98708560D01*
G37*
X169411587Y-98708560D02*
X169345000Y-98777419D01*
X169327500Y-98886022D01*
X169351870Y-99007523D01*
X169438540Y-99092539D01*
X169607852Y-99151543D01*
X169880148Y-99195006D01*
X169941184Y-99201935D01*
X170216134Y-99243358D01*
X170535246Y-99307930D01*
X170781755Y-99369037D01*
X171059319Y-99442968D01*
X171242469Y-99480616D01*
X171358120Y-99483217D01*
X171433188Y-99452008D01*
X171483972Y-99401297D01*
X171538328Y-99262929D01*
X171470317Y-99131396D01*
X171284490Y-99008921D01*
X170985395Y-98897728D01*
X170577584Y-98800038D01*
X170093298Y-98721726D01*
X169766999Y-98684733D01*
X169546008Y-98679004D01*
X169411587Y-98708560D01*
D11*
%TO.C,J6*%
X148940000Y-95640000D02*
X150240000Y-95640000D01*
X148940000Y-109360000D02*
X148940000Y-95640000D01*
X150240000Y-109360000D02*
X148940000Y-109360000D01*
X156660000Y-95640000D02*
X156660000Y-98090000D01*
X154560000Y-95640000D02*
X156660000Y-95640000D01*
X156660000Y-106910000D02*
X158550000Y-106910000D01*
X156660000Y-109360000D02*
X156660000Y-106910000D01*
X154560000Y-109360000D02*
X156660000Y-109360000D01*
D12*
X160292619Y-102833333D02*
X159578333Y-102833333D01*
X159435476Y-102880952D01*
X159340238Y-102976190D01*
X159292619Y-103119047D01*
X159292619Y-103214285D01*
X160292619Y-101928571D02*
X160292619Y-102119047D01*
X160245000Y-102214285D01*
X160197380Y-102261904D01*
X160054523Y-102357142D01*
X159864047Y-102404761D01*
X159483095Y-102404761D01*
X159387857Y-102357142D01*
X159340238Y-102309523D01*
X159292619Y-102214285D01*
X159292619Y-102023809D01*
X159340238Y-101928571D01*
X159387857Y-101880952D01*
X159483095Y-101833333D01*
X159721190Y-101833333D01*
X159816428Y-101880952D01*
X159864047Y-101928571D01*
X159911666Y-102023809D01*
X159911666Y-102214285D01*
X159864047Y-102309523D01*
X159816428Y-102357142D01*
X159721190Y-102404761D01*
%TD*%
M02*
