M48
; DRILL file {KiCad (5.1.6)-1} date 09/08/20 20:54:57
; FORMAT={-:-/ absolute / metric / decimal}
; #@! TF.CreationDate,2020-09-08T20:54:57+07:00
; #@! TF.GenerationSoftware,Kicad,Pcbnew,(5.1.6)-1
; #@! TF.FileFunction,Plated,1,2,PTH
FMAT,2
METRIC
T1C0.300
T2C0.400
T3C0.762
T4C1.000
T5C1.500
T6C1.700
%
G90
G05
T1
X150.975Y-94.475
X151.18Y-98.49
X151.25Y-100.6
X151.57Y-101.43
X151.65Y-99.59
X152.09Y-100.58
X152.34Y-103.42
X152.75Y-98.83
X152.8Y-99.64
X153.04Y-91.8
X153.91Y-98.78
X154.2Y-113.67
X154.475Y-94.325
X154.71Y-98.54
X154.76Y-97.69
X154.85Y-96.15
X155.26Y-91.8
X155.83Y-111.11
X155.99Y-113.59
X156.71Y-97.7
X157.17Y-94.93
X157.61Y-112.56
X157.75Y-98.59
X157.81Y-91.8
X158.29Y-109.74
X158.3Y-99.27
X158.96Y-94.41
X159.0Y-97.5
X160.0Y-97.0
X160.0Y-98.0
X160.02Y-115.13
X160.18Y-95.01
X160.5Y-106.5
X160.68Y-91.95
X161.0Y-97.5
X161.0Y-99.0
X161.5Y-107.0
X161.5Y-110.5
X161.5Y-111.5
X161.74Y-94.5
X162.0Y-97.0
X162.0Y-98.0
X162.0Y-100.0
X162.5Y-99.0
X162.5Y-107.5
X162.5Y-110.5
X162.5Y-111.5
X162.64Y-94.51
X162.93Y-91.94
X163.0Y-98.0
X163.225Y-99.8
X163.5Y-99.0
X163.5Y-110.5
X163.5Y-111.5
X163.795Y-105.395
X163.89Y-106.41
X164.5Y-99.5
X164.5Y-107.5
X164.5Y-110.5
X165.0Y-100.5
X165.3Y-91.84
X165.42Y-94.34
X165.5Y-107.5
X166.0Y-111.5
X166.04Y-95.19
X167.09Y-102.64
X167.18Y-103.62
X167.48Y-95.56
X168.0Y-94.63
X168.0Y-105.0
X168.02Y-91.93
X168.25Y-96.49
X168.35Y-95.43
X169.0Y-102.0
X169.0Y-104.0
X169.0Y-106.0
X169.82Y-115.83
X170.0Y-94.96
X170.0Y-103.0
X170.0Y-105.0
X170.0Y-107.0
X170.15Y-95.77
X170.39Y-94.33
X170.51Y-92.02
X170.61Y-115.33
X171.0Y-102.0
X171.0Y-104.0
X171.0Y-106.0
X171.57Y-114.81
X171.59Y-115.71
X171.675Y-96.05
X171.7Y-95.12
X171.7Y-96.925
X171.72Y-114.04
X172.0Y-103.0
X172.0Y-105.0
X172.02Y-113.15
X172.07Y-111.92
X172.09Y-110.71
X172.99Y-91.83
X173.0Y-104.0
X173.21Y-89.12
X174.175Y-108.75
X174.23Y-110.03
X175.26Y-108.12
X175.61Y-109.3
X175.85Y-99.64
X175.91Y-95.03
X175.95Y-98.01
X175.98Y-107.49
X176.165Y-96.175
X176.68Y-106.85
X176.75Y-93.94
X176.85Y-95.04
X177.035Y-96.175
X177.375Y-92.475
X177.71Y-94.41
X177.835Y-96.175
X178.42Y-95.02
X178.48Y-91.38
X178.5Y-109.5
X178.5Y-110.5
X178.77Y-94.42
X178.775Y-96.175
X179.28Y-91.7
X179.387Y-100.887
X179.5Y-89.0
X179.59Y-94.91
X179.645Y-96.175
X179.91Y-88.0
X180.0Y-108.5
X180.0Y-109.5
X180.0Y-110.5
X180.18Y-91.6
X180.41Y-96.17
X180.41Y-97.06
X180.41Y-97.97
X180.41Y-98.85
X180.41Y-99.63
X180.43Y-93.18
X180.57Y-93.88
X181.0Y-89.0
X181.32Y-93.66
X181.34Y-94.46
X181.5Y-106.5
X181.5Y-107.5
X181.5Y-108.5
X181.5Y-109.5
X181.5Y-110.5
X182.0Y-89.0
X182.26Y-88.0
X182.42Y-106.34
X182.95Y-114.68
X183.5Y-89.0
X183.5Y-90.5
X183.5Y-92.0
X183.5Y-95.0
X183.5Y-96.0
X183.5Y-97.5
X183.5Y-98.5
X183.73Y-113.93
X183.76Y-110.87
X183.76Y-111.73
X183.76Y-112.87
X183.85Y-107.93
X183.85Y-108.75
X183.85Y-109.83
X185.0Y-112.0
X185.0Y-113.5
X185.0Y-115.0
X185.325Y-92.475
X186.15Y-105.98
X186.5Y-112.0
X186.5Y-113.5
X186.5Y-115.0
X187.09Y-100.99
X187.1Y-101.86
X187.37Y-96.3
X187.49Y-95.34
X187.97Y-100.96
X187.99Y-101.86
X188.0Y-112.0
X188.0Y-113.5
X188.0Y-115.0
X188.57Y-94.14
X188.74Y-104.53
X189.055Y-89.705
X189.46Y-88.01
X189.48Y-93.16
X189.5Y-112.0
X189.5Y-113.5
X189.5Y-115.0
X190.48Y-93.13
X190.5Y-88.0
X190.5Y-89.5
X190.5Y-91.0
X191.0Y-112.0
X191.0Y-113.5
X191.0Y-115.0
X191.43Y-93.14
X191.5Y-88.0
X191.5Y-89.5
X191.5Y-91.0
X191.5Y-100.0
X192.43Y-93.2
X192.5Y-88.0
X192.5Y-89.5
X192.5Y-91.0
X192.5Y-100.0
X192.5Y-112.0
X192.5Y-113.5
X192.5Y-115.0
X193.5Y-88.0
X193.5Y-89.5
X193.5Y-91.0
X193.5Y-100.0
X194.0Y-107.5
X194.0Y-109.0
X194.0Y-110.5
X194.0Y-112.0
X194.0Y-113.5
X194.0Y-115.0
X194.01Y-102.36
X194.5Y-88.0
X194.5Y-89.5
X194.5Y-91.0
X194.5Y-97.0
X194.5Y-98.5
X194.5Y-100.0
X195.02Y-102.35
X195.5Y-88.0
X195.5Y-89.5
X195.5Y-91.0
X195.5Y-92.5
X195.5Y-94.0
X195.5Y-95.5
X195.5Y-97.0
X195.5Y-98.5
X195.5Y-100.0
X195.5Y-107.5
X195.5Y-109.0
X195.5Y-110.5
X195.5Y-112.0
X195.5Y-113.5
X195.5Y-115.0
X196.0Y-102.34
X196.5Y-88.0
X196.5Y-89.5
X196.5Y-91.0
X196.5Y-92.5
X196.5Y-94.0
X196.5Y-95.5
X196.5Y-97.0
X196.5Y-98.5
X196.5Y-100.0
X196.98Y-104.52
X197.0Y-106.0
X197.0Y-107.5
X197.0Y-109.0
X197.0Y-110.5
X197.0Y-112.0
X197.0Y-113.5
X197.0Y-115.0
X197.03Y-102.34
X197.17Y-103.47
X197.5Y-88.0
X197.5Y-89.5
X197.5Y-91.0
X197.5Y-92.5
X197.5Y-94.0
X197.5Y-95.5
X197.5Y-97.0
X197.5Y-98.5
X197.5Y-100.0
X197.99Y-102.34
X198.5Y-88.0
X198.5Y-89.5
X198.5Y-91.0
X198.5Y-92.5
X198.5Y-94.0
X198.5Y-95.5
X198.5Y-97.0
X198.5Y-98.5
X198.5Y-100.0
X198.5Y-104.5
X198.5Y-106.0
X198.5Y-107.5
X198.5Y-109.0
X198.5Y-110.5
X198.5Y-112.0
X198.5Y-113.5
X198.5Y-115.0
X198.9Y-102.32
X199.5Y-100.0
X199.85Y-102.31
T2
X156.31Y-106.24
X168.96Y-112.11
X171.3Y-100.81
X183.05Y-102.47
X183.05Y-104.41
X184.838Y-97.637
X185.32Y-107.83
X185.32Y-108.86
X185.72Y-110.15
X186.22Y-107.14
X186.88Y-110.56
X188.15Y-110.56
X188.925Y-105.385
X189.4Y-110.56
X189.855Y-97.605
X190.155Y-105.395
X190.17Y-106.69
X190.56Y-110.56
X191.85Y-110.51
X191.87Y-106.74
X191.87Y-109.41
X191.88Y-108.14
T3
X173.43Y-112.36
X173.43Y-114.9
X175.97Y-112.36
X175.97Y-114.9
X178.51Y-112.36
X178.51Y-114.9
X181.05Y-112.36
X181.05Y-114.9
T4
X151.5Y-90.5
X154.04Y-90.5
X156.58Y-90.5
X159.12Y-90.5
X161.66Y-90.5
X164.2Y-90.5
X166.74Y-90.5
X169.28Y-90.5
X171.82Y-90.5
X174.36Y-90.5
X150.48Y-115.04
X153.02Y-115.04
X155.56Y-115.04
X158.1Y-115.04
X151.51Y-93.0
X154.05Y-93.0
X156.59Y-93.0
X159.13Y-93.0
X161.67Y-93.0
X164.21Y-93.0
X166.75Y-93.0
X169.29Y-93.0
X171.83Y-93.0
X174.37Y-93.0
X151.5Y-88.0
X154.04Y-88.0
X156.58Y-88.0
X159.12Y-88.0
X161.66Y-88.0
X164.2Y-88.0
X166.74Y-88.0
X169.28Y-88.0
X171.82Y-88.0
X174.36Y-88.0
X162.25Y-115.05
X164.79Y-115.05
X167.33Y-115.05
T5
X203.27Y-101.24
T6
X200.73Y-98.7
X200.73Y-103.78
X205.81Y-98.7
X205.81Y-103.78
T0
M30
